<svg width="42" height="38" viewBox="0 0 42 38" fill="none" xmlns="http://www.w3.org/2000/svg">
<path d="M35.0667 1H32.4889C31.6666 1 31 1.66659 31 2.48888V28.4C31 29.2223 31.6666 29.8889 32.4889 29.8889H35.0667C35.889 29.8889 36.5556 29.2223 36.5556 28.4V2.48888C36.5556 1.66659 35.889 1 35.0667 1Z" stroke="white" stroke-width="1.5" stroke-linecap="round" stroke-linejoin="round"/>
<path d="M36.5557 13.2223H38.5557C39.9112 13.2223 41.0001 14.3223 41.0001 15.6667V16.3223C41.0001 17.6778 39.9001 18.7667 38.5557 18.7667H36.5557" stroke="white" stroke-width="1.5" stroke-linecap="round" stroke-linejoin="round"/>
<path d="M30.9889 28.4222C29.5667 27.2222 22.6445 22.0222 9.88892 22.0222V9.89998C22.3 9.89998 28.5889 5.34443 30.5667 3.57776" stroke="white" stroke-width="1.5" stroke-linecap="round" stroke-linejoin="round"/>
<path d="M9.88889 9.88892H7.11111C3.73333 9.88892 1 12.6222 1 16C1 19.3778 3.73333 22.1111 7.11111 22.1111H9.88889" stroke="white" stroke-width="1.5" stroke-linecap="round" stroke-linejoin="round"/>
<path d="M8.91113 22.1111L11.9778 34.8111C12.2223 35.8333 13.1445 36.5555 14.1889 36.5555C15.6667 36.5555 16.7445 35.1778 16.4 33.7444L14.9222 27.6222C14.4334 25.5778 16.2222 22.8778 18.5 22.8778" stroke="white" stroke-width="1.5" stroke-linecap="round" stroke-linejoin="round"/>
</svg>
