<svg width="92" height="92" viewBox="0 0 92 92" fill="none" xmlns="http://www.w3.org/2000/svg">
<path d="M0.53571 88.0108C0.0122402 88.5342 -0.142895 89.3097 0.138228 89.998C0.41935 90.6863 1.08822 91.1225 1.82495 91.1225C2.35812 91.1225 14.6984 91.0546 24.1112 85.7521C30.6933 89.271 38.0801 91.1225 45.5638 91.1225C70.6903 91.1225 91.125 70.6878 91.125 45.5612C91.125 20.4347 70.6903 0 45.5638 0C20.4372 0 0.00249897 20.4347 0.00249897 45.5612C0.00249897 55.0322 2.87184 64.0669 8.3101 71.7347C7.63153 75.8643 5.73163 82.8148 0.53571 88.0108ZM3.64741 45.5612C3.64741 22.4413 22.4438 3.64489 45.5638 3.64489C68.6837 3.64489 87.4801 22.4413 87.4801 45.5612C87.4801 68.6812 68.6837 87.4776 45.5638 87.4776C38.3515 87.4776 31.2265 85.6067 24.9837 82.0684C24.4893 81.7873 23.7622 81.7194 23.1321 82.1072C17.5872 85.5097 10.4235 86.7602 5.97396 87.2159C10.0163 81.5837 11.4898 75.2148 12.0229 71.5505C12.0908 71.0755 11.9745 70.6005 11.6837 70.2128C6.42959 63.0296 3.64741 54.5087 3.64741 45.5612Z" fill="#3D4DB6"/>
<path d="M30.5479 56.5445C33.1361 58.6577 34.6192 62.07 34.6192 65.8894V71.0853C34.6192 74.1001 37.0718 76.5527 40.0866 76.5527H51.0213C54.0361 76.5527 56.4887 74.1001 56.4887 71.0853V65.8894C56.4887 62.07 57.9718 58.6674 60.5601 56.5445C66.0856 52.0368 69.2459 45.3674 69.2459 38.2715C69.2459 25.2042 58.6213 14.5797 45.554 14.5797C32.4866 14.5797 21.8622 25.2042 21.8622 38.2715C21.8622 45.3674 25.032 52.0368 30.5479 56.5445ZM52.8438 71.0756C52.8438 72.0838 52.0295 72.8981 51.0213 72.8981H40.0866C39.0784 72.8981 38.2642 72.0838 38.2642 71.0756V69.2532H52.8438V71.0756ZM52.8535 65.6083H38.2448C38.2254 64.3481 38.08 63.1363 37.8086 61.9634H53.2897C53.0279 63.1363 52.8729 64.3481 52.8535 65.6083ZM44.1193 58.3185L36.4805 38.0292C36.8586 36.5848 40.3871 34.6266 45.5637 34.6266C50.7402 34.6266 54.2785 36.5848 54.6468 38.0292L47.0663 58.3185H44.1193ZM45.554 18.2246C56.605 18.2246 65.601 27.2205 65.601 38.2715C65.601 44.272 62.9254 49.9042 58.2529 53.7236C56.731 54.9644 55.5193 56.5445 54.6177 58.3185H50.9535L58.2045 38.9113C58.2821 38.7077 58.3209 38.4945 58.3209 38.2715C58.3209 34.1128 52.8341 30.9817 45.5637 30.9817C38.2933 30.9817 32.8065 34.1128 32.8065 38.2715C32.8065 38.4945 32.8453 38.7077 32.9228 38.9113L40.232 58.3185H36.4999C35.5984 56.5445 34.3867 54.9644 32.8647 53.7236C28.1923 49.9042 25.5167 44.272 25.5167 38.2715C25.507 27.2205 34.4933 18.2246 45.554 18.2246Z" fill="#3D4DB6"/>
</svg>
