<svg width="85" height="124" viewBox="0 0 85 124" fill="none" xmlns="http://www.w3.org/2000/svg">
<g id="Ikona Du&#197;&#188;a">
<path id="Vector" d="M65.614 122H6.54547C4.03514 122 2 119.795 2 117.076V6.9238C2 4.20453 4.03514 2 6.54547 2H30.8301" stroke="#EDF4FF" stroke-width="3" stroke-miterlimit="10" stroke-linecap="round" stroke-linejoin="round"/>
<path id="Vector_2" d="M83.4474 16.4595V117.063C83.4474 119.782 81.4123 121.987 78.902 121.987H62.5757" stroke="#EDF4FF" stroke-width="3" stroke-miterlimit="10" stroke-linecap="round" stroke-linejoin="round"/>
<path id="Vector_3" d="M29.4658 2H78.9026C81.4129 2 83.448 4.20453 83.448 6.9238V18.1195" stroke="#EDF4FF" stroke-width="3" stroke-miterlimit="10" stroke-linecap="round" stroke-linejoin="round"/>
<path id="Vector_4" d="M12.2466 15.6069H71.9385" stroke="#EDF4FF" stroke-width="3" stroke-miterlimit="10" stroke-linecap="round" stroke-linejoin="round"/>
<path id="Vector_5" d="M12.8325 23.5303H47.273" stroke="#EDF4FF" stroke-width="3" stroke-miterlimit="10" stroke-linecap="round" stroke-linejoin="round"/>
<path id="Vector_6" d="M12.8325 42.9702L62.4514 43.0221" stroke="#EDF4FF" stroke-width="3" stroke-miterlimit="10" stroke-linecap="round" stroke-linejoin="round"/>
<path id="Vector_7" d="M12.8149 51.4707H54.8801" stroke="#EDF4FF" stroke-width="3" stroke-miterlimit="10" stroke-linecap="round" stroke-linejoin="round"/>
<path id="Vector_8" d="M12.5308 73.2969H38.3923" stroke="#EDF4FF" stroke-width="3" stroke-miterlimit="10" stroke-linecap="round" stroke-linejoin="round"/>
<path id="Vector_9" d="M13.3818 81.2122L73.8352 80.9676" stroke="#EDF4FF" stroke-width="3" stroke-miterlimit="10" stroke-linecap="round" stroke-linejoin="round"/>
<path id="Vector_10" d="M27.1575 110.81H14.4871C13.5732 110.81 12.8325 110.008 12.8325 109.018V95.293C12.8325 94.3031 13.5732 93.5007 14.4871 93.5007H27.1575C28.0713 93.5007 28.812 94.3031 28.812 95.293V109.018C28.8123 110.008 28.0713 110.81 27.1575 110.81Z" stroke="#EDF4FF" stroke-width="3" stroke-miterlimit="10" stroke-linecap="round" stroke-linejoin="round"/>
<path id="Vector_11" d="M19.4785 101.215L21.571 103.646L31.7101 92.6628" stroke="#EDF4FF" stroke-width="3" stroke-miterlimit="10" stroke-linecap="round" stroke-linejoin="round"/>
<path id="Vector_12" d="M38.3896 95.2344H70.408" stroke="#EDF4FF" stroke-width="3" stroke-miterlimit="10" stroke-linecap="round" stroke-linejoin="round"/>
<path id="Vector_13" d="M50.7951 103.654H38.3896" stroke="#EDF4FF" stroke-width="3" stroke-miterlimit="10" stroke-linecap="round" stroke-linejoin="round"/>
</g>
</svg>
