<svg width="561" height="119" xmlns="http://www.w3.org/2000/svg">

 <g>
  <title>Layer 1</title>
  <g id="svg_1" fill-rule="evenodd" fill="none">
   <g id="svg_2" fill-rule="nonzero" fill="#F1F2F3">
    <path id="svg_3" d="m559,0c1.105,0 2,0.895 2,2l0,115c0,1.105 -0.895,2 -2,2l-557,0c-1.105,0 -2,-0.895 -2,-2l0,-115c0,-1.105 0.895,-2 2,-2l557,0zm-105,1l-452,0c-0.513,0 -0.936,0.386 -0.993,0.883l-0.007,0.117l0,115c0,0.513 0.386,0.936 0.883,0.993l0.117,0.007l452,0l0,-117zm105,0l-103,0l0,117l103,0c0.513,0 0.936,-0.386 0.993,-0.883l0.007,-0.117l0,-115c0,-0.513 -0.386,-0.936 -0.883,-0.993l-0.117,-0.007zm-457,91c1.105,0 2,0.895 2,2l0,11c0,1.105 -0.895,2 -2,2l-11,0c-1.105,0 -2,-0.895 -2,-2l0,-11c0,-1.105 0.895,-2 2,-2l11,0zm-81,2c1.105,0 2,0.895 2,2l0,7c0,1.105 -0.895,2 -2,2l-7,0c-1.105,0 -2,-0.895 -2,-2l0,-7c0,-1.105 0.895,-2 2,-2l7,0zm54,0c1.105,0 2,0.895 2,2l0,7c0,1.105 -0.895,2 -2,2l-47,0c-1.105,0 -2,-0.895 -2,-2l0,-7c0,-1.105 0.895,-2 2,-2l47,0zm24.598,1.537l-0.086,0.116l-3.843,5.71l-1.788,-1.298l-0.121,-0.08c-0.659,-0.387 -1.516,-0.218 -1.974,0.414c-0.458,0.63 -0.353,1.499 0.22,2.004l0.113,0.09l3.047,2.211l0.124,0.081c0.633,0.371 1.446,0.227 1.913,-0.339l0.089,-0.119l4.709,-7l0.075,-0.124c0.364,-0.671 0.165,-1.522 -0.482,-1.958c-0.647,-0.435 -1.51,-0.299 -1.996,0.292zm5.402,-29.537c1.105,0 2,0.895 2,2l0,7c0,1.105 -0.895,2 -2,2l-91,0c-1.105,0 -2,-0.895 -2,-2l0,-7c0,-1.105 0.895,-2 2,-2l91,0zm103,0c1.105,0 2,0.895 2,2l0,7c0,1.105 -0.895,2 -2,2l-91,0c-1.105,0 -2,-0.895 -2,-2l0,-7c0,-1.105 0.895,-2 2,-2l91,0zm297.367,-21c3.442,0 6.597,1.234 9.073,3.285c0.14,0.118 0.278,0.24 0.415,0.363c0.106,0.093 0.211,0.188 0.315,0.283c1.537,1.415 2.777,3.158 3.587,5.136c0.733,-0.173 1.492,-0.275 2.276,-0.275c3.669,0 6.869,2.002 8.631,4.983l-0.062,0c0.883,1.508 1.398,3.263 1.398,5.145c0,5.568 -4.433,10.08 -9.903,10.08l-25.057,0c-0.692,0 -1.253,-0.572 -1.253,-1.275c0,-0.705 0.56,-1.275 1.253,-1.275l15.44,0c0.692,-0.001 1.253,-0.572 1.253,-1.276c0,-0.703 -0.56,-1.273 -1.25,-1.274l-9.543,0c-0.692,0 -1.252,-0.57 -1.252,-1.274l0,-0.003c0,-0.703 0.56,-1.275 1.252,-1.275l13.718,0c0.69,0 1.251,-0.571 1.251,-1.275c0,-0.703 -0.561,-1.275 -1.252,-1.275l-8.718,0c-0.693,0 -1.254,-0.572 -1.254,-1.275c0,-0.705 0.561,-1.275 1.254,-1.275l1.2,0c0.691,0 1.253,-0.572 1.253,-1.275c0,-0.554 -0.35,-1.022 -0.836,-1.198l-17.556,0c0.446,-7.683 6.706,-13.775 14.367,-13.775zm-13.834,26.281c0.71,0 1.285,0.61 1.285,1.36c0,0.75 -0.575,1.359 -1.285,1.359l-4.702,0c-0.71,0 -1.286,-0.608 -1.286,-1.36c0,-0.75 0.576,-1.359 1.286,-1.359l4.702,0zm6.285,-5.437c0.753,0.004 1.364,0.61 1.364,1.36c0,0.748 -0.61,1.355 -1.364,1.358c-0.753,-0.003 -1.363,-0.61 -1.363,-1.359s0.61,-1.355 1.363,-1.36l0,0.001zm-4.395,0c0.67,0 1.213,0.608 1.213,1.36c0,0.749 -0.544,1.358 -1.213,1.358l-8.482,0c-0.173,0 -0.336,-0.04 -0.485,-0.114c-0.429,-0.209 -0.729,-0.688 -0.729,-1.245c0,-0.668 0.432,-1.221 1,-1.335c0.07,-0.014 0.14,-0.024 0.214,-0.024l8.482,0zm9.064,-4.531c0.685,0 1.24,0.608 1.24,1.359c0,0.75 -0.555,1.36 -1.24,1.36l-20.247,0c-0.685,0 -1.24,-0.61 -1.24,-1.36c0,-0.751 0.555,-1.36 1.24,-1.36l20.247,0l0,0.001zm-187.487,-14.313c1.105,0 2,0.895 2,2l0,9c0,1.105 -0.895,2 -2,2l-301,0c-1.105,0 -2,-0.895 -2,-2l0,-9c0,-1.105 0.895,-2 2,-2l301,0zm-61,-28c1.105,0 2,0.895 2,2l0,18c0,1.105 -0.895,2 -2,2l-240,0c-1.105,0 -2,-0.895 -2,-2l0,-18c0,-1.105 0.895,-2 2,-2l240,0z"/>
   </g>
  </g>
  <g stroke="null" id="svg_10">
   <g stroke="null" transform="matrix(1.0235218458497468,0,0,1.0235218458497468,26.20497037697514,-226.32200246192605) " id="svg_7" fill-rule="evenodd" fill="none">
    <g stroke="null" id="svg_8" fill-rule="nonzero" fill="#AAB4B9">
     <path stroke="null" id="svg_9" d="m83.16776,322.00361l0.692,-1.947l3.455,0c0.117,0.33 0.23,0.654 0.34,0.974c0.11,0.319 0.228,0.643 0.352,0.973l1.166,0c-0.293,-0.807 -0.568,-1.553 -0.824,-2.238c-0.257,-0.686 -0.508,-1.337 -0.754,-1.953c-0.246,-0.616 -0.49,-1.205 -0.731,-1.766c-0.242,-0.56 -0.495,-1.116 -0.76,-1.666l-0.979,0c-0.264,0.55 -0.516,1.106 -0.758,1.666c-0.243,0.561 -0.486,1.15 -0.732,1.766c-0.246,0.616 -0.497,1.267 -0.753,1.952c-0.257,0.686 -0.532,1.432 -0.826,2.239l1.111,0l0.001,0zm3.839,-2.827l-2.839,0c0.228,-0.638 0.457,-1.256 0.688,-1.853c0.231,-0.598 0.475,-1.172 0.731,-1.722c0.25,0.55 0.49,1.124 0.721,1.721c0.231,0.598 0.464,1.216 0.699,1.854zm5.543,2.959c0.477,0 0.899,-0.033 1.265,-0.099c0.367,-0.066 0.668,-0.132 0.903,-0.198l0,-8.371l-1.024,0.176l0,2.893c-0.124,-0.08 -0.313,-0.165 -0.566,-0.253c-0.253,-0.088 -0.544,-0.132 -0.875,-0.132c-0.41,0 -0.775,0.073 -1.094,0.22c-0.319,0.147 -0.588,0.352 -0.808,0.616c-0.22,0.264 -0.387,0.58 -0.501,0.946c-0.114,0.367 -0.17,0.77 -0.17,1.21c0,0.462 0.067,0.878 0.203,1.249c0.136,0.37 0.328,0.683 0.577,0.94c0.25,0.257 0.55,0.455 0.903,0.594c0.351,0.14 0.747,0.209 1.188,0.209l-0.001,0zm0.011,-0.902c-0.55,0 -0.99,-0.182 -1.32,-0.545c-0.33,-0.363 -0.494,-0.878 -0.494,-1.545c0,-0.293 0.029,-0.568 0.087,-0.825c0.06,-0.257 0.154,-0.478 0.286,-0.666c0.133,-0.187 0.303,-0.333 0.512,-0.44c0.209,-0.106 0.46,-0.159 0.753,-0.159c0.28,0 0.536,0.048 0.77,0.143c0.235,0.095 0.415,0.194 0.54,0.297l0,3.619c-0.103,0.03 -0.248,0.057 -0.435,0.083c-0.187,0.025 -0.42,0.038 -0.698,0.038l-0.001,0zm6.468,0.902c0.477,0 0.899,-0.033 1.266,-0.099c0.366,-0.066 0.667,-0.132 0.901,-0.198l0,-8.371l-1.023,0.176l0,2.893c-0.124,-0.08 -0.313,-0.165 -0.566,-0.253c-0.253,-0.088 -0.545,-0.132 -0.875,-0.132c-0.41,0 -0.775,0.073 -1.094,0.22c-0.319,0.147 -0.588,0.352 -0.808,0.616c-0.22,0.264 -0.387,0.58 -0.501,0.946c-0.114,0.367 -0.17,0.77 -0.17,1.21c0,0.462 0.067,0.878 0.203,1.249c0.136,0.37 0.328,0.683 0.577,0.94c0.25,0.257 0.55,0.455 0.902,0.594c0.353,0.14 0.749,0.209 1.188,0.209zm0.012,-0.902c-0.55,0 -0.99,-0.182 -1.32,-0.545c-0.33,-0.363 -0.495,-0.878 -0.495,-1.545c0,-0.293 0.029,-0.568 0.088,-0.825c0.058,-0.257 0.154,-0.478 0.285,-0.666c0.132,-0.187 0.303,-0.333 0.512,-0.44c0.209,-0.106 0.46,-0.159 0.754,-0.159c0.278,0 0.535,0.048 0.77,0.143c0.234,0.095 0.414,0.194 0.538,0.297l0,3.619c-0.102,0.03 -0.247,0.057 -0.434,0.083c-0.187,0.025 -0.42,0.038 -0.698,0.038zm8.381,0.891c0.33,0 0.624,-0.038 0.88,-0.115c0.257,-0.077 0.437,-0.142 0.54,-0.193l-0.198,-0.847c-0.074,0.03 -0.204,0.079 -0.391,0.149c-0.187,0.07 -0.434,0.104 -0.743,0.104c-0.175,0 -0.33,-0.022 -0.462,-0.066c-0.131,-0.044 -0.241,-0.12 -0.33,-0.226c-0.088,-0.106 -0.154,-0.252 -0.197,-0.44c-0.045,-0.187 -0.067,-0.423 -0.067,-0.709l0,-2.64l2.168,0l0,-0.858l-2.168,0l0,-1.771l-1.023,0.176l0,5.104c0,0.381 0.032,0.717 0.094,1.007c0.062,0.29 0.17,0.533 0.325,0.731c0.154,0.198 0.357,0.346 0.61,0.446c0.253,0.099 0.574,0.148 0.962,0.148zm4.708,0.022c0.39,0 0.749,-0.071 1.079,-0.214c0.33,-0.143 0.614,-0.347 0.852,-0.611s0.423,-0.58 0.556,-0.946c0.131,-0.367 0.197,-0.777 0.197,-1.232c0,-0.447 -0.066,-0.856 -0.197,-1.226c-0.133,-0.37 -0.318,-0.688 -0.556,-0.952c-0.238,-0.264 -0.523,-0.467 -0.852,-0.61c-0.33,-0.143 -0.69,-0.215 -1.079,-0.215c-0.388,0 -0.747,0.072 -1.077,0.214c-0.33,0.144 -0.615,0.347 -0.853,0.611s-0.423,0.581 -0.556,0.952c-0.131,0.37 -0.197,0.779 -0.197,1.226c0,0.455 0.066,0.865 0.197,1.232c0.133,0.367 0.318,0.682 0.556,0.946c0.238,0.264 0.523,0.468 0.852,0.61c0.33,0.144 0.69,0.215 1.078,0.215zm0,-0.902c-0.498,0 -0.892,-0.189 -1.182,-0.566c-0.29,-0.378 -0.434,-0.89 -0.434,-1.535c0,-0.645 0.144,-1.157 0.434,-1.534c0.29,-0.378 0.684,-0.567 1.183,-0.567c0.498,0 0.892,0.189 1.182,0.567c0.29,0.377 0.435,0.889 0.435,1.534s-0.145,1.157 -0.435,1.535c-0.29,0.377 -0.684,0.566 -1.183,0.566zm7.69,0.759l0,-4.862l2.2,0l0,-0.858l-2.2,0l0,-0.495c0,-0.44 0.095,-0.79 0.285,-1.05c0.191,-0.26 0.525,-0.391 1.001,-0.391c0.235,0 0.433,0.02 0.595,0.06c0.16,0.04 0.285,0.083 0.374,0.127l0.187,-0.88c-0.089,-0.037 -0.24,-0.077 -0.457,-0.121c-0.216,-0.044 -0.475,-0.066 -0.776,-0.066c-0.77,0 -1.334,0.2 -1.693,0.6c-0.36,0.4 -0.54,0.966 -0.54,1.699l0,6.237l1.024,0zm5.038,0.121c0.227,0 0.456,-0.01 0.687,-0.027c0.231,-0.019 0.445,-0.039 0.644,-0.061c0.197,-0.022 0.375,-0.046 0.533,-0.072l0.369,-0.06l0,-3.575c0,-0.323 -0.037,-0.618 -0.11,-0.886c-0.074,-0.267 -0.197,-0.498 -0.369,-0.692c-0.172,-0.195 -0.4,-0.345 -0.682,-0.452c-0.282,-0.106 -0.629,-0.159 -1.04,-0.159c-0.359,0 -0.692,0.027 -1,0.082c-0.308,0.055 -0.529,0.112 -0.66,0.171l0.12,0.847c0.125,-0.051 0.314,-0.1 0.567,-0.149c0.253,-0.047 0.548,-0.071 0.885,-0.071c0.264,0 0.479,0.038 0.644,0.115c0.165,0.077 0.295,0.18 0.39,0.308c0.096,0.129 0.162,0.276 0.198,0.44c0.037,0.166 0.056,0.332 0.056,0.501l0,0.286l-0.154,-0.033l-0.259,-0.05c-0.099,-0.018 -0.203,-0.033 -0.313,-0.043c-0.11,-0.012 -0.217,-0.017 -0.32,-0.017c-0.322,0 -0.63,0.033 -0.923,0.099c-0.294,0.066 -0.55,0.169 -0.77,0.308c-0.22,0.14 -0.395,0.323 -0.523,0.55c-0.128,0.227 -0.193,0.499 -0.193,0.814c0,0.33 0.056,0.612 0.166,0.847c0.11,0.235 0.264,0.423 0.462,0.567c0.197,0.142 0.432,0.247 0.703,0.313c0.272,0.066 0.569,0.099 0.892,0.099zm0.12,-0.858c-0.403,0 -0.722,-0.071 -0.957,-0.214c-0.234,-0.143 -0.351,-0.398 -0.351,-0.765c0,-0.198 0.047,-0.358 0.142,-0.478c0.096,-0.121 0.215,-0.217 0.358,-0.286c0.143,-0.07 0.3,-0.116 0.473,-0.138c0.172,-0.022 0.336,-0.033 0.49,-0.033c0.234,0 0.434,0.013 0.599,0.038c0.165,0.026 0.284,0.057 0.357,0.094l0,1.705c-0.124,0.03 -0.28,0.05 -0.467,0.06c-0.187,0.012 -0.402,0.017 -0.644,0.017zm5.984,0.737c0.36,-0.777 0.732,-1.657 1.117,-2.64c0.385,-0.983 0.72,-2.01 1.006,-3.08l-1.056,0c-0.087,0.36 -0.192,0.743 -0.313,1.15c-0.121,0.406 -0.25,0.81 -0.385,1.21c-0.136,0.4 -0.273,0.786 -0.413,1.16c-0.139,0.374 -0.27,0.708 -0.395,1.001c-0.125,-0.293 -0.257,-0.627 -0.396,-1.001c-0.14,-0.374 -0.277,-0.76 -0.413,-1.16c-0.136,-0.4 -0.264,-0.803 -0.385,-1.21c-0.121,-0.408 -0.226,-0.79 -0.313,-1.15l-1.1,0c0.285,1.07 0.621,2.097 1.006,3.08c0.385,0.983 0.757,1.863 1.116,2.64l0.924,0zm5.39,0.143c0.39,0 0.748,-0.071 1.078,-0.214c0.33,-0.143 0.615,-0.347 0.853,-0.611s0.423,-0.58 0.556,-0.946c0.131,-0.367 0.197,-0.777 0.197,-1.232c0,-0.447 -0.066,-0.856 -0.197,-1.226c-0.133,-0.37 -0.318,-0.688 -0.556,-0.952c-0.238,-0.264 -0.523,-0.467 -0.852,-0.61c-0.33,-0.143 -0.69,-0.215 -1.078,-0.215c-0.39,0 -0.749,0.072 -1.079,0.214c-0.33,0.144 -0.614,0.347 -0.852,0.611s-0.423,0.581 -0.555,0.952c-0.133,0.37 -0.199,0.779 -0.199,1.226c0,0.455 0.067,0.865 0.199,1.232c0.131,0.367 0.317,0.682 0.555,0.946c0.238,0.264 0.523,0.468 0.852,0.61c0.33,0.144 0.69,0.215 1.079,0.215l-0.001,0zm0,-0.902c-0.498,0 -0.892,-0.189 -1.182,-0.566c-0.29,-0.378 -0.435,-0.89 -0.435,-1.535c0,-0.645 0.145,-1.157 0.435,-1.534c0.29,-0.378 0.684,-0.567 1.183,-0.567c0.498,0 0.892,0.189 1.182,0.567c0.29,0.377 0.434,0.889 0.434,1.534s-0.144,1.157 -0.434,1.535c-0.29,0.377 -0.684,0.566 -1.183,0.566zm6.413,0.88c0.507,0 0.952,-0.033 1.337,-0.099s0.695,-0.128 0.93,-0.187l0,-5.555l-1.024,0l0,4.829c-0.036,0.015 -0.097,0.028 -0.181,0.038c-0.084,0.012 -0.178,0.023 -0.28,0.034c-0.103,0.01 -0.213,0.02 -0.33,0.027c-0.118,0.007 -0.231,0.011 -0.341,0.011c-0.521,0 -0.892,-0.15 -1.112,-0.451c-0.22,-0.3 -0.33,-0.8 -0.33,-1.496l0,-2.992l-1.023,0l0,3.212c0,0.389 0.04,0.743 0.121,1.061c0.081,0.32 0.213,0.596 0.396,0.831c0.184,0.235 0.426,0.416 0.726,0.544c0.301,0.129 0.672,0.193 1.112,0.193l-0.001,0zm5.05,-0.121l0,-4.807c0.058,-0.015 0.181,-0.042 0.368,-0.082s0.376,-0.061 0.567,-0.061c0.293,0 0.533,0.02 0.72,0.06c0.187,0.04 0.32,0.076 0.402,0.105l0.175,-0.891c-0.043,-0.015 -0.111,-0.031 -0.203,-0.05c-0.092,-0.018 -0.192,-0.036 -0.303,-0.055c-0.11,-0.018 -0.221,-0.032 -0.335,-0.043c-0.114,-0.012 -0.214,-0.017 -0.303,-0.017c-0.447,0 -0.85,0.038 -1.21,0.115c-0.359,0.077 -0.66,0.16 -0.901,0.248l0,5.478l1.023,0zm3.728,-6.754c0.184,0 0.34,-0.06 0.468,-0.181c0.128,-0.122 0.192,-0.285 0.192,-0.49c0,-0.205 -0.064,-0.368 -0.192,-0.49c-0.128,-0.12 -0.284,-0.181 -0.468,-0.181c-0.183,0 -0.339,0.06 -0.467,0.182c-0.128,0.12 -0.192,0.284 -0.192,0.489c0,0.205 0.064,0.368 0.192,0.49c0.128,0.12 0.284,0.181 0.467,0.181zm0.518,6.754l0,-5.72l-1.024,0l0,5.72l1.024,0zm3.684,0.121c0.33,0 0.624,-0.038 0.88,-0.115c0.257,-0.077 0.437,-0.142 0.54,-0.193l-0.199,-0.847c-0.073,0.03 -0.203,0.079 -0.39,0.149c-0.187,0.07 -0.434,0.104 -0.742,0.104c-0.177,0 -0.33,-0.022 -0.462,-0.066c-0.133,-0.044 -0.243,-0.12 -0.33,-0.226c-0.088,-0.106 -0.154,-0.252 -0.198,-0.44c-0.044,-0.187 -0.067,-0.423 -0.067,-0.709l0,-2.64l2.168,0l0,-0.858l-2.168,0l0,-1.771l-1.023,0.176l0,5.104c0,0.381 0.032,0.717 0.094,1.007c0.062,0.29 0.17,0.533 0.324,0.731c0.154,0.198 0.358,0.346 0.611,0.446c0.253,0.099 0.574,0.148 0.962,0.148zm4.95,0.011c0.396,0 0.75,-0.037 1.062,-0.11c0.312,-0.073 0.53,-0.143 0.654,-0.209l-0.143,-0.858c-0.124,0.059 -0.31,0.12 -0.555,0.182c-0.246,0.062 -0.548,0.093 -0.908,0.093c-0.638,0 -1.107,-0.154 -1.408,-0.462c-0.3,-0.308 -0.472,-0.759 -0.517,-1.353l3.917,0c0.007,-0.059 0.01,-0.123 0.01,-0.192l0,-0.171c0,-0.983 -0.205,-1.714 -0.615,-2.195c-0.411,-0.48 -1.001,-0.72 -1.771,-0.72c-0.33,0 -0.653,0.062 -0.969,0.187c-0.315,0.125 -0.593,0.312 -0.835,0.561c-0.243,0.25 -0.437,0.563 -0.584,0.94c-0.146,0.378 -0.22,0.82 -0.22,1.326c0,0.433 0.057,0.83 0.171,1.193c0.114,0.363 0.288,0.677 0.523,0.941c0.234,0.264 0.533,0.471 0.896,0.621c0.363,0.15 0.794,0.226 1.293,0.226l-0.001,0zm1.045,-3.542l-2.837,0c0.022,-0.198 0.067,-0.392 0.137,-0.583c0.07,-0.19 0.167,-0.36 0.291,-0.506c0.125,-0.147 0.277,-0.266 0.457,-0.357c0.18,-0.092 0.387,-0.138 0.621,-0.138c0.418,0 0.747,0.149 0.985,0.446c0.238,0.296 0.354,0.676 0.346,1.138zm3.873,3.542c0.726,0 1.285,-0.136 1.677,-0.407c0.392,-0.271 0.588,-0.671 0.588,-1.199c0,-0.271 -0.04,-0.5 -0.12,-0.688c-0.081,-0.187 -0.197,-0.346 -0.347,-0.478c-0.15,-0.132 -0.332,-0.248 -0.544,-0.346c-0.213,-0.1 -0.455,-0.2 -0.726,-0.303c-0.206,-0.073 -0.382,-0.143 -0.529,-0.209c-0.146,-0.066 -0.269,-0.137 -0.368,-0.214c-0.099,-0.077 -0.172,-0.164 -0.22,-0.259c-0.048,-0.095 -0.072,-0.205 -0.072,-0.33c0,-0.242 0.107,-0.42 0.32,-0.534c0.212,-0.113 0.462,-0.17 0.747,-0.17c0.33,0 0.613,0.031 0.848,0.094c0.234,0.062 0.406,0.122 0.516,0.181l0.188,-0.88c-0.06,-0.022 -0.142,-0.048 -0.248,-0.077c-0.106,-0.03 -0.23,-0.057 -0.368,-0.082c-0.14,-0.026 -0.29,-0.048 -0.452,-0.067c-0.16,-0.018 -0.322,-0.027 -0.484,-0.027c-0.645,0 -1.154,0.149 -1.529,0.445c-0.373,0.298 -0.56,0.699 -0.56,1.205c0,0.257 0.043,0.473 0.131,0.649c0.088,0.176 0.206,0.326 0.352,0.451c0.147,0.125 0.321,0.233 0.523,0.325c0.202,0.091 0.413,0.181 0.633,0.269c0.454,0.183 0.78,0.348 0.978,0.495c0.198,0.147 0.298,0.345 0.298,0.594c0,0.242 -0.101,0.418 -0.303,0.528c-0.202,0.11 -0.511,0.165 -0.93,0.165c-0.425,0 -0.766,-0.044 -1.023,-0.132c-0.256,-0.088 -0.443,-0.154 -0.56,-0.198l-0.188,0.88c0.103,0.044 0.298,0.108 0.584,0.192c0.285,0.085 0.681,0.127 1.188,0.127z"/>
    </g>
   </g>
  </g>
 </g>
</svg>