<svg width="120" height="124" viewBox="0 0 120 124" fill="none" xmlns="http://www.w3.org/2000/svg">
<path d="M111.583 88.752H101.344C100.473 88.752 99.7702 88.0508 99.7702 87.1791C99.7702 86.3127 100.473 85.6062 101.344 85.6062H111.583C114.491 85.6062 116.852 83.2405 116.852 80.3309V8.42065C116.852 5.51107 114.491 3.14268 111.583 3.14268H8.41714C5.5095 3.14268 3.14178 5.51107 3.14178 8.42065V80.3309C3.14178 83.2405 5.5095 85.6062 8.41714 85.6062H18.6167C19.4818 85.6062 20.1843 86.3127 20.1843 87.1791C20.1843 88.0508 19.4818 88.752 18.6167 88.752H8.41714C3.77923 88.752 0 84.9733 0 80.3309V8.42065C0 3.7756 3.77923 -0.000450134 8.41714 -0.000450134H111.583C116.227 -0.000450134 120 3.7756 120 8.42065V80.3309C120 84.9733 116.227 88.752 111.583 88.752Z" fill="#010E87"/>
<path d="M104.329 80.1973H101.344C100.472 80.1973 99.7695 79.4934 99.7695 78.6244C99.7695 77.758 100.472 77.0541 101.344 77.0541H104.329C105.253 77.0541 106.008 76.2203 106.008 75.2016V13.5611C106.008 12.5424 105.253 11.7092 104.329 11.7092H15.6693C14.7391 11.7092 13.9911 12.5424 13.9911 13.5611V75.2016C13.9911 76.2203 14.7391 77.0541 15.6693 77.0541H18.6159C19.4811 77.0541 20.1836 77.758 20.1836 78.6244C20.1836 79.4934 19.4811 80.1973 18.6159 80.1973H15.6693C13.0088 80.1973 10.8428 77.9531 10.8428 75.2016V13.5611C10.8428 10.807 13.0088 8.56541 15.6693 8.56541H104.329C106.99 8.56541 109.156 10.807 109.156 13.5611V75.2016C109.156 77.9531 106.99 80.1973 104.329 80.1973Z" fill="#010E87"/>
<path d="M7.12 55.6494C6.24836 55.6494 5.5459 54.9482 5.5459 54.0765V34.6741C5.5459 33.8051 6.24836 33.1013 7.12 33.1013C7.99164 33.1013 8.68767 33.8051 8.68767 34.6741V54.0765C8.68767 54.9482 7.99164 55.6494 7.12 55.6494Z" fill="#010E87"/>
<path d="M23.7883 72.5742C22.9167 72.5742 22.2207 71.873 22.2207 71.0013V62.6824C22.2207 53.6186 29.5906 46.2422 38.6583 46.2422C42.379 46.2422 45.8916 47.4573 48.8122 49.7568C49.5017 50.2928 49.6122 51.2834 49.0788 51.9671C48.5389 52.6455 47.5567 52.7652 46.8737 52.2266C44.506 50.3689 41.67 49.388 38.6583 49.388C31.3274 49.388 25.3625 55.3515 25.3625 62.6824V71.0013C25.3625 71.873 24.6599 72.5742 23.7883 72.5742Z" fill="#010E87"/>
<path d="M38.6595 30.0025C35.6218 30.0025 33.1564 32.4724 33.1564 35.5062C33.1564 38.54 35.6218 41.0073 38.6595 41.0073C41.6907 41.0073 44.1625 38.54 44.1625 35.5062C44.1625 32.4724 41.6907 30.0025 38.6595 30.0025ZM38.6595 44.1504C33.885 44.1504 30.0146 40.2729 30.0146 35.5062C30.0146 30.7395 33.885 26.8568 38.6595 26.8568C43.421 26.8568 47.3043 30.7395 47.3043 35.5062C47.3043 40.2729 43.421 44.1504 38.6595 44.1504Z" fill="#010E87"/>
<path d="M31.5823 64.5205C30.7107 64.5205 30.0146 63.8193 30.0146 62.9477V60.3887C30.0146 59.5222 30.7107 58.8158 31.5823 58.8158C32.454 58.8158 33.1564 59.5222 33.1564 60.3887V62.9477C33.1564 63.8193 32.454 64.5205 31.5823 64.5205Z" fill="#010E87"/>
<path d="M95.9591 72.5742C95.1004 72.5742 94.3914 71.873 94.3914 71.0013V62.6824C94.3914 55.3515 88.4265 49.388 81.0957 49.388C78.084 49.388 75.2478 50.3689 72.8866 52.224C72.2036 52.76 71.2149 52.6429 70.675 51.9593C70.1416 51.2789 70.2521 50.2902 70.9416 49.7542C73.8623 47.4573 77.3749 46.2422 81.0957 46.2422C90.1633 46.2422 97.5397 53.6186 97.5397 62.6824V71.0013C97.5397 71.873 96.8307 72.5742 95.9591 72.5742Z" fill="#010E87"/>
<path d="M81.0869 30.0025C78.0492 30.0025 75.5838 32.4724 75.5838 35.5062C75.5838 38.54 78.0492 41.0073 81.0869 41.0073C84.1181 41.0073 86.5899 38.54 86.5899 35.5062C86.5899 32.4724 84.1181 30.0025 81.0869 30.0025ZM81.0869 44.1504C76.3189 44.1504 72.4355 40.2729 72.4355 35.5062C72.4355 30.7395 76.3189 26.8568 81.0869 26.8568C85.8549 26.8568 89.7317 30.7395 89.7317 35.5062C89.7317 40.2729 85.8549 44.1504 81.0869 44.1504Z" fill="#010E87"/>
<path d="M88.1614 64.5205C87.2963 64.5205 86.5938 63.8193 86.5938 62.9477V60.3887C86.5938 59.5222 87.2963 58.8158 88.1614 58.8158C89.0331 58.8158 89.7355 59.5222 89.7355 60.3887V62.9477C89.7355 63.8193 89.0331 64.5205 88.1614 64.5205Z" fill="#010E87"/>
<path d="M48.7622 45.4027C48.3849 45.4027 48.0142 45.2732 47.7084 45.0065C47.0645 44.4296 47.006 43.4389 47.5849 42.7858C50.6551 39.3428 55.0133 37.4474 59.8723 37.4474C64.2566 37.4474 68.6083 39.3805 71.8087 42.7526C72.4006 43.3803 72.368 44.3788 71.7435 44.976C71.1126 45.5731 70.1174 45.5477 69.519 44.9148C66.9171 42.1685 63.4044 40.5931 59.8723 40.5931C55.9239 40.5931 52.3919 42.1126 49.9331 44.8797C49.6209 45.2251 49.1915 45.4027 48.7622 45.4027Z" fill="#010E87"/>
<path d="M59.8769 21.205C56.8392 21.205 54.3739 23.6775 54.3739 26.7113C54.3739 29.7425 56.8392 32.2123 59.8769 32.2123C62.9016 32.2123 65.3735 29.7425 65.3735 26.7113C65.3735 23.6775 62.9016 21.205 59.8769 21.205ZM59.8769 35.3555C55.1024 35.3555 51.2256 31.478 51.2256 26.7113C51.2256 21.942 55.1024 18.0619 59.8769 18.0619C64.6384 18.0619 68.5218 21.942 68.5218 26.7113C68.5218 31.478 64.6384 35.3555 59.8769 35.3555Z" fill="#010E87"/>
<path d="M59.8684 57.498C42.5332 57.498 28.4373 71.5978 28.4373 88.9265C28.4373 106.258 42.5332 120.358 59.8684 120.358C77.1971 120.358 91.2995 106.258 91.2995 88.9265C91.2995 71.5978 77.1971 57.498 59.8684 57.498ZM59.8684 123.504C40.8029 123.504 25.2891 107.994 25.2891 88.9265C25.2891 69.8649 40.8029 54.3549 59.8684 54.3549C78.9273 54.3549 94.4412 69.8649 94.4412 88.9265C94.4412 107.994 78.9273 123.504 59.8684 123.504Z" fill="#010E87"/>
<path d="M59.87 57.498C51.1341 57.498 43.7512 71.8898 43.7512 88.9265C43.7512 105.964 51.1341 120.358 59.87 120.358C68.5994 120.358 75.9758 105.964 75.9758 88.9265C75.9758 71.8898 68.5994 57.498 59.87 57.498ZM59.87 123.504C49.0656 123.504 40.6094 108.314 40.6094 88.9265C40.6094 69.5396 49.0656 54.3549 59.87 54.3549C70.6679 54.3549 79.1242 69.5396 79.1242 88.9265C79.1242 108.314 70.6679 123.504 59.87 123.504Z" fill="#010E87"/>
<path d="M59.8684 72.8181C42.8259 72.8181 28.4373 80.1971 28.4373 88.9298C28.4373 97.6657 42.8259 105.047 59.8684 105.047C76.9044 105.047 91.2995 97.6657 91.2995 88.9298C91.2995 80.1971 76.9044 72.8181 59.8684 72.8181ZM59.8684 108.19C40.4776 108.19 25.2891 99.729 25.2891 88.9298C25.2891 78.1364 40.4776 69.6724 59.8684 69.6724C79.2526 69.6724 94.4412 78.1364 94.4412 88.9298C94.4412 99.729 79.2526 108.19 59.8684 108.19Z" fill="#010E87"/>
<path d="M59.8755 123.504C59.0039 123.504 58.2949 122.797 58.2949 121.931V55.9278C58.2949 55.0561 59.0039 54.3549 59.8755 54.3549C60.7342 54.3549 61.4432 55.0561 61.4432 55.9278V121.931C61.4432 122.797 60.7342 123.504 59.8755 123.504Z" fill="#010E87"/>
<path d="M92.8671 90.4951H26.8567C25.998 90.4951 25.2891 89.7939 25.2891 88.9222C25.2891 88.0558 25.998 87.3494 26.8567 87.3494H92.8671C93.7388 87.3494 94.4412 88.0558 94.4412 88.9222C94.4412 89.7939 93.7388 90.4951 92.8671 90.4951Z" fill="#010E87"/>
<path d="M99.9576 123.504H20.0464C19.1748 123.504 18.4658 122.797 18.4658 121.931C18.4658 121.065 19.1748 120.358 20.0464 120.358H99.9576C100.823 120.358 101.525 121.065 101.525 121.931C101.525 122.797 100.823 123.504 99.9576 123.504Z" fill="#010E87"/>
</svg>
