<?xml version="1.0" encoding="UTF-8"?>
<svg width="518px" height="317px" viewBox="0 0 518 317" version="1.1" xmlns="http://www.w3.org/2000/svg" xmlns:xlink="http://www.w3.org/1999/xlink">
    <!-- Generator: Sketch 61 (89581) - https://sketch.com -->
    <title>ilustracja</title>
    <desc>Created with Sketch.</desc>
    <defs>
        <filter x="0.0%" y="0.0%" width="100.0%" height="100.0%" filterUnits="objectBoundingBox" id="filter-1">
            <feGaussianBlur stdDeviation="0" in="SourceGraphic"></feGaussianBlur>
        </filter>
        <linearGradient x1="0%" y1="11.8570742%" x2="100%" y2="88.1429258%" id="linearGradient-2">
            <stop stop-color="#05CAE7" offset="0%"></stop>
            <stop stop-color="#0C2BD5" offset="100%"></stop>
        </linearGradient>
        <linearGradient x1="50%" y1="0%" x2="50%" y2="100%" id="linearGradient-3">
            <stop stop-color="#FFD731" offset="0%"></stop>
            <stop stop-color="#FFF15C" offset="100%"></stop>
        </linearGradient>
        <filter x="-9.4%" y="-16.4%" width="118.8%" height="132.8%" filterUnits="objectBoundingBox" id="filter-4">
            <feGaussianBlur stdDeviation="7" in="SourceGraphic"></feGaussianBlur>
        </filter>
    </defs>
    <g id="!_Aktualny" stroke="none" stroke-width="1" fill="none" fill-rule="evenodd">
        <g id="Order:-Service-type---normal-access" transform="translate(-814.000000, -333.000000)">
            <g id="ilustracja" transform="translate(831.000000, 332.000000)">
                <path d="M438,49 C444.038692,49 449.482071,51.4881516 453.313,55.4715351 C458.04378,52.6323907 463.581257,51 469.5,51 C486.89697,51 501,65.1030304 501,82.5 C501,99.8969696 486.89697,114 469.5,114 C460.917832,114 453.137273,110.567905 447.455978,105.001372 L423,105 C422.628629,105 422.280899,104.898781 421.982893,104.722426 C421.017141,104.904609 420.019711,105 419,105 C410.163444,105 403,97.836556 403,89 C403,80.7303395 409.273807,73.9260051 417.321421,73.0869973 C417.109871,71.9227626 417,70.7239067 417,69.5 C417,58.1781626 426.40202,49 438,49 Z" id="Combined-Shape" fill="#ECF6FD" filter="url(#filter-1)" transform="translate(452.000000, 81.500000) scale(-1, 1) translate(-452.000000, -81.500000) "></path>
                <path d="M166.5,47 C168.985281,47 171,49.0147186 171,51.5 C171,53.9852814 168.985281,56 166.5,56 L71.5,56 C69.0147186,56 67,53.9852814 67,51.5 C67,49.0147186 69.0147186,47 71.5,47 L166.5,47 Z M172.5,36 C174.985281,36 177,38.0147186 177,40.5 C177,42.9852814 174.985281,45 172.5,45 L77.5,45 C75.0147186,45 73,42.9852814 73,40.5 C73,38.0147186 75.0147186,36 77.5,36 L172.5,36 Z M181.5,25 C183.985281,25 186,27.0147186 186,29.5 C186,31.9852814 183.985281,34 181.5,34 L86.5,34 C84.0147186,34 82,31.9852814 82,29.5 C82,27.0147186 84.0147186,25 86.5,25 L181.5,25 Z" id="Combined-Shape" fill="#ECF6FD" transform="translate(126.500000, 40.500000) scale(-1, 1) translate(-126.500000, -40.500000) "></path>
                <g id="Group-3">
                    <g id="Image" transform="translate(258.500000, 144.000000) scale(-1, 1) translate(-258.500000, -144.000000) translate(51.000000, 0.000000)">
                        <path d="M149.5,250 C246,133 365,303 396.914808,259.447704 C428.829617,215.895408 423.821842,52.2523229 320.379247,75.8643321 C216.936652,99.4763414 114.091992,-13.2710027 30.9791554,84.7188356 C-52.1336808,182.708674 53,367 149.5,250 Z" id="Oval" fill="#F9FCFE"></path>
                        <g id="Web" transform="translate(202.000000, 120.000000) rotate(8.000000) translate(-202.000000, -120.000000) translate(83.000000, 16.000000)">
                            <rect id="Container" fill="url(#linearGradient-2)" x="0.964370404" y="0.61157052" width="237" height="207" rx="4"></rect>
                            <path d="M4.68599726,0.721987711 L233.685997,0.721987711 C235.895136,0.721987711 237.685997,2.51284871 237.685997,4.72198771 L237.685997,16.7219877 L237.685997,16.7219877 L0.685997257,16.7219877 L0.685997257,4.72198771 C0.685997257,2.51284871 2.47685826,0.721987711 4.68599726,0.721987711 Z" id="Header" fill="#1C313A"></path>
                            <g id="Buttons" transform="translate(5.615388, 6.411556)" fill="#F2F2F2">
                                <circle id="buttons" cx="2" cy="2" r="2"></circle>
                                <circle id="buttons" cx="8" cy="2" r="2"></circle>
                                <circle id="buttons" cx="14" cy="2" r="2"></circle>
                            </g>
                        </g>
                    </g>
                    <path d="M286,63 C292.627417,63 298,68.372583 298,75 C298,81.627417 292.627417,87 286,87 C279.372583,87 274,81.627417 274,75 C274,68.372583 279.372583,63 286,63 Z M290.591687,69 L283.315,76.531 L280.408313,73.5221431 L278,76.0147621 L282.816625,81 L283.349,80.447 L283.848412,80.964571 L293,71.492619 L290.591687,69 Z M371,72 C372.656854,72 374,73.3431458 374,75 C374,76.6568542 372.656854,78 371,78 L306,78 C304.343146,78 303,76.6568542 303,75 C303,73.3431458 304.343146,72 306,72 L371,72 Z" id="Combined-Shape" fill="#F9FCFE"></path>
                    <g id="Image" transform="translate(258.500000, 144.000000) scale(-1, 1) translate(-258.500000, -144.000000) translate(51.000000, 0.000000)">
                        <path d="M149.5,250 C246,133 365,303 396.914808,259.447704 C428.829617,215.895408 423.821842,52.2523229 320.379247,75.8643321 C216.936652,99.4763414 114.091992,-13.2710027 30.9791554,84.7188356 C-52.1336808,182.708674 53,367 149.5,250 Z" id="Oval" fill="#F9FCFE"></path>
                        <g id="Web" transform="translate(202.000000, 120.000000) rotate(8.000000) translate(-202.000000, -120.000000) translate(83.000000, 16.000000)">
                            <rect id="Container" fill="url(#linearGradient-2)" x="0.964370404" y="0.61157052" width="237" height="207" rx="4"></rect>
                            <path d="M4.68599726,0.721987711 L233.685997,0.721987711 C235.895136,0.721987711 237.685997,2.51284871 237.685997,4.72198771 L237.685997,16.7219877 L237.685997,16.7219877 L0.685997257,16.7219877 L0.685997257,4.72198771 C0.685997257,2.51284871 2.47685826,0.721987711 4.68599726,0.721987711 Z" id="Header" fill="#1C313A"></path>
                            <g id="Buttons" transform="translate(5.615388, 6.411556)" fill="#F2F2F2">
                                <circle id="buttons" cx="2" cy="2" r="2"></circle>
                                <circle id="buttons" cx="8" cy="2" r="2"></circle>
                                <circle id="buttons" cx="14" cy="2" r="2"></circle>
                            </g>
                        </g>
                    </g>
                    <path d="M256.581499,135.351103 C264.666948,135.351103 271.221499,142.066831 271.221499,150.351103 C271.221499,158.635374 264.666948,165.351103 256.581499,165.351103 C248.496051,165.351103 241.941499,158.635374 241.941499,150.351103 C241.941499,142.066831 248.496051,135.351103 256.581499,135.351103 Z M256.845019,154.431103 C256.376539,154.431103 255.956859,154.591103 255.585979,154.911103 C255.215099,155.231103 255.029659,155.684436 255.029659,156.271103 C255.029659,156.857769 255.215099,157.311103 255.585979,157.631103 C255.956859,157.951103 256.376539,158.111103 256.845019,158.111103 C257.313499,158.111103 257.733179,157.951103 258.104059,157.631103 C258.474939,157.311103 258.660379,156.857769 258.660379,156.271103 C258.660379,155.684436 258.474939,155.231103 258.104059,154.911103 C257.733179,154.591103 257.313499,154.431103 256.845019,154.431103 Z M360.941499,146.601103 C362.598354,146.601103 363.941499,147.944248 363.941499,149.601103 L363.941499,151.101103 C363.941499,152.757957 362.598354,154.101103 360.941499,154.101103 L280.321499,154.101103 C278.664645,154.101103 277.321499,152.757957 277.321499,151.101103 L277.321499,149.601103 C277.321499,147.944248 278.664645,146.601103 280.321499,146.601103 L360.941499,146.601103 Z M257.137819,143.671103 C256.474139,143.671103 255.797446,143.761103 255.107739,143.941103 C254.516562,144.095388 253.992311,144.306 253.534985,144.572939 L253.311899,144.711103 L254.131739,146.971103 C254.639259,146.704436 255.101233,146.511103 255.517659,146.391103 C255.934086,146.271103 256.376539,146.211103 256.845019,146.211103 C257.313499,146.211103 257.668113,146.324436 257.908859,146.551103 C258.149606,146.777769 258.269979,147.051103 258.269979,147.371103 C258.269979,147.757769 258.146353,148.101103 257.899099,148.401103 C257.651846,148.701103 257.378566,149.004436 257.079259,149.311103 C256.871046,149.524436 256.669339,149.744436 256.474139,149.971103 C256.278939,150.197769 256.106513,150.441103 255.956859,150.701103 C255.807206,150.961103 255.686833,151.241103 255.595739,151.541103 C255.504646,151.841103 255.459099,152.177769 255.459099,152.551103 C255.459099,152.671103 255.462353,152.814436 255.468859,152.981103 C255.473197,153.092214 255.481873,153.195917 255.494886,153.292214 L255.517659,153.431103 L258.094299,153.431103 C258.085624,153.377769 258.07984,153.31851 258.076948,153.253325 L258.074779,153.151103 L258.074779,152.911103 C258.074779,152.684436 258.120326,152.461103 258.211419,152.241103 C258.302513,152.021103 258.416379,151.811103 258.553019,151.611103 C258.689659,151.411103 258.842566,151.221103 259.011739,151.041103 C259.180913,150.861103 259.343579,150.691103 259.499739,150.531103 C259.707953,150.317769 259.922673,150.091103 260.143899,149.851103 C260.365126,149.611103 260.560326,149.357769 260.729499,149.091103 C260.898673,148.824436 261.038566,148.534436 261.149179,148.221103 C261.259793,147.907769 261.315099,147.564436 261.315099,147.191103 C261.315099,146.817769 261.253286,146.424436 261.129659,146.011103 C261.006033,145.597769 260.788059,145.217769 260.475739,144.871103 C260.163419,144.524436 259.737233,144.237769 259.197179,144.011103 C258.657126,143.784436 257.970673,143.671103 257.137819,143.671103 Z M256.501218,99.9958546 C264.586666,99.9958546 271.141218,106.711583 271.141218,114.995855 C271.141218,123.280126 264.586666,129.995855 256.501218,129.995855 C248.415769,129.995855 241.861218,123.280126 241.861218,114.995855 C241.861218,106.711583 248.415769,99.9958546 256.501218,99.9958546 Z M262.103076,107.495855 L253.225218,116.908855 L249.679359,113.148534 L246.741218,116.264307 L252.6175,122.495855 L253.267218,121.805855 L253.87628,122.451568 L265.041218,110.611628 L262.103076,107.495855 Z M360.861218,111.245855 C362.518072,111.245855 363.861218,112.589 363.861218,114.245855 L363.861218,115.745855 C363.861218,117.402709 362.518072,118.745855 360.861218,118.745855 L280.241218,118.745855 C278.584363,118.745855 277.241218,117.402709 277.241218,115.745855 L277.241218,114.245855 C277.241218,112.589 278.584363,111.245855 280.241218,111.245855 L360.861218,111.245855 Z M256.699282,62.6600706 C264.784731,62.6600706 271.339282,69.3757993 271.339282,77.6600706 C271.339282,85.9443418 264.784731,92.6600706 256.699282,92.6600706 C248.613833,92.6600706 242.059282,85.9443418 242.059282,77.6600706 C242.059282,69.3757993 248.613833,62.6600706 256.699282,62.6600706 Z M262.30114,70.1600706 L253.423282,79.5730706 L249.877423,75.8127495 L246.939282,78.9285232 L252.815565,85.1600706 L253.465282,84.4700706 L254.074344,85.1157843 L265.239282,73.2758443 L262.30114,70.1600706 Z M361.059282,73.9100706 C362.716136,73.9100706 364.059282,75.2532163 364.059282,76.9100706 L364.059282,78.4100706 C364.059282,80.0669248 362.716136,81.4100706 361.059282,81.4100706 L280.439282,81.4100706 C278.782428,81.4100706 277.439282,80.0669248 277.439282,78.4100706 L277.439282,76.9100706 C277.439282,75.2532163 278.782428,73.9100706 280.439282,73.9100706 L361.059282,73.9100706 Z" id="Combined-Shape" fill="#F9FCFE" transform="translate(302.960250, 114.005587) rotate(-8.000000) translate(-302.960250, -114.005587) "></path>
                    <g id="Group" transform="translate(191.500000, 104.500000) rotate(-8.000000) translate(-191.500000, -104.500000) translate(163.000000, 72.000000)">
                        <path d="M50.5218331,15.1746888 C51.6264026,15.1746888 52.5218331,16.0701193 52.5218331,17.1746888 L52.5218331,18.6746888 L56.8968331,18.6746888 L56.8968331,64.1746888 L0.896833127,64.1746888 L0.896833127,18.6746888 L5.27183313,18.6746888 L5.27183313,17.1746888 C5.27183313,16.0701193 6.16726363,15.1746888 7.27183313,15.1746888 L50.5218331,15.1746888 Z" id="Combined-Shape" fill="url(#linearGradient-3)"></path>
                        <rect id="Rectangle" fill="#FFCD00" x="27.0510993" y="0.765915226" width="2" height="18"></rect>
                        <polygon id="Triangle" fill="#FFCD00" transform="translate(35.330908, 8.264457) rotate(-270.000000) translate(-35.330908, -8.264457) " points="35.3309085 -0.235543239 40.3309085 16.7644568 30.3309085 16.7644568"></polygon>
                        <path d="M12.8694797,23.9386732 L12.8694797,31.9386732 L7.52165362,31.9386732 L7.52165362,23.9386732 L12.8694797,23.9386732 Z M21.7825232,23.9386732 L21.7825232,31.9386732 L16.4346971,31.9386732 L16.4346971,23.9386732 L21.7825232,23.9386732 Z M30.6955667,23.9386732 L30.6955667,31.9386732 L25.3477406,31.9386732 L25.3477406,23.9386732 L30.6955667,23.9386732 Z M39.6086101,23.9386732 L39.6086101,31.9386732 L34.2607841,31.9386732 L34.2607841,23.9386732 L39.6086101,23.9386732 Z M48.5216536,23.9386732 L48.5216536,31.9386732 L43.1738275,31.9386732 L43.1738275,23.9386732 L48.5216536,23.9386732 Z" id="Combined-Shape" fill="#FFFFFF"></path>
                        <path d="M12.8694797,23.9386732 L12.8694797,31.9386732 L7.52165362,31.9386732 L7.52165362,23.9386732 L12.8694797,23.9386732 Z M21.7825232,23.9386732 L21.7825232,31.9386732 L16.4346971,31.9386732 L16.4346971,23.9386732 L21.7825232,23.9386732 Z M30.6955667,23.9386732 L30.6955667,31.9386732 L25.3477406,31.9386732 L25.3477406,23.9386732 L30.6955667,23.9386732 Z M39.6086101,23.9386732 L39.6086101,31.9386732 L34.2607841,31.9386732 L34.2607841,23.9386732 L39.6086101,23.9386732 Z M48.5216536,23.9386732 L48.5216536,31.9386732 L43.1738275,31.9386732 L43.1738275,23.9386732 L48.5216536,23.9386732 Z" id="Combined-Shape" fill="#FFFFFF"></path>
                        <path d="M13.4582848,34.1197001 L13.4582848,42.1197001 L8.11045874,42.1197001 L8.11045874,34.1197001 L13.4582848,34.1197001 Z M22.3713283,34.1197001 L22.3713283,42.1197001 L17.0235022,42.1197001 L17.0235022,34.1197001 L22.3713283,34.1197001 Z M31.2843718,34.1197001 L31.2843718,42.1197001 L25.9365457,42.1197001 L25.9365457,34.1197001 L31.2843718,34.1197001 Z M40.1974153,34.1197001 L40.1974153,42.1197001 L34.8495892,42.1197001 L34.8495892,34.1197001 L40.1974153,34.1197001 Z M49.1104587,34.1197001 L49.1104587,42.1197001 L43.7626327,42.1197001 L43.7626327,34.1197001 L49.1104587,34.1197001 Z" id="Combined-Shape" fill="#FFFFFF"></path>
                        <path d="M12.9176488,45.151822 L12.9176488,53.151822 L7.5698227,53.151822 L7.5698227,45.151822 L12.9176488,45.151822 Z M21.8306923,45.151822 L21.8306923,53.151822 L16.4828662,53.151822 L16.4828662,45.151822 L21.8306923,45.151822 Z M30.7437357,45.151822 L30.7437357,53.151822 L25.3959097,53.151822 L25.3959097,45.151822 L30.7437357,45.151822 Z M39.6567792,45.151822 L39.6567792,53.151822 L34.3089531,53.151822 L34.3089531,45.151822 L39.6567792,45.151822 Z M48.5698227,45.151822 L48.5698227,53.151822 L43.2219966,53.151822 L43.2219966,45.151822 L48.5698227,45.151822 Z" id="Combined-Shape" fill="#FFFFFF"></path>
                    </g>
                    <path d="M198,162 C199.656854,162 201,163.343146 201,165 C201,166.656854 199.656854,168 198,168 L175,168 C173.343146,168 172,166.656854 172,165 C172,163.343146 173.343146,162 175,162 L198,162 Z M216,153 C217.656854,153 219,154.343146 219,156 C219,157.656854 217.656854,159 216,159 L175,159 C173.343146,159 172,157.656854 172,156 C172,154.343146 173.343146,153 175,153 L216,153 Z M209,144 C210.656854,144 212,145.343146 212,147 C212,148.656854 210.656854,150 209,150 L175,150 C173.343146,150 172,148.656854 172,147 C172,145.343146 173.343146,144 175,144 L209,144 Z" id="Combined-Shape" fill="#F9FCFE" transform="translate(195.500000, 156.000000) rotate(-8.000000) translate(-195.500000, -156.000000) "></path>
                    <path d="M160,173 C195.346224,173 224,201.653776 224,237 C224,271.126678 197.289388,299.014758 163.633835,300.89857 C163.434893,300.963941 163.221658,301 163,301 L39,301 C38.5352333,301 38.1074936,300.841468 37.7679061,300.57553 C36.0538182,300.854662 34.2938819,301 32.5,301 C14.5507456,301 0,286.449254 0,268.5 C0,251.885398 12.4672964,238.18269 28.5569971,236.236767 C28.1906272,234.04468 28,231.794078 28,229.5 C28,206.580183 47.0278981,188 70.5,188 C84.5044095,188 96.9267713,194.614174 104.669623,204.817942 C115.759137,185.788878 136.386067,173 160,173 Z" id="Combined-Shape" fill="#ECF6FD" filter="url(#filter-4)"></path>
                </g>
                <polygon id="Fill-1-Copy-2" fill="#FFCD00" transform="translate(422.500000, 36.500000) rotate(13.000000) translate(-422.500000, -36.500000) " points="418.540264 20 426.459736 30.171596 439 26.4359822 431.080529 36.39554 439 46.567136 426.459736 42.828404 418.540264 53 418.540264 40.3369555 406 36.6013418 418.540264 32.6599263"></polygon>
                <polygon id="Fill-1-Copy-2" fill="#FFCD00" transform="translate(318.500000, 281.500000) rotate(-43.000000) translate(-318.500000, -281.500000) " points="313.100361 259 323.899639 272.870358 341 267.776339 330.200721 281.357555 341 295.227913 323.899639 290.129642 313.100361 304 313.100361 286.732212 296 281.638193 313.100361 276.263536"></polygon>
                <polygon id="Fill-1-Copy-2" fill="#FFCD00" transform="translate(429.500000, 103.500000) rotate(-148.000000) translate(-429.500000, -103.500000) " points="424.100361 81 434.899639 94.8703581 452 89.7763394 441.200721 103.357555 452 117.227913 434.899639 112.129642 424.100361 126 424.100361 108.732212 407 103.638193 424.100361 98.2635359"></polygon>
            </g>
        </g>
    </g>
</svg>
