<svg width="163" height="62" viewBox="0 0 163 62" fill="none" xmlns="http://www.w3.org/2000/svg">
<path d="M20.5823 39.0215H18.0095C17.5115 39.0215 17.1796 39.4392 17.1796 39.857C17.1796 40.3584 17.5945 40.6926 18.0095 40.6926H19.8353H21.1632C21.6612 40.6926 21.9932 40.2748 21.9932 39.857C21.9932 39.3557 21.5782 39.0215 21.1632 39.0215H20.5823ZM16.2666 35.5956C16.1836 35.5956 16.1836 35.5956 16.1006 35.5956C15.6857 35.6791 15.4367 36.0134 15.4367 36.4311C15.4367 36.7654 15.6857 37.0996 15.9347 37.1832C16.0177 37.2667 16.1836 37.2667 16.2666 37.2667H22.2421C22.7401 37.2667 23.0721 36.8489 23.0721 36.4311C23.0721 35.9298 22.6571 35.5956 22.2421 35.5956H16.2666ZM24.234 36.4311C24.234 36.9325 24.6489 37.2667 25.0639 37.2667C25.5619 37.2667 25.8938 36.8489 25.8938 36.4311C25.8938 35.9298 25.4789 35.5956 25.0639 35.5956C24.6489 35.5956 24.234 36.0134 24.234 36.4311ZM20.6653 32.1697H14.5238C14.0258 32.1697 13.6938 32.5875 13.6938 33.0053C13.6938 33.5066 14.1088 33.8408 14.5238 33.8408H17.2625H28.4666C28.9646 33.8408 29.2965 33.4231 29.2965 33.0053C29.2965 32.5039 28.8816 32.1697 28.4666 32.1697H20.6653ZM20.2503 30.4985H32.2013C32.5333 30.5821 32.7822 30.9163 32.7822 31.3341C32.7822 31.8355 32.3673 32.1697 31.9523 32.1697H31.1224C30.6244 32.1697 30.2925 32.5875 30.2925 33.0053C30.2925 33.5066 30.7074 33.8408 31.1224 33.8408H37.0979C37.5958 33.8408 37.9278 34.2586 37.9278 34.6764C37.9278 35.0942 37.5129 35.512 37.0979 35.512H27.7197C27.2217 35.512 26.8897 35.9298 26.8897 36.3476C26.8897 36.8489 27.3047 37.1832 27.7197 37.1832H34.1931C34.6911 37.1832 35.0231 37.601 35.0231 38.0188C35.0231 38.5201 34.6081 38.8543 34.1931 38.8543H23.653C23.1551 38.8543 22.8231 39.2721 22.8231 39.6899C22.8231 40.1913 23.238 40.5255 23.653 40.5255H40.7496C44.4843 40.5255 47.472 37.5174 47.472 33.7573C47.472 32.5039 47.14 31.3341 46.5591 30.2479H46.6421C45.4802 28.2425 43.2394 26.9055 40.7496 26.9055C40.2516 26.9055 39.6707 26.9891 39.1727 27.0726C38.5918 25.7357 37.7618 24.5659 36.7659 23.6468C36.6829 23.5632 36.5999 23.4796 36.5169 23.4796C36.4339 23.3961 36.351 23.3125 36.268 23.229C34.6081 21.8085 32.4503 20.9729 30.0435 20.9729C24.8149 21.2236 20.4993 25.3179 20.2503 30.4985Z" fill="white"/>
<path d="M0 31.0002L2.73877 30.0811V27.073L4.48163 29.4962L7.30339 28.577L5.56053 31.0002L7.30339 33.3399L4.48163 32.5043L2.73877 34.8439V31.9194L0 31.0002Z" fill="white"/>
<path d="M3.65259 44.7035L6.39136 43.868V40.8599L8.13421 43.283L10.873 42.2803L9.21312 44.7035L10.873 47.1267L8.13421 46.2076L6.39136 48.5472V45.6227L3.65259 44.7035Z" fill="white"/>
<path d="M13.6101 54.8142L16.3489 53.8951V50.887L18.0917 53.3101L20.8305 52.391L19.1706 54.7306L20.8305 57.1538L18.0917 56.2347L16.3489 58.6579V55.6498L13.6101 54.8142Z" fill="white"/>
<path d="M3.65259 17.2969L6.47435 16.2942V13.3696L8.21721 15.7928L10.956 14.8737L9.21312 17.2969L10.956 19.6365L8.21721 18.7173L6.47435 21.1405V18.216L3.65259 17.2969Z" fill="white"/>
<path d="M16.1857 3.76001L17.9285 6.1832L20.6673 5.26406L18.9244 7.60368L20.6673 10.0269L17.9285 9.10773L16.1857 11.5309V8.52282L13.4469 7.68724L16.1857 6.7681V3.76001Z" fill="white"/>
<path d="M29.8788 0L31.5386 2.42319L34.3604 1.50405L32.6175 3.84367L34.3604 6.26686L31.5386 5.34772L29.7958 7.68735V4.76281L27.057 3.84367L29.7958 2.92453L29.8788 0Z" fill="white"/>
<path d="M47.4745 5.01326L45.7316 7.43645L47.4745 9.77607L44.7357 8.85693L42.9929 11.2801V8.35559L40.2541 7.43645L42.9929 6.51731V3.59277L44.7357 5.9324L47.4745 5.01326Z" fill="white"/>
<path d="M61.2492 33.0891L58.4274 32.2535L56.6846 34.5931V31.6686L53.9458 30.7494L56.6846 29.8303V26.9058L58.4274 29.2454L61.2492 28.4098L59.5063 30.7494L61.2492 33.0891Z" fill="white"/>
<path d="M57.597 46.8762L54.7752 45.957L53.1153 48.3802V45.3721L50.2936 44.5365L53.1153 43.6174L53.0324 40.6929L54.7752 43.0325L57.597 42.1134L55.8541 44.5365L57.597 46.8762Z" fill="white"/>
<path d="M57.514 15.0404L55.8541 17.4635L57.514 19.8032L54.6922 18.884L53.0324 21.3072V18.2991L50.2936 17.4635L53.0324 16.5444V13.6199L54.7752 15.9595L57.514 15.0404Z" fill="white"/>
<path d="M29.9603 61.9999V59.0754L27.1385 58.0727L29.9603 57.1535L29.8773 54.229L31.6202 56.6522L34.3589 55.733L32.6991 58.0727L34.4419 60.4959L31.6202 59.5767L29.9603 61.9999Z" fill="white"/>
<path d="M47.4712 56.903L44.7324 55.9839L42.9895 58.4071V55.4825L40.1678 54.5634L42.9895 53.6443V50.7197L44.7324 53.0594L47.4712 52.1402L45.7283 54.5634L47.4712 56.903Z" fill="white"/>
<path d="M73.865 26.5714H77.1018V28.4932H71.2922V18.884H77.0188V20.7223H73.865V22.7277H76.5208V24.566H73.865V26.5714Z" fill="white"/>
<path d="M81.9128 18.884H84.4856V26.6549C84.4856 27.9083 83.7386 28.4932 82.3278 28.4932H80.087C78.5931 28.4932 77.9291 27.9083 77.9291 26.6549V18.884H80.5019V26.3207C80.5019 26.5714 80.5849 26.6549 80.8339 26.6549H81.4978C81.7468 26.6549 81.8298 26.5714 81.8298 26.3207V18.884H81.9128Z" fill="white"/>
<path d="M89.3822 20.7223H88.3863V23.3126H89.3822C89.6312 23.3126 89.7142 23.2291 89.7142 22.9784V21.0565C89.7142 20.8059 89.6312 20.7223 89.3822 20.7223ZM88.3033 25.0673V28.4932H85.7305V18.884H90.1292C91.623 18.884 92.287 19.4689 92.287 20.7223V23.2291C92.287 24.1482 91.872 24.7331 91.0421 24.9838L92.7849 28.4932H89.9632L88.4693 25.0673H88.3033Z" fill="white"/>
<path d="M97.3502 26.3207V21.0565C97.3502 20.8059 97.1843 20.7223 97.0183 20.7223H96.3543C96.1053 20.7223 96.0224 20.8059 96.0224 21.0565V26.3207C96.0224 26.5714 96.1053 26.6549 96.3543 26.6549H97.0183C97.1843 26.5714 97.3502 26.4878 97.3502 26.3207ZM95.5244 18.884H97.7652C99.2591 18.884 99.923 19.4689 99.923 20.7223V26.6549C99.923 27.9083 99.1761 28.4932 97.7652 28.4932H95.5244C94.0305 28.4932 93.3666 27.9083 93.3666 26.6549V20.7223C93.3666 19.4689 94.1135 18.884 95.5244 18.884Z" fill="white"/>
<path d="M105.07 23.1455V21.0565C105.07 20.8059 104.904 20.7223 104.738 20.7223H103.742V23.4797H104.738C104.987 23.4797 105.07 23.3126 105.07 23.1455ZM101.087 18.884H105.485C106.979 18.884 107.643 19.4689 107.643 20.7223V23.4797C107.643 24.7331 106.896 25.318 105.485 25.318H103.659V28.4932H101.087V18.884Z" fill="white"/>
<path d="M111.211 26.5714H114.448V28.4932H108.639V18.884H114.365V20.7223H111.211V22.7277H113.867V24.566H111.211V26.5714Z" fill="white"/>
<path d="M118.015 25.1509H119.509L118.762 21.6415L118.015 25.1509ZM120.173 28.4932L119.841 27.0727H117.517L117.185 28.4932H114.613L117.102 18.884H120.256L122.746 28.4932H120.173Z" fill="white"/>
<path d="M127.726 18.884H130.133V28.4932H127.892L125.734 23.3962V28.4932H123.411V18.884H125.651L127.726 23.9811V18.884Z" fill="white"/>
<path d="M138.265 26.3207V21.0565C138.265 20.8059 138.099 20.7223 137.933 20.7223H137.269C137.02 20.7223 136.937 20.8059 136.937 21.0565V26.3207C136.937 26.5714 137.02 26.6549 137.269 26.6549H137.933C138.099 26.5714 138.265 26.4878 138.265 26.3207ZM136.439 18.884H138.68C140.173 18.884 140.837 19.4689 140.837 20.7223V26.6549C140.837 27.9083 140.09 28.4932 138.68 28.4932H136.439C134.945 28.4932 134.281 27.9083 134.281 26.6549V20.7223C134.281 19.4689 135.028 18.884 136.439 18.884Z" fill="white"/>
<path d="M145.985 23.1455V21.0565C145.985 20.8059 145.819 20.7223 145.653 20.7223H144.657V23.4797H145.653C145.902 23.4797 145.985 23.3126 145.985 23.1455ZM142.001 18.884H146.4C147.894 18.884 148.558 19.4689 148.558 20.7223V23.4797C148.558 24.7331 147.811 25.318 146.4 25.318H144.574V28.4932H142.001V18.884Z" fill="white"/>
<path d="M152.128 26.5714H155.365V28.4932H149.555V18.884H155.282V20.7223H152.128V22.7277H154.867V24.566H152.128V26.5714Z" fill="white"/>
<path d="M160.593 18.884H163V28.4932H160.759L158.601 23.3962V28.4932H156.195V18.884H158.435L160.593 23.9811V18.884Z" fill="white"/>
<path d="M75.1921 40.7764V39.2724C75.1921 39.0217 75.0261 38.9381 74.7772 38.9381H73.2833C72.5364 38.9381 71.9554 38.771 71.6234 38.4368C71.2915 38.1025 71.1255 37.6012 71.1255 36.9327V34.8438C71.1255 33.5068 71.8724 32.8384 73.4493 32.8384H75.6071C77.184 32.8384 77.9309 33.5068 77.9309 34.8438V36.0971H75.1091V35.2616C75.1091 35.0109 74.9432 34.9273 74.6942 34.9273H74.1962C73.9472 34.9273 73.7813 35.0109 73.7813 35.2616V36.7656C73.7813 37.0163 73.9472 37.0998 74.1962 37.0998H75.6901C76.437 37.0998 77.018 37.267 77.35 37.6012C77.6819 37.9354 77.8479 38.4368 77.8479 39.0217V41.1106C77.8479 42.4476 77.101 43.116 75.5241 43.116H73.3663C71.7894 43.116 71.0425 42.4476 71.0425 41.1106V39.8573H73.8642V40.6928C73.8642 40.9435 74.0302 41.0271 74.2792 41.0271H74.7772C75.0261 41.1106 75.1921 41.0271 75.1921 40.7764Z" fill="white"/>
<path d="M85.8959 36.6819H83.0741V35.0107C83.0741 34.76 82.9081 34.6765 82.6591 34.6765H82.1612C81.9122 34.6765 81.7462 34.76 81.7462 35.0107V40.9433C81.7462 41.194 81.9122 41.2776 82.1612 41.2776H82.7421C82.9911 41.2776 83.1571 41.194 83.1571 40.9433V39.3557H85.9789V41.1105C85.9789 42.4474 85.2319 43.1158 83.6551 43.1158H81.3313C79.7544 43.1158 79.0074 42.4474 79.0074 41.1105V34.76C79.0074 33.4231 79.7544 32.7546 81.3313 32.7546H83.5721C85.1489 32.7546 85.8959 33.4231 85.8959 34.76V36.6819Z" fill="white"/>
<path d="M89.7172 32.8384H86.8954V43.116H89.7172V32.8384Z" fill="white"/>
<path d="M93.7823 41.1106H97.268V43.116H90.9606V32.8384H97.1021V34.8438H93.7823V36.9327H96.6871V38.9381H93.7823V41.1106Z" fill="white"/>
<path d="M102.83 32.8384H105.32V43.116H102.996L100.672 37.6847V43.116H98.0995V32.8384H100.506L102.83 38.3532V32.8384Z" fill="white"/>
<path d="M113.452 36.6819H110.63V35.0107C110.63 34.76 110.464 34.6765 110.215 34.6765H109.634C109.385 34.6765 109.22 34.76 109.22 35.0107V40.9433C109.22 41.194 109.385 41.2776 109.634 41.2776H110.215C110.464 41.2776 110.63 41.194 110.63 40.9433V39.3557H113.452V41.1105C113.452 42.4474 112.705 43.1158 111.128 43.1158H108.888C107.311 43.1158 106.564 42.4474 106.564 41.1105V34.76C106.564 33.4231 107.311 32.7546 108.888 32.7546H111.128C112.705 32.7546 113.452 33.4231 113.452 34.76V36.6819Z" fill="white"/>
<path d="M117.269 41.1106H120.754V43.116H114.447V32.8384H120.588V34.8438H117.269V36.9327H120.173V38.9381H117.269V41.1106Z" fill="white"/>
<path d="M131.627 36.6819H128.805V35.0107C128.805 34.76 128.639 34.6765 128.39 34.6765H127.809C127.56 34.6765 127.394 34.76 127.394 35.0107V40.9433C127.394 41.194 127.56 41.2776 127.809 41.2776H128.39C128.639 41.2776 128.805 41.194 128.805 40.9433V39.3557H131.627V41.1105C131.627 42.4474 130.88 43.1158 129.303 43.1158H127.062C125.486 43.1158 124.739 42.4474 124.739 41.1105V34.76C124.739 33.4231 125.486 32.7546 127.062 32.7546H129.303C130.88 32.7546 131.627 33.4231 131.627 34.76V36.6819Z" fill="white"/>
<path d="M135.447 41.1106H138.601V43.116H132.708V32.8384H135.447V41.1106Z" fill="white"/>
<path d="M143.494 40.7764V35.178C143.494 34.9273 143.328 34.8438 143.079 34.8438H142.415C142.166 34.8438 142 34.9273 142 35.178V40.7764C142 41.0271 142.166 41.1106 142.415 41.1106H143.079C143.328 41.1106 143.494 41.0271 143.494 40.7764ZM141.585 32.8384H143.909C145.486 32.8384 146.233 33.5068 146.233 34.8438V41.1942C146.233 42.5311 145.486 43.1996 143.909 43.1996H141.585C140.008 43.1996 139.261 42.5311 139.261 41.1942V34.8438C139.261 33.5068 140.008 32.8384 141.585 32.8384Z" fill="white"/>
<path d="M151.712 32.8384H154.534V41.1106C154.534 42.4476 153.787 43.116 152.21 43.116H149.886C148.309 43.116 147.562 42.4476 147.562 41.1106V32.8384H150.384V40.7764C150.384 41.0271 150.55 41.1106 150.799 41.1106H151.463C151.712 41.1106 151.878 41.0271 151.878 40.7764V32.8384H151.712Z" fill="white"/>
<path d="M160.175 40.9435V35.0109C160.175 34.7602 160.009 34.6767 159.76 34.6767H158.681V41.2778H159.76C160.092 41.2778 160.175 41.1942 160.175 40.9435ZM155.942 32.8384H160.673C162.25 32.8384 162.997 33.5068 162.997 34.8438V41.1942C162.997 42.5311 162.25 43.1996 160.673 43.1996H155.942V32.8384Z" fill="white"/>
</svg>
