<?xml version="1.0" encoding="UTF-8"?>
<svg width="158px" height="160px" viewBox="0 0 158 160" version="1.1" xmlns="http://www.w3.org/2000/svg" xmlns:xlink="http://www.w3.org/1999/xlink">
    <title>image</title>
    <defs>
        <linearGradient x1="0%" y1="11.7188218%" x2="102.715817%" y2="84.3661172%" id="linearGradient-1">
            <stop stop-color="#05CAE7" offset="0%"></stop>
            <stop stop-color="#0C2BD5" offset="100%"></stop>
        </linearGradient>
        <filter x="-13.5%" y="-17.9%" width="127.1%" height="135.7%" filterUnits="objectBoundingBox" id="filter-2">
            <feGaussianBlur stdDeviation="3.36" in="SourceGraphic"></feGaussianBlur>
        </filter>
    </defs>
    <g id="!_Views" stroke="none" stroke-width="1" fill="none" fill-rule="evenodd">
        <g id="Favourite-services" transform="translate(-269.000000, -331.000000)">
            <g id="image" transform="translate(269.491934, 332.285266)">
                <path d="M132.708066,18.1147341 C145.9629,18.1147341 156.708066,28.8599001 156.708066,42.1147341 C156.708066,55.3695681 145.9629,66.1147341 132.708066,66.1147341 L132.708066,66.1147341 L89.5080661,66.1147341 C88.9690362,66.1147341 88.4715106,65.9370329 88.070876,65.6370173 C87.0047223,65.9479179 85.8758752,66.1147341 84.7080661,66.1147341 C78.0806491,66.1147341 72.7080661,60.7421511 72.7080661,54.1147341 C72.7080661,47.7423871 77.675057,42.530143 83.9486669,42.1383739 C83.6601995,40.9760976 83.5080661,39.7625242 83.5080661,38.5147341 C83.5080661,29.899092 90.7610531,22.9147341 99.7080661,22.9147341 C104.954733,22.9147341 109.618854,25.3165373 112.579416,29.0406511 C116.858842,22.4635881 124.275589,18.1147341 132.708066,18.1147341 Z" id="Combined-Shape" fill="#ECF6FD"></path>
                <path d="M122.502066,50.2027341 C112.638066,41.7967341 97.9680661,43.3087341 88.9140661,52.6507341 L85.3680661,56.3047341 L81.8220661,52.6507341 C72.7860661,43.3087341 58.0980661,41.7967341 48.2340661,50.2027341 C36.9300661,59.8507341 36.3360661,77.1667341 46.4520661,87.6247341 L81.2820661,123.588734 C83.5320661,125.910734 87.1860661,125.910734 89.4360661,123.588734 L124.266066,87.6247341 C134.400066,77.1667341 133.806066,59.8507341 122.502066,50.2027341 Z" id="Path" fill="url(#linearGradient-1)" fill-rule="nonzero"></path>
                <path d="M64.9080661,78.1147341 C76.5060458,78.1147341 85.9080661,87.5167544 85.9080661,99.1147341 C85.9080661,110.096901 77.4779691,119.110113 66.7358531,120.036293 C66.5756264,120.087369 66.405042,120.114734 66.2280661,120.114734 L64.2947126,120.115014 C64.3035847,120.31386 64.3080661,120.513796 64.3080661,120.714734 C64.3080661,128.336264 57.8609665,134.514734 49.9080661,134.514734 C41.9551657,134.514734 35.5080661,128.336264 35.5080661,120.714734 C35.5080661,120.513796 35.5125474,120.31386 35.5214195,120.115014 L26.8111386,120.114734 C26.3406986,120.114731 25.9111529,119.920227 25.6041291,119.603317 C24.5661758,119.934978 23.458113,120.114734 22.3080661,120.114734 C16.3433908,120.114734 11.5080661,115.279409 11.5080661,109.314734 C11.5080661,103.350059 16.3433908,98.5147341 22.3080661,98.5147341 C24.0092615,98.5147341 25.618589,98.9080671 27.0500673,99.6087518 C28.4337283,96.544799 30.432779,94.0181904 33.0461554,92.0294639 C36.7556484,89.2066149 41.7028655,87.467474 47.8878066,86.8120412 C51.702871,81.5425065 57.905169,78.1147341 64.9080661,78.1147341 Z" id="Combined-Shape" fill="#FFFFFF" opacity="0.669999957" filter="url(#filter-2)" transform="translate(48.708066, 106.314734) scale(-1, 1) translate(-48.708066, -106.314734) "></path>
                <g id="Group" transform="translate(119.973499, 124.643861) rotate(38.000000) translate(-119.973499, -124.643861) translate(103.973499, 95.143861)">
                    <path d="M3.8,55.2 C17.054834,55.2 27.8,44.454834 27.8,31.2" id="Path" stroke="#FFCD00" stroke-width="1.13256" stroke-linecap="round" stroke-dasharray="1.079999971389771,2.519999885559082" transform="translate(15.800000, 43.200000) rotate(-23.000000) translate(-15.800000, -43.200000) "></path>
                    <polygon id="Fill-1-Copy-2" fill="#FFCD00" points="12.6322115 4.54747351e-13 18.9677885 8.13727676 29 5.14878579 22.6644231 13.116432 29 21.2537088 18.9677885 18.2627232 12.6322115 26.4 12.6322115 16.2695644 2.6 13.2810734 12.6322115 10.127941"></polygon>
                </g>
                <g id="Group" transform="translate(31.429095, 32.760877) rotate(-139.000000) translate(-31.429095, -32.760877) translate(15.429095, 3.260877)">
                    <path d="M3.8,55.2 C17.054834,55.2 27.8,44.454834 27.8,31.2" id="Path" stroke="#FFCD00" stroke-width="1.13256" stroke-linecap="round" stroke-dasharray="1.079999971389771,2.519999885559082" transform="translate(15.800000, 43.200000) rotate(-23.000000) translate(-15.800000, -43.200000) "></path>
                    <polygon id="Fill-1-Copy-2" fill="#FFCD00" points="12.6322115 -4.54747351e-13 18.9677885 8.13727676 29 5.14878579 22.6644231 13.116432 29 21.2537088 18.9677885 18.2627232 12.6322115 26.4 12.6322115 16.2695644 2.6 13.2810734 12.6322115 10.127941"></polygon>
                </g>
            </g>
        </g>
    </g>
</svg>