<?xml version="1.0" encoding="UTF-8"?>
<svg width="477px" height="375px" viewBox="0 0 477 375" version="1.1" xmlns="http://www.w3.org/2000/svg" xmlns:xlink="http://www.w3.org/1999/xlink">
    <!-- Generator: Sketch 61 (89581) - https://sketch.com -->
    <title>ilustracja</title>
    <desc>Created with Sketch.</desc>
    <defs>
        <linearGradient x1="0%" y1="0%" x2="100%" y2="100%" id="linearGradient-1">
            <stop stop-color="#05CAE7" offset="0%"></stop>
            <stop stop-color="#0C2BD5" offset="100%"></stop>
        </linearGradient>
        <linearGradient x1="50%" y1="0%" x2="50%" y2="100%" id="linearGradient-2">
            <stop stop-color="#FFD731" offset="0%"></stop>
            <stop stop-color="#FFFBCF" offset="100%"></stop>
        </linearGradient>
        <path d="M64.5,23 L67.5,30.5 C60.8333333,35.8333333 57.5,38.5 57.5,38.5 C57.5,38.5 54.8333333,39.8333333 49.5,42.5 C50.1666667,48.8333333 51,52 52,52 C53.5,52 63,55.5 63,55.5 C63,55.5 67.5,42.5 67.5,42.5 L72,42.5 L72,42.5 L80,45 L85,57.5 L85,67.5 L76.5,59.5 L66,64 L74,71.5 L61,74.5 L56,82 L49.5,89 L40,96.5 L40,107 L36,96.5 L26,96.5 C21.3333333,98.8333333 19,100 19,100 C19,100 17.1666667,102.333333 13.5,107 L15.5,116.5 L28,112 L26,123 L31.5,123 L31.5,131 L36,136.5 L44,136.5 L53.5,142 C59.8333333,143.666667 63.5,144.5 64.5,144.5 C65.5,144.5 68.6666667,147.666667 74,154 L89.5,154 L89.5,154 C89.5,154 102.5,157 102.5,157 C102.5,157 103.833333,159.666667 106.5,165 C103.833333,170.666667 102.5,173.5 102.5,173.5 C102.5,173.5 101.833333,177.5 100.5,185.5 C96.5,188.166667 94.5,189.5 94.5,189.5 C94.5,189.5 94,192.5 93,198.5 L89.5,206 L80,209 L81.5,214 L76.5,219 L81.5,228 L85,233.5 L81.5,236.5 L70,230.5 L66,223 C62.6666667,220.333333 61,219 61,219 C61,219 56,208.5 56,206 C56,203.5 49.5,189.5 49.5,189.5 C49.5,189.5 49,188.166667 48,185.5 C38,180.5 32.5,178 31.5,178 C30.5,178 25.1666667,173.666667 15.5,165 L19,152 L19,142 C21.6666667,138.333333 23,136.5 23,136.5 C23,136.5 26.5,137 33.5,138 L21.5,125.5 L13.5,121 L7,118.5 L4.5,102 L4.5,91.5 L0.5,78 L7,73 L13.5,57.5 L23,45 L36,38.5 C41.3333333,33.1666667 44,30.5 44,30.5 C44,30.5 45.8333333,28 49.5,23 L64.5,23 Z M191.5,17 L198,21.5 L210.5,25 L215.5,35.5 L222,48 L231,55.5 L236,62.5 L240.5,70 L250,85 L252,97 L250,101 L246.5,103 L240.5,110 L244.5,119.5 L240.5,121.5 L236,112 L231,101 L222,95 L213.5,93 L194.5,86.5 L213.5,105 L208.5,110 L201,114 L191.5,105 L198,115.5 L207,126.5 L218.5,123.5 L215.5,132.5 L201,150 L203,163 L203,171 L196.5,176 L196.5,176 L196.5,182 C196.5,182 193,190.5 193,192.5 C193,193.833333 191,196.333333 187,200 L187,200 L177.5,203.5 L168.5,200 L166,190.5 L160,182 L158.5,169.5 L158.5,158 L152.5,151.5 L151,139.5 L143,138 L135.5,139.5 L122,142.5 L112.5,136.5 L106.5,131 L106.5,112 L115,98.5 L122,88 L125,90 L148,83.5 L156.5,91.5 L166,90 L177.5,90 L175.5,83.5 L173.5,78 L166,76.5 L166,72 L158.5,72 L143,64.5 L149.5,70 L151,78 L141.5,70 L135.5,70 L131.5,72 L130,78 L127,83.5 L125,85 L119.5,85 L119.5,75 L125,72 L127,70 C122,68 119.5,67 119.5,67 C119.5,67 120.205333,66.2946667 121.616,64.884 L122,64.5 L125,60 L130,55.5 L130,50.5 L135.5,53 L143,50.5 L145.5,46.5 L148,42 L143,43.5 L137,35.5 L135.5,43.5 L137,50.5 L134,50.5 L130,46.5 L125,46.5 L122,43.5 L127,34.5 L131.5,29.5 L143,27.5 L152.5,27.5 L148,33 L154,34.5 L158.5,31 L162,27 L175.5,25 L182.5,20 L191.5,17 Z M215.5,165.5 L218,168 L215.5,178 L215.5,185.5 L208.5,185.5 L210,173.5 L215.5,165.5 Z M51,113 L53.5,117 L48.5,117 L48.5,114.5 L51,113 Z M33.5,107.5 L45,113 L42.5,114.5 L33.5,107.5 Z M112.5,59.5 L110.5,64 L109,64 L109,59.5 L112.5,59.5 Z M112.5,49 L122.5,59.5 L118.5,61.5 L112.5,55 L112.5,49 Z M126.5,0 L135.5,1.5 L130,8.5 L130,8.5 L130,18.5 C130,19.5 127.333333,22.3333333 122,27 L122,27 L110.5,34 L102,49 L96.5,45 L96.5,32 L98.5,22 L98.5,15 L89.5,12 L89.5,10 L98.5,4 C106.5,1.33333333 110.5,0 110.5,0 L110.5,0 L126.5,0 Z M111,44 L111,46.5 L109,46.5 L109,44 L111,44 Z M70,14 C76,16 79.5,17 80.5,17 C81.5,17 83.5,21 86.5,29 L86.5,29 L85,38 C78,36.6666667 74.5,36 74.5,36 C74.5,36 75.3333333,33 77,27 L77,27 L67,19.5 L67,17 Z" id="path-3"></path>
        <filter x="-4.5%" y="-6.6%" width="109.1%" height="113.1%" filterUnits="objectBoundingBox" id="filter-5">
            <feGaussianBlur stdDeviation="4" in="SourceGraphic"></feGaussianBlur>
        </filter>
    </defs>
    <g id="!_Aktualny" stroke="none" stroke-width="1" fill="none" fill-rule="evenodd">
        <g id="Order:-Service-type---open-access" transform="translate(-856.000000, -309.000000)">
            <g id="ilustracja" transform="translate(866.000000, 306.000000)">
                <path d="M378.5,272 C380.985281,272 383,274.014719 383,276.5 C383,278.985281 380.985281,281 378.5,281 L283.5,281 C281.014719,281 279,278.985281 279,276.5 C279,274.014719 281.014719,272 283.5,272 L378.5,272 Z M384.5,261 C386.985281,261 389,263.014719 389,265.5 C389,267.985281 386.985281,270 384.5,270 L289.5,270 C287.014719,270 285,267.985281 285,265.5 C285,263.014719 287.014719,261 289.5,261 L384.5,261 Z M393.5,250 C395.985281,250 398,252.014719 398,254.5 C398,256.985281 395.985281,259 393.5,259 L298.5,259 C296.014719,259 294,256.985281 294,254.5 C294,252.014719 296.014719,250 298.5,250 L393.5,250 Z" id="Combined-Shape" fill="#ECF6FD" transform="translate(338.500000, 265.500000) scale(-1, 1) translate(-338.500000, -265.500000) "></path>
                <path d="M381.5,45 C398.89697,45 413,59.1030304 413,76.5 C413,93.6720493 399.25928,107.634781 382.173086,107.992951 C382.115655,107.997521 382.058117,108 382,108 L323,108 C322.628629,108 322.280899,107.898781 321.982893,107.722426 C321.017141,107.904609 320.019711,108 319,108 C310.163444,108 303,100.836556 303,92 C303,83.7303395 309.273807,76.9260051 317.321421,76.0869973 C317.109871,74.9227626 317,73.7239067 317,72.5 C317,61.1781626 326.40202,52 338,52 C344.784134,52 350.816907,55.1403633 354.656091,60.0131999 C360.197717,51.0054512 370.147534,45 381.5,45 Z" id="Combined-Shape" fill="#ECF6FD"></path>
                <circle id="Oval" fill="url(#linearGradient-1)" cx="244" cy="181" r="127"></circle>
                <path d="M398.582023,266 C436.137386,266 466.582023,235.555363 466.582023,198" id="Path" stroke="#FFCD00" stroke-width="3.146" stroke-linecap="round" stroke-dasharray="3,7" transform="translate(432.582023, 232.000000) rotate(-23.000000) translate(-432.582023, -232.000000) "></path>
                <path d="M184.5,76 L187.5,83.5 C180.833333,88.8333333 177.5,91.5 177.5,91.5 C177.5,91.5 174.833333,92.8333333 169.5,95.5 C170.166667,101.833333 171,105 172,105 C173.5,105 183,108.5 183,108.5 C183,108.5 187.5,95.5 187.5,95.5 L192,95.5 L192,95.5 L200,98 L205,110.5 L205,120.5 L196.5,112.5 L186,117 L194,124.5 L181,127.5 L176,135 L169.5,142 L157.5,149.5 L158.5,155.5 L156,147 L146,149.5 C141.333333,151.833333 139,153 139,153 C139,153 137.166667,155.333333 133.5,160 L135.5,169.5 L146,163 L146,176 L151.5,176 L151.5,184 L156,189.5 L164,189.5 L173.5,195 C179.833333,196.666667 183.5,197.5 184.5,197.5 C185.5,197.5 188.666667,200.666667 194,207 L209.5,207 L209.5,207 C209.5,207 222.5,210 222.5,210 C222.5,210 223,211.833333 224,215.5 C223,222.833333 222.5,226.5 222.5,226.5 C222.5,226.5 221.833333,230.5 220.5,238.5 C216.5,241.166667 214.5,242.5 214.5,242.5 C214.5,242.5 214,245.5 213,251.5 L209.5,259 L200,262 L201.5,267 L196.5,272 L201.5,281 L205,286.5 L201.5,289.5 L190,283.5 L186,276 C182.666667,273.333333 181,272 181,272 C181,272 176,261.5 176,259 C176,256.5 169.5,242.5 169.5,242.5 C169.5,242.5 169,241.166667 168,238.5 C158,233.5 152.5,231 151.5,231 C150.5,231 144.833333,225.833333 134.5,215.5 L139,205 L139,195 C141.666667,191.333333 143,189.5 143,189.5 C143,189.5 146.5,190 153.5,191 L141.5,178.5 L133.5,174 L127,171.5 L124.5,155 L124.5,144.5 L120.5,131 L127,126 L133.5,110.5 L143,98 L156,91.5 C161.333333,86.1666667 164,83.5 164,83.5 C164,83.5 165.833333,81 169.5,76 L184.5,76 Z M311.5,70 L318,74.5 L330.5,78 L335.5,88.5 L342,101 L351,108.5 L356,115.5 L360.5,123 L370,138 L368,146 L366,150 L362.5,152 L360.5,163 L360.5,168.5 L359,168.5 L356,165 L351,154 L342,148 L333.5,146 L314.5,139.5 L333.5,158 L328.5,163 L321,167 L311.5,158 L318,168.5 L327,179.5 L337,174.5 L335.5,184 L321,203 L319.5,215.5 L321,220.5 L316.5,229 L316.5,229 L316.5,235 C316.5,235 313,243.5 313,245.5 C313,246.833333 311,249.333333 307,253 L307,253 L297.5,256.5 L288.5,253 L286,243.5 L280,235 L278.5,222.5 L278.5,211 L272.5,204.5 L271,192.5 L263,191 L255.5,192.5 L242,195.5 L232.5,189.5 L226.5,184 L226.5,165 L235,151.5 L242,141 L245,143 L268,136.5 L276.5,144.5 L286,143 L297.5,143 L295.5,136.5 L293.5,131 L286,129.5 L286,125 L278.5,125 L263,117.5 L269.5,123 L271,131 L261.5,123 L255.5,123 L251.5,125 L250,131 L247,136.5 L245,138 L239.5,138 L239.5,128 L245,125 L247,123 C242,121 239.5,120 239.5,120 C239.5,120 240.145333,119.354667 241.436,118.064 L242,117.5 L245,113 L250,108.5 L250,103.5 L255.5,106 L263,103.5 L265.5,99.5 L268,95 L263,96.5 L257,88.5 L255.5,96.5 L257,103.5 L254,103.5 L250,99.5 L245,99.5 L242,96.5 L247,87.5 L251.5,82.5 L263,80.5 L270,78 L268,86 L274,87.5 L278.5,84 L282,80 L295.5,78 L302.5,73 L311.5,70 Z M335.5,218.5 L338,221 L335.5,231 L335.5,238.5 L328.5,238.5 L330,226.5 L335.5,218.5 Z M170.5,164 L173,168 L168,168 L168,165.5 L170.5,164 Z M153,159 L164.5,164.5 L162,166 L153,159 Z M232.5,112.5 L230.5,117 L229,117 L229,112.5 L232.5,112.5 Z M232.5,102 L242.5,112.5 L238.5,114.5 L232.5,108 L232.5,102 Z M253.5,52 L250,61.5 L250,61.5 L250,71.5 C250,72.5 247.333333,75.3333333 242,80 L242,80 L230.5,87 L222,102 L216.5,98 L216.5,85 L218.5,75 L218.5,68 L209.5,65 L209.5,63 L218.5,57 C226.5,54.3333333 230.5,53 230.5,53 L230.5,53 L246.5,53 L253.5,52 Z M231,97 L231,99.5 L229,99.5 L229,97 L231,97 Z M190,67 C196,69 199.5,70 200.5,70 C201.5,70 203.5,74 206.5,82 L206.5,82 L205,91 C198,89.6666667 194.5,89 194.5,89 C194.5,89 195.333333,86 197,80 L197,80 L187,72.5 L187,70 Z" id="swiat" fill="#CCA400"></path>
                <g id="Oval" transform="translate(119.000000, 50.000000)">
                    <mask id="mask-4" fill="white">
                        <use xlink:href="#path-3"></use>
                    </mask>
                    <use id="Mask" fill="url(#linearGradient-2)" xlink:href="#path-3"></use>
                </g>
                <polygon id="Fill-1-Copy-2" fill="#FFCD00" transform="translate(77.000000, 100.000000) rotate(94.000000) translate(-77.000000, -100.000000) " points="71.0004006 75 82.9995994 90.411509 102 84.7514882 90.0008013 99.8417273 102 115.253236 82.9995994 109.588491 71.0004006 125 71.0004006 105.813569 52 100.153548 71.0004006 94.1817065"></polygon>
                <polygon id="Fill-1-Copy-2" fill="#FFCD00" points="421.322608 113 438.841438 135.500803 466.582023 127.237173 449.063193 149.268922 466.582023 171.769725 438.841438 163.499197 421.322608 186 421.322608 157.987811 393.582023 149.72418 421.322608 141.005292"></polygon>
                <polygon id="Fill-1-Copy-2" fill="#FFCD00" transform="translate(279.500000, 20.500000) rotate(13.000000) translate(-279.500000, -20.500000) " points="275.540264 4 283.459736 14.171596 296 10.4359822 288.080529 20.39554 296 30.567136 283.459736 26.828404 275.540264 37 275.540264 24.3369555 263 20.6013418 275.540264 16.6599263"></polygon>
                <path d="M189.5,185 C231.197499,185 265,218.802501 265,260.5 C265,298.814638 236.459717,330.463335 199.478858,335.346385 C199.113584,335.747762 198.586249,336 198,336 L185.752963,336.001078 C178.540278,354.702032 160.104465,368 138.5,368 C116.895535,368 98.4597218,354.702032 91.247037,336.001078 L51,336 C50.0789234,336 49.3032723,335.37736 49.0709858,334.530018 C45.7132797,335.487473 42.1664934,336 38.5,336 C17.2370371,336 0,318.762963 0,297.5 C0,277.264181 15.6119313,260.674724 35.4482419,259.119181 C35.1524028,256.954094 35,254.744492 35,252.5 C35,225.161905 57.6096201,203 85.5,203 C101.40828,203 115.598516,210.210156 124.855004,221.478439 C138.078828,199.614261 162.082742,185 189.5,185 Z" id="Combined-Shape" fill="#F5FBFF" filter="url(#filter-5)" transform="translate(132.500000, 276.500000) scale(-1, 1) translate(-132.500000, -276.500000) "></path>
            </g>
        </g>
    </g>
</svg>
