<?xml version="1.0" encoding="UTF-8" standalone="no"?>
<!DOCTYPE svg PUBLIC "-//W3C//DTD SVG 1.1//EN" "http://www.w3.org/Graphics/SVG/1.1/DTD/svg11.dtd">
<svg width="100%" height="100%" viewBox="0 0 945 854" version="1.1" xmlns="http://www.w3.org/2000/svg" xmlns:xlink="http://www.w3.org/1999/xlink" xml:space="preserve" xmlns:serif="http://www.serif.com/" style="fill-rule:evenodd;clip-rule:evenodd;stroke-linejoin:round;stroke-miterlimit:1.41421;">
    <g id="Artboard1" transform="matrix(1,0,0,1,-476.046,-472.823)">
        <rect x="476.046" y="472.823" width="944.842" height="853.603" style="fill:none;"/>
        <g transform="matrix(0.973944,0,0,0.973944,121.523,-167.13)">
            <path d="M1124.98,971.656L1124.98,909.468C1125.14,907.525 1125.14,905.562 1125.46,903.639C1128.04,888.228 1141.81,875.47 1157.47,874.172C1174.95,872.724 1192.39,886.015 1195.33,903.639C1195.65,905.562 1195.65,907.525 1195.82,909.468L1195.82,1027.35L1272.36,1087.53C1273.79,1088.86 1275.33,1090.07 1276.64,1091.52C1287.17,1103.06 1288.68,1121.78 1280.02,1134.89C1270.36,1149.52 1249.13,1155.02 1233.46,1146.44C1231.75,1145.5 1230.2,1144.29 1228.58,1143.21L1195.82,1117.45L1195.82,1397.98C1195.43,1402.88 1195.62,1404.2 1194.08,1408.92C1190.64,1419.52 1181.96,1428.21 1171.34,1431.66C1166.62,1433.19 1165.3,1433.01 1160.4,1433.39L936.722,1433.39C931.818,1433.01 930.5,1433.19 925.778,1431.66C915.179,1428.22 906.488,1419.54 903.039,1408.92C901.504,1404.2 901.691,1402.88 901.305,1397.98L901.305,1245.5L810.501,1245.5L810.501,1400.66C810.115,1405.56 810.302,1406.88 808.767,1411.6C805.324,1422.2 796.643,1430.89 786.028,1434.34C781.306,1435.88 779.989,1435.69 775.084,1436.08L554.009,1436.08C549.105,1435.69 547.787,1435.88 543.065,1434.34C532.466,1430.9 523.775,1422.22 520.326,1411.6C518.792,1406.88 518.979,1405.56 518.593,1400.66L518.593,1115.81L481.658,1145.22L476.797,1148.47C475.021,1149.28 473.304,1150.23 471.467,1150.88C454.966,1156.75 434.758,1148.55 427.322,1132.1C421.697,1119.65 424.022,1104.09 433.274,1093.82C434.579,1092.37 436.114,1091.14 437.533,1089.81L853.727,758.381L1124.98,971.656ZM589.426,1059.4L589.426,1365.24L739.667,1365.24L739.667,1210.08C740.053,1205.18 739.866,1203.86 741.401,1199.14C744.844,1188.54 753.525,1179.85 764.14,1176.4C768.862,1174.86 770.18,1175.05 775.084,1174.66L936.722,1174.66C941.626,1175.05 942.944,1174.86 947.666,1176.4C958.265,1179.84 966.956,1188.52 970.405,1199.14C971.94,1203.86 971.753,1205.18 972.139,1210.08L972.139,1362.56L1124.98,1362.56L1124.98,1061.76L854.007,848.707L589.426,1059.4Z" style="fill:rgb(35,61,76);fill-rule:nonzero;"/>
        </g>
    </g>
</svg>
