<?xml version="1.0" encoding="UTF-8"?>
<svg width="24px" height="24px" viewBox="0 0 24 24" version="1.1" xmlns="http://www.w3.org/2000/svg" xmlns:xlink="http://www.w3.org/1999/xlink">
    <title>Shape</title>
    <g id="--Symbols" stroke="none" stroke-width="1" fill="none" fill-rule="evenodd">
        <g id="icon-/-message" fill="#1C313A" fill-rule="nonzero">
            <path d="M21,0 L3,0 C1.3453125,0 0,1.3453125 0,3 L0,16.5 C0,18.1546875 1.3453125,19.5 3,19.5 L7.5,19.5 L7.5,23.4375 C7.5,23.7703125 7.771875,24 8.0625,24 C8.175,24 8.2921875,23.9671875 8.3953125,23.8875 L14.25,19.5 L21,19.5 C22.6546875,19.5 24,18.1546875 24,16.5 L24,3 C24,1.3453125 22.6546875,0 21,0 Z M22.5,16.5 C22.5,17.325 21.825,18 21,18 L13.7484375,18 L13.35,18.3 L9,21.5625 L9,18 L3,18 C2.175,18 1.5,17.325 1.5,16.5 L1.5,3 C1.5,2.175 2.175,1.5 3,1.5 L21,1.5 C21.825,1.5 22.5,2.175 22.5,3 L22.5,16.5 Z M13.125,10 L6.375,10 C6.16875,10 6,10.225 6,10.5 L6,11.5 C6,11.775 6.16875,12 6.375,12 L13.125,12 C13.33125,12 13.5,11.775 13.5,11.5 L13.5,10.5 C13.5,10.225 13.33125,10 13.125,10 Z M17.625,6 L6.375,6 C6.16875,6 6,6.225 6,6.5 L6,7.5 C6,7.775 6.16875,8 6.375,8 L17.625,8 C17.83125,8 18,7.775 18,7.5 L18,6.5 C18,6.225 17.83125,6 17.625,6 Z" id="Shape"></path>
        </g>
    </g>
</svg>