<?xml version="1.0" encoding="UTF-8"?>
<svg width="11px" height="13px" viewBox="0 0 11 13" version="1.1" xmlns="http://www.w3.org/2000/svg" xmlns:xlink="http://www.w3.org/1999/xlink">
    <!-- Generator: Sketch 64 (93537) - https://sketch.com -->
    <title>ico_expand</title>
    <desc>Created with Sketch.</desc>
    <g id="--Symbols" stroke="none" stroke-width="1" fill="none" fill-rule="evenodd">
        <g id="parameter-box-/-collapse" transform="translate(-740.000000, -21.000000)" fill="#1C313A" fill-rule="nonzero">
            <g id="parameter-box">
                <g id="param_actions" transform="translate(635.000000, 17.000000)">
                    <g id="ico-/-expand" transform="translate(104.668782, 3.855202)">
                        <path d="M2.08961528,7.61338054 L2.1724958,7.67621368 L6.00095456,11.0447016 L9.8275042,7.67621368 C10.0918602,7.44352233 10.4838873,7.44380421 10.7471811,7.66212379 L10.8220508,7.73414586 C11.0570339,7.99592362 11.0567492,8.38412742 10.8362795,8.64485338 L10.7635481,8.71899292 L6.46802194,12.5 L5.53197806,12.5 L1.23645191,8.71899292 C0.94566036,8.46303244 0.91946779,8.02210139 1.17794917,7.73414586 C1.41293224,7.4723681 1.80228913,7.42713448 2.08961528,7.61338054 Z M6.46802194,0.5 L10.7635481,4.28100708 L10.8362795,4.35514662 C11.0567492,4.61587258 11.0570339,5.00407638 10.8220508,5.26585414 L10.8220508,5.26585414 L10.7471811,5.33787621 C10.4838873,5.55619579 10.0918602,5.55647767 9.8275042,5.32378632 L9.8275042,5.32378632 L6,1.95529837 L2.1724958,5.32378632 L2.08961528,5.38661946 C1.80228913,5.57286552 1.41293224,5.5276319 1.17794917,5.26585414 C0.91946779,4.97789861 0.94566036,4.53696756 1.23645191,4.28100708 L1.23645191,4.28100708 L5.53197806,0.5 L6.46802194,0.5 Z" id="Combined-Shape-Copy"></path>
                    </g>
                </g>
            </g>
        </g>
    </g>
</svg>