
<svg width="54px" height="31px" viewBox="0 0 54 31" version="1.1" xmlns="http://www.w3.org/2000/svg" xmlns:xlink="http://www.w3.org/1999/xlink">
    <g id="!_Main" stroke="none" stroke-width="1" fill="none" fill-rule="evenodd" fill-opacity="0.2" opacity="0.400000006">
        <g id="Item-detail-modal-question" transform="translate(-560.000000, -218.000000)" fill="#1C313A">
            <g id="modal" transform="translate(515.000000, 128.000000)">
                <path d="M56,104.72544 C56.4795308,96.5120873 63.2091122,90 71.4443706,90 C75.1452056,90 78.5367059,91.3190152 81.1977292,93.511925 C81.3492907,93.6376653 81.4971254,93.7684351 81.6437177,93.899205 C81.75801,93.9985398 81.87106,94.1003894 81.9828677,94.202239 C83.6351371,95.7148941 84.9681334,97.5783646 85.8389911,99.6920581 C86.6266143,99.5072199 87.4428105,99.3978259 88.2850952,99.3978259 C92.2294225,99.3978259 95.6693728,101.537925 97.5638922,104.72544 L97.4968076,104.72544 C98.4459307,106.33743 99,108.213474 99,110.225318 C99,116.176604 94.2345073,121 88.3546644,121 L61.4177043,121 C60.673562,121 60.0710427,120.388902 60.0710427,119.636976 C60.0710427,118.883792 60.673562,118.273951 61.4177043,118.273951 L78.0161789,118.273951 C78.7603213,118.272694 79.3628406,117.662854 79.3628406,116.90967 C79.3628406,116.159001 78.7615636,115.54916 78.0199058,115.547903 L78.0161789,115.547903 L67.760928,115.54916 C67.0167856,115.54916 66.4142663,114.938063 66.4142663,114.186136 L66.4142663,114.183621 C66.4142663,113.431695 67.0167856,112.820597 67.760928,112.820597 L82.5071216,112.820597 C83.2500217,112.81934 83.852541,112.209499 83.852541,111.457573 C83.852541,110.705646 83.2487794,110.094549 82.5058793,110.094549 L73.1339092,110.094549 C72.3897669,110.094549 71.7860053,109.483451 71.7860053,108.731524 C71.7860053,107.97834 72.3897669,107.3685 73.1339092,107.3685 L74.424667,107.3685 C75.1675671,107.3685 75.7713287,106.757402 75.7713287,106.005476 C75.7713287,105.413239 75.3949094,104.912793 74.8731401,104.72544 L56,104.72544 Z M56.5860101,118 C57.3673569,118 58,118.672509 58,119.5 C58,120.328875 57.3673569,121 56.5860101,121 L51.4139899,121 C50.6326431,121 50,120.328875 50,119.5 C50,118.672509 50.6326431,118 51.4139899,118 L56.5860101,118 Z M62,113.5 C62,114.326107 62.6714551,114.995849 63.5,115 C64.3285449,114.995849 65,114.326107 65,113.5 C65,112.673893 64.3285449,112.004151 63.5,112 C62.6714551,112.004151 62,112.673893 62,113.5 Z M58.6654355,112 C59.401662,112 60,112.671125 60,113.5 C60,114.327491 59.401662,115 58.6654355,115 L49.3345645,115 C49.1449677,115 48.9652201,114.954336 48.8014774,114.874077 C48.3299477,114.642989 48,114.114391 48,113.5 C48,112.762454 48.4752231,112.152214 49.0994152,112.026292 C49.1757464,112.01107 49.2545399,112 49.3345645,112 L58.6654355,112 Z M68.6357916,107 C69.38963,107 70,107.671125 70,108.5 C70,109.327491 69.38963,110 68.6357916,110 L46.3642084,110 C45.61037,110 45,109.327491 45,108.5 C45,107.671125 45.61037,107 46.3642084,107 L68.6357916,107 Z" id="Fill-1"></path>
            </g>
        </g>
    </g>
</svg>
