<?xml version="1.0" encoding="UTF-8"?>
<svg width="11px" height="14px" viewBox="0 0 11 14" version="1.1" xmlns="http://www.w3.org/2000/svg" xmlns:xlink="http://www.w3.org/1999/xlink">
    <!-- Generator: Sketch 64 (93537) - https://sketch.com -->
    <title>ico_collapse</title>
    <desc>Created with Sketch.</desc>
    <g id="--Symbols" stroke="none" stroke-width="1" fill="none" fill-rule="evenodd">
        <g id="parameter-box-/-expand" transform="translate(-740.000000, -21.000000)" fill="#1C313A" fill-rule="nonzero">
            <g id="parameter-box">
                <g id="param_actions" transform="translate(633.000000, 17.000000)">
                    <g id="ico-/-collapse" transform="translate(106.668782, 3.855202)">
                        <path d="M5.96802194,8.5 L10.2635481,12.2810071 L10.3362795,12.3551466 C10.5567492,12.6158726 10.5570339,13.0040764 10.3220508,13.2658541 L10.3220508,13.2658541 L10.2471811,13.3378762 C9.98388731,13.5561958 9.59186016,13.5564777 9.3275042,13.3237863 L9.3275042,13.3237863 L5.5,9.95529837 L1.6724958,13.3237863 L1.58961528,13.3866195 C1.30228913,13.5728655 0.912932245,13.5276319 0.677949171,13.2658541 C0.41946779,12.9778986 0.44566036,12.5369676 0.736451914,12.2810071 L0.736451914,12.2810071 L5.03197806,8.5 L5.96802194,8.5 Z M1.58961528,0.613380536 L1.6724958,0.676213678 L5.50095456,4.04470163 L9.3275042,0.676213678 C9.59186016,0.443522335 9.98388731,0.443804213 10.2471811,0.66212379 L10.3220508,0.734145858 C10.5570339,0.995923619 10.5567492,1.38412742 10.3362795,1.64485338 L10.2635481,1.71899292 L5.96802194,5.5 L5.03197806,5.5 L0.736451914,1.71899292 C0.44566036,1.46303244 0.41946779,1.02210139 0.677949171,0.734145858 C0.912932245,0.472368097 1.30228913,0.427134482 1.58961528,0.613380536 Z" id="Combined-Shape"></path>
                    </g>
                </g>
            </g>
        </g>
    </g>
</svg>