<svg width="17" height="13" viewBox="0 0 17 13" fill="none" xmlns="http://www.w3.org/2000/svg">
<path d="M1.7 12.8C1.2325 12.8 0.832151 12.6432 0.498951 12.3296C0.165751 12.016 -0.000565223 11.6395 1.44312e-06 11.2V1.6C1.44312e-06 1.16 0.166601 0.783201 0.499801 0.469601C0.833001 0.156001 1.23307 -0.000531975 1.7 1.35823e-06H15.3C15.7675 1.35823e-06 16.1678 0.156801 16.501 0.470401C16.8342 0.784001 17.0006 1.16053 17 1.6V11.2C17 11.64 16.8334 12.0168 16.5002 12.3304C16.167 12.644 15.7669 12.8005 15.3 12.8H1.7ZM8.5 7.2L1.7 3.2V11.2H15.3V3.2L8.5 7.2ZM8.5 5.6L15.3 1.6H1.7L8.5 5.6ZM1.7 3.2V1.6V11.2V3.2Z" fill="#010E87"/>
</svg>
