<svg width="14" height="14" viewBox="0 0 14 14" fill="none" xmlns="http://www.w3.org/2000/svg">
<path d="M7.46163 13.75C7.11638 13.75 6.82813 13.6344 6.59688 13.4031C6.36563 13.1719 6.25 12.8836 6.25 12.5384V7.46163C6.25 7.11638 6.36563 6.82813 6.59688 6.59688C6.82813 6.36563 7.11638 6.25 7.46163 6.25H12.5384C12.8836 6.25 13.1719 6.36563 13.4031 6.59688C13.6344 6.82813 13.75 7.11638 13.75 7.46163V12.5384C13.75 12.8836 13.6344 13.1719 13.4031 13.4031C13.1719 13.6344 12.8836 13.75 12.5384 13.75H7.46163ZM7.46163 13H12.5384C12.6539 13 12.7597 12.9519 12.8558 12.8558C12.9519 12.7597 13 12.6539 13 12.5384V7.46163C13 7.34613 12.9519 7.24031 12.8558 7.14419C12.7597 7.04806 12.6539 7 12.5384 7H7.46163C7.34613 7 7.24031 7.04806 7.14419 7.14419C7.04806 7.24031 7 7.34613 7 7.46163V12.5384C7 12.6539 7.04806 12.7597 7.14419 12.8558C7.24031 12.9519 7.34613 13 7.46163 13ZM3.25 10.9231V4.46163C3.25 4.11637 3.36563 3.82812 3.59688 3.59688C3.82812 3.36563 4.11637 3.25 4.46163 3.25H10.9231V4H4.46163C4.34613 4 4.24031 4.04806 4.14419 4.14419C4.04806 4.24031 4 4.34613 4 4.46163V10.9231H3.25ZM0.25 7.92306V1.46162C0.25 1.11637 0.365625 0.828125 0.596875 0.596875C0.828125 0.365625 1.11637 0.25 1.46162 0.25H7.92306V1H1.46162C1.34612 1 1.24031 1.04806 1.14419 1.14419C1.04806 1.24031 1 1.34612 1 1.46162V7.92306H0.25Z" fill="#4C505A"/>
</svg>
