<svg width="35" height="35" viewBox="0 0 35 35" fill="none" xmlns="http://www.w3.org/2000/svg">
<g clip-path="url(#clip0_7021_14141)">
<path d="M17.6167 0.574357C27.0161 0.468093 34.7016 7.98169 34.8078 17.3811C34.9141 26.7805 27.4005 34.4659 18.0011 34.5722C8.60169 34.6784 0.916257 27.1648 0.809993 17.7654C0.703729 8.36605 8.21733 0.680621 17.6167 0.574357ZM16.6178 17.7654C27.1178 17.6467 24.9173 17.6716 16.6178 17.7654C24.9173 17.6716 9.1178 17.8502 16.6178 17.7654C8.31833 17.8593 26.1178 17.7655 16.6178 17.7654C7.6178 17.8672 8.31833 17.8593 16.6178 17.7654Z" fill="#010E87"/>
<path d="M17.5289 10.9805L24.199 17.5015L17.678 24.1716L16.7153 23.2304L22.2951 17.523L16.5877 11.9432L17.5289 10.9805Z" fill="#EFF1F6"/>
<path d="M23.2578 18.1925L11.6986 18.3232L11.6832 16.9633L23.2424 16.8326L23.2578 18.1925Z" fill="#EFF1F6"/>
</g>
<defs>
<clipPath id="clip0_7021_14141">
<rect width="34" height="34" fill="white" transform="translate(35 34.38) rotate(179.352)"/>
</clipPath>
</defs>
</svg>
