<svg width="16" height="16" viewBox="0 0 16 16" fill="none" xmlns="http://www.w3.org/2000/svg">
<g clip-path="url(#clip0_3466_16700)">
<path d="M4.00065 3.9987H4.00732M4.00065 11.9987H4.00732M2.66732 1.33203H13.334C14.0704 1.33203 14.6673 1.92898 14.6673 2.66536V5.33203C14.6673 6.06841 14.0704 6.66536 13.334 6.66536H2.66732C1.93094 6.66536 1.33398 6.06841 1.33398 5.33203V2.66536C1.33398 1.92898 1.93094 1.33203 2.66732 1.33203ZM2.66732 9.33203H13.334C14.0704 9.33203 14.6673 9.92899 14.6673 10.6654V13.332C14.6673 14.0684 14.0704 14.6654 13.334 14.6654H2.66732C1.93094 14.6654 1.33398 14.0684 1.33398 13.332V10.6654C1.33398 9.92899 1.93094 9.33203 2.66732 9.33203Z" stroke="#101828" stroke-width="1.33333" stroke-linecap="round" stroke-linejoin="round"/>
</g>
<defs>
<clipPath id="clip0_3466_16700">
<rect width="16" height="16" fill="white"/>
</clipPath>
</defs>
</svg>
