<svg width="35" height="35" viewBox="0 0 35 35" fill="none" xmlns="http://www.w3.org/2000/svg">
<g clip-path="url(#clip0_7106_419)">
<path d="M17.6167 0.192155C27.0161 0.0858907 34.7016 7.59949 34.8078 16.9989C34.9141 26.3983 27.4005 34.0837 18.0011 34.19C8.60169 34.2962 0.916257 26.7826 0.809993 17.3832C0.703729 7.98385 8.21733 0.298418 17.6167 0.192155ZM17.9785 32.1901C26.2779 32.0963 32.9018 25.321 32.8079 17.0215C32.7141 8.72203 25.9388 2.0982 17.6393 2.19203C9.33987 2.28586 2.71604 9.06117 2.80987 17.3606C2.90369 25.6601 9.67901 32.2839 17.9785 32.1901Z" fill="#010E87"/>
<path d="M17.529 10.5983L24.1991 17.1193L17.6781 23.7894L16.7154 22.8482L22.2952 17.1408L16.5878 11.561L17.529 10.5983Z" fill="#010E87"/>
<path d="M23.2578 17.8103L11.6986 17.941L11.6832 16.5811L23.2424 16.4504L23.2578 17.8103Z" fill="#010E87"/>
</g>
<defs>
<clipPath id="clip0_7106_419">
<rect width="34" height="34" fill="white" transform="translate(35 33.9978) rotate(179.352)"/>
</clipPath>
</defs>
</svg>
