<svg width="16" height="16" viewBox="0 0 16 16" fill="none" xmlns="http://www.w3.org/2000/svg">
<path d="M9.7999 4.2C9.67775 4.32462 9.60933 4.49216 9.60933 4.66666C9.60933 4.84117 9.67775 5.00871 9.7999 5.13333L10.8666 6.2C10.9912 6.32215 11.1587 6.39057 11.3332 6.39057C11.5077 6.39057 11.6753 6.32215 11.7999 6.2L14.3132 3.68666C14.6485 4.42746 14.75 5.25282 14.6042 6.05276C14.4585 6.8527 14.0724 7.58923 13.4974 8.16418C12.9225 8.73914 12.1859 9.12522 11.386 9.27097C10.5861 9.41672 9.7607 9.31522 9.0199 8.98L4.41324 13.5867C4.14802 13.8519 3.78831 14.0009 3.41324 14.0009C3.03816 14.0009 2.67845 13.8519 2.41324 13.5867C2.14802 13.3214 1.99902 12.9617 1.99902 12.5867C1.99902 12.2116 2.14802 11.8519 2.41324 11.5867L7.0199 6.98C6.68468 6.2392 6.58318 5.41384 6.72893 4.6139C6.87468 3.81396 7.26076 3.07743 7.83572 2.50248C8.41067 1.92752 9.1472 1.54144 9.94714 1.39569C10.7471 1.24994 11.5724 1.35144 12.3132 1.68666L9.80657 4.19333L9.7999 4.2Z" stroke="#101828" stroke-linecap="round" stroke-linejoin="round"/>
</svg>
