<svg width="16" height="16" viewBox="0 0 16 16" fill="none" xmlns="http://www.w3.org/2000/svg">
<g clip-path="url(#clip0_2333_22403)">
<path d="M8.00016 1.33203C8.25016 1.33203 8.49683 1.34536 8.74016 1.3727C8.82718 1.38233 8.91146 1.409 8.98817 1.4512C9.06488 1.4934 9.13253 1.5503 9.18726 1.61864C9.24198 1.68699 9.28271 1.76544 9.30712 1.84952C9.33152 1.93361 9.33913 2.02168 9.3295 2.1087C9.31987 2.19572 9.29319 2.27999 9.25099 2.35671C9.20879 2.43342 9.15189 2.50107 9.08355 2.5558C9.01521 2.61052 8.93675 2.65125 8.85267 2.67565C8.76859 2.70006 8.68052 2.70766 8.5935 2.69803C7.49486 2.57513 6.38518 2.79666 5.41795 3.33198C4.45071 3.8673 3.67373 4.68996 3.19447 5.68616C2.71521 6.68236 2.55736 7.80288 2.74276 8.89271C2.92815 9.98254 3.44762 10.9878 4.22932 11.7695C5.01102 12.5512 6.01631 13.0707 7.10615 13.2561C8.19598 13.4415 9.3165 13.2836 10.3127 12.8044C11.3089 12.3251 12.1316 11.5481 12.6669 10.5809C13.2022 9.61368 13.4237 8.504 13.3008 7.40536C13.2912 7.31834 13.2988 7.23027 13.3232 7.14619C13.3476 7.06211 13.3883 6.98365 13.4431 6.91531C13.5536 6.77728 13.7144 6.68881 13.8902 6.66936C14.0659 6.64991 14.2422 6.70108 14.3802 6.8116C14.4486 6.86632 14.5055 6.93398 14.5477 7.01069C14.5899 7.0874 14.6165 7.17168 14.6262 7.2587C14.6528 7.50203 14.6668 7.7487 14.6668 7.9987C14.6668 11.6807 11.6822 14.6654 8.00016 14.6654C4.31816 14.6654 1.3335 11.6807 1.3335 7.9987C1.3335 4.3167 4.31816 1.33203 8.00016 1.33203ZM7.97883 5.25003C8.02277 5.42118 7.99696 5.60277 7.90708 5.7549C7.8172 5.90703 7.6706 6.01726 7.4995 6.06136C7.02941 6.18451 6.62019 6.47448 6.34819 6.87717C6.07619 7.27986 5.96 7.76776 6.0213 8.24983C6.0826 8.73189 6.3172 9.17519 6.68132 9.49699C7.04545 9.8188 7.51422 9.99712 8.00016 9.9987C8.44353 9.99851 8.87428 9.8511 9.2248 9.57961C9.57532 9.30812 9.82577 8.92793 9.93683 8.4987C9.98103 8.32746 10.0914 8.18079 10.2438 8.09096C10.3961 8.00113 10.5779 7.97549 10.7492 8.0197C10.9204 8.0639 11.0671 8.17432 11.1569 8.32666C11.2467 8.479 11.2724 8.66079 11.2282 8.83203C11.0236 9.61598 10.5407 10.2987 9.8696 10.7525C9.19848 11.2064 8.38507 11.4004 7.58134 11.2984C6.7776 11.1963 6.03852 10.8051 5.50217 10.1979C4.96581 9.59062 4.66888 8.80889 4.66683 7.9987C4.66694 7.25968 4.91254 6.54164 5.36505 5.95736C5.81756 5.37308 6.45134 4.95567 7.16683 4.7707C7.25162 4.74884 7.33988 4.74391 7.42658 4.75617C7.51328 4.76843 7.59672 4.79765 7.67212 4.84216C7.74752 4.88668 7.81342 4.94561 7.86605 5.01559C7.91867 5.08557 7.957 5.16524 7.97883 5.25003ZM12.3362 1.4167C12.4578 1.46715 12.5619 1.55252 12.6351 1.66204C12.7083 1.77155 12.7474 1.9003 12.7475 2.03203V3.25203H13.9668C14.0987 3.25206 14.2275 3.29117 14.3371 3.36443C14.4467 3.43769 14.5322 3.54179 14.5826 3.66359C14.6331 3.78539 14.6463 3.91942 14.6206 4.04872C14.5948 4.17802 14.5314 4.2968 14.4382 4.39003L12.0802 6.74536C11.9552 6.8704 11.7856 6.94066 11.6088 6.9407H10.0002L8.7815 8.16003C8.6564 8.28512 8.48674 8.3554 8.30983 8.3554C8.13292 8.3554 7.96326 8.28512 7.83816 8.16003C7.71307 8.03494 7.64279 7.86527 7.64279 7.68836C7.64279 7.51146 7.71307 7.34179 7.83816 7.2167L9.0575 5.9987V4.38936C9.05753 4.21257 9.1278 4.04303 9.25283 3.91803L11.6095 1.5607C11.7027 1.46741 11.8215 1.40387 11.9509 1.37812C12.0802 1.35237 12.2143 1.36556 12.3362 1.41603V1.4167ZM11.4142 3.64136L10.3908 4.66536V5.60803H11.3335L12.3575 4.5847H12.0808C11.904 4.5847 11.7344 4.51446 11.6094 4.38944C11.4844 4.26441 11.4142 4.09484 11.4142 3.91803V3.64136Z" fill="black"/>
</g>
<defs>
<clipPath id="clip0_2333_22403">
<rect width="16" height="16" fill="white"/>
</clipPath>
</defs>
</svg>
