<svg width="11" height="14" viewBox="0 0 11 14" fill="none" xmlns="http://www.w3.org/2000/svg">
<path d="M1.33333 14C0.966667 14 0.652778 13.8694 0.391667 13.6083C0.130556 13.3472 0 13.0333 0 12.6667V6C0 5.63333 0.130556 5.31944 0.391667 5.05833C0.652778 4.79722 0.966667 4.66667 1.33333 4.66667H2V3.33333C2 2.41111 2.325 1.625 2.975 0.975C3.625 0.325 4.41111 0 5.33333 0C6.25556 0 7.04167 0.325 7.69167 0.975C8.34167 1.625 8.66667 2.41111 8.66667 3.33333V4.66667H9.33333C9.7 4.66667 10.0139 4.79722 10.275 5.05833C10.5361 5.31944 10.6667 5.63333 10.6667 6V12.6667C10.6667 13.0333 10.5361 13.3472 10.275 13.6083C10.0139 13.8694 9.7 14 9.33333 14H1.33333ZM1.33333 12.6667H9.33333V6H1.33333V12.6667ZM6.275 10.275C6.53611 10.0139 6.66667 9.7 6.66667 9.33333C6.66667 8.96667 6.53611 8.65278 6.275 8.39167C6.01389 8.13056 5.7 8 5.33333 8C4.96667 8 4.65278 8.13056 4.39167 8.39167C4.13056 8.65278 4 8.96667 4 9.33333C4 9.7 4.13056 10.0139 4.39167 10.275C4.65278 10.5361 4.96667 10.6667 5.33333 10.6667C5.7 10.6667 6.01389 10.5361 6.275 10.275ZM3.33333 4.66667H7.33333V3.33333C7.33333 2.77778 7.13889 2.30556 6.75 1.91667C6.36111 1.52778 5.88889 1.33333 5.33333 1.33333C4.77778 1.33333 4.30556 1.52778 3.91667 1.91667C3.52778 2.30556 3.33333 2.77778 3.33333 3.33333V4.66667Z" fill="#1C1B1F"/>
</svg>
