<svg width="17" height="16" viewBox="0 0 17 16" fill="none" xmlns="http://www.w3.org/2000/svg">
<path d="M8.4575 12.8C8.755 12.8 9.0066 12.7032 9.2123 12.5096C9.418 12.316 9.52057 12.0795 9.52 11.8C9.52 11.52 9.41743 11.2832 9.2123 11.0896C9.00717 10.896 8.75557 10.7995 8.4575 10.8C8.16 10.8 7.90868 10.8968 7.70355 11.0904C7.49842 11.284 7.39557 11.5205 7.395 11.8C7.395 12.08 7.49785 12.3168 7.70355 12.5104C7.90925 12.704 8.16057 12.8005 8.4575 12.8ZM7.6925 9.72H9.265C9.265 9.28 9.31827 8.93333 9.4248 8.68C9.53133 8.42667 9.83223 8.08 10.3275 7.64C10.6958 7.29333 10.9862 6.9632 11.1987 6.6496C11.4113 6.336 11.5175 5.95947 11.5175 5.52C11.5175 4.77333 11.2271 4.2 10.6462 3.8C10.0654 3.4 9.37833 3.2 8.585 3.2C7.7775 3.2 7.12215 3.4 6.61895 3.8C6.11575 4.2 5.76527 4.68 5.5675 5.24L6.97 5.76C7.04083 5.52 7.20035 5.26 7.44855 4.98C7.69675 4.7 8.07557 4.56 8.585 4.56C9.03833 4.56 9.37833 4.6768 9.605 4.9104C9.83167 5.144 9.945 5.40053 9.945 5.68C9.945 5.94667 9.86 6.1968 9.69 6.4304C9.52 6.664 9.3075 6.88053 9.0525 7.08C8.42917 7.6 8.04667 7.99333 7.905 8.26C7.76333 8.52667 7.6925 9.01333 7.6925 9.72ZM8.5 16C7.32417 16 6.21917 15.7899 5.185 15.3696C4.15083 14.9493 3.25125 14.3795 2.48625 13.66C1.72125 12.94 1.11577 12.0933 0.6698 11.12C0.223833 10.1467 0.000566667 9.10667 0 8C0 6.89333 0.223267 5.85333 0.6698 4.88C1.11633 3.90667 1.72182 3.06 2.48625 2.34C3.25125 1.62 4.15083 1.05013 5.185 0.6304C6.21917 0.210667 7.32417 0.000533333 8.5 0C9.67583 0 10.7808 0.210133 11.815 0.6304C12.8492 1.05067 13.7487 1.62053 14.5138 2.34C15.2787 3.06 15.8845 3.90667 16.331 4.88C16.7776 5.85333 17.0006 6.89333 17 8C17 9.10667 16.7767 10.1467 16.3302 11.12C15.8837 12.0933 15.2782 12.94 14.5138 13.66C13.7487 14.38 12.8492 14.9501 11.815 15.3704C10.7808 15.7907 9.67583 16.0005 8.5 16ZM8.5 14.4C10.3983 14.4 12.0062 13.78 13.3237 12.54C14.6412 11.3 15.3 9.78667 15.3 8C15.3 6.21333 14.6412 4.7 13.3237 3.46C12.0062 2.22 10.3983 1.6 8.5 1.6C6.60167 1.6 4.99375 2.22 3.67625 3.46C2.35875 4.7 1.7 6.21333 1.7 8C1.7 9.78667 2.35875 11.3 3.67625 12.54C4.99375 13.78 6.60167 14.4 8.5 14.4Z" fill="black"/>
</svg>
