<svg xmlns="http://www.w3.org/2000/svg" version="1.1" xmlns:xlink="http://www.w3.org/1999/xlink" width="512" height="512" x="0" y="0" viewBox="0 0 24 24" style="enable-background:new 0 0 512 512" xml:space="preserve" class=""><g><path d="m20 8.6-8.38 8.38c-.29.29-.67.47-1.08.51l-2.93.27H7.5c-.33 0-.65-.13-.88-.37-.26-.26-.39-.63-.36-1l.27-2.93c.04-.41.22-.79.51-1.08L15.4 4zm1.94-5.83-.71-.71a2.758 2.758 0 0 0-3.89 0l-.88.88 4.6 4.6.88-.88a2.732 2.732 0 0 0 0-3.88zm-1.19 16.24V13.2c0-.41-.34-.75-.75-.75s-.75.34-.75.75v5.81c0 1.24-1.01 2.25-2.25 2.25H5c-1.24 0-2.25-1.01-2.25-2.25V7c0-1.24 1.01-2.25 2.25-2.25h5.81c.41 0 .75-.34.75-.75s-.34-.75-.75-.75H5C2.93 3.25 1.25 4.93 1.25 7v12c0 2.07 1.68 3.75 3.75 3.75h12c2.07 0 3.75-1.68 3.75-3.75z" fill="#3d4db6" opacity="1" data-original="#000000" class=""></path></g></svg>