<svg width="16" height="17" viewBox="0 0 16 17" fill="none" xmlns="http://www.w3.org/2000/svg">
<path d="M8.96175 16.5H7.03902C6.93106 16.5 6.82752 16.4571 6.75118 16.3808C6.67484 16.3044 6.63195 16.2009 6.63195 16.0929V14.7748C5.88557 14.6116 5.17419 14.3168 4.53108 13.9043L3.59928 14.8361C3.56148 14.8739 3.5166 14.9039 3.46721 14.9243C3.41782 14.9448 3.36488 14.9553 3.31142 14.9553C3.25796 14.9553 3.20502 14.9448 3.15563 14.9243C3.10624 14.9039 3.06136 14.8739 3.02356 14.8361L1.66395 13.4765C1.62615 13.4387 1.59616 13.3938 1.5757 13.3444C1.55524 13.295 1.54471 13.2421 1.54471 13.1886C1.54471 13.1352 1.55524 13.0822 1.5757 13.0328C1.59616 12.9834 1.62615 12.9386 1.66395 12.9008L2.59575 11.969C2.18331 11.326 1.88854 10.6149 1.7252 9.86871H0.40707C0.299109 9.86871 0.195569 9.82582 0.119228 9.74948C0.0428876 9.67314 0 9.5696 0 9.46164V7.53894C0 7.43098 0.0428876 7.32744 0.119228 7.2511C0.195569 7.17476 0.299109 7.13187 0.40707 7.13187H1.7252C1.88847 6.3855 2.18325 5.67413 2.59575 5.03103L1.66395 4.09923C1.62615 4.06143 1.59616 4.01656 1.5757 3.96717C1.55524 3.91778 1.54471 3.86484 1.54471 3.81138C1.54471 3.75792 1.55524 3.70498 1.5757 3.65559C1.59616 3.6062 1.62615 3.56133 1.66395 3.52353L3.02356 2.16393C3.06136 2.12613 3.10624 2.09614 3.15563 2.07568C3.20502 2.05522 3.25796 2.04469 3.31142 2.04469C3.36488 2.04469 3.41782 2.05522 3.46721 2.07568C3.5166 2.09614 3.56148 2.12613 3.59928 2.16393L4.53108 3.09572C5.17419 2.68322 5.88557 2.38845 6.63195 2.22518V0.907066C6.63195 0.799105 6.67484 0.695566 6.75118 0.619227C6.82752 0.542887 6.93106 0.5 7.03902 0.5H8.96175C9.06971 0.5 9.17325 0.542887 9.24959 0.619227C9.32594 0.695566 9.36882 0.799105 9.36882 0.907066V2.22518C10.1152 2.38845 10.8266 2.68322 11.4697 3.09572L12.4015 2.16393C12.4393 2.12613 12.4842 2.09614 12.5336 2.07568C12.583 2.05522 12.6359 2.04469 12.6894 2.04469C12.7428 2.04469 12.7958 2.05522 12.8451 2.07568C12.8945 2.09614 12.9394 2.12613 12.9772 2.16393L14.3368 3.52353C14.3746 3.56133 14.4046 3.6062 14.4251 3.65559C14.4455 3.70498 14.4561 3.75792 14.4561 3.81138C14.4561 3.86484 14.4455 3.91778 14.4251 3.96717C14.4046 4.01656 14.3746 4.06143 14.3368 4.09923L13.405 5.03103C13.8173 5.67424 14.1118 6.38567 14.2748 7.13207H15.5929C15.7009 7.13207 15.8044 7.17495 15.8808 7.25129C15.9571 7.32763 16 7.43117 16 7.53913V9.46164C16 9.5696 15.9571 9.67314 15.8808 9.74948C15.8044 9.82582 15.7009 9.86871 15.5929 9.86871H14.2748C14.1115 10.6151 13.8167 11.3265 13.4042 11.9696L14.3361 12.9013C14.3739 12.9391 14.4038 12.984 14.4243 13.0334C14.4448 13.0828 14.4553 13.1357 14.4553 13.1892C14.4553 13.2427 14.4448 13.2956 14.4243 13.345C14.4038 13.3944 14.3739 13.4393 14.3361 13.4771L12.9764 14.8367C12.9386 14.8745 12.8938 14.9044 12.8444 14.9249C12.795 14.9454 12.742 14.9559 12.6886 14.9559C12.6351 14.9559 12.5822 14.9454 12.5328 14.9249C12.4834 14.9044 12.4385 14.8745 12.4007 14.8367L11.4689 13.9049C10.8258 14.3174 10.1144 14.6121 9.36805 14.7754V16.0935C9.36789 16.2012 9.32504 16.3045 9.24889 16.3807C9.17273 16.4569 9.06948 16.4998 8.96175 16.5ZM7.44609 15.6859H8.55468V14.4385C8.5547 14.3417 8.58919 14.2482 8.65195 14.1745C8.71472 14.1009 8.80167 14.052 8.8972 14.0367C9.75799 13.8969 10.5744 13.5585 11.2815 13.0481C11.3599 12.9914 11.456 12.9646 11.5524 12.9723C11.6488 12.9801 11.7394 13.0219 11.8078 13.0903L12.6901 13.9725L13.474 13.1886L12.5917 12.3063C12.5233 12.2379 12.4815 12.1474 12.4738 12.051C12.4661 11.9546 12.493 11.8586 12.5496 11.7802C13.0599 11.0731 13.3984 10.2567 13.5382 9.39593C13.5535 9.3004 13.6024 9.21345 13.676 9.15069C13.7497 9.08792 13.8433 9.05343 13.94 9.05341H15.1859V7.94484H13.9385C13.8417 7.94482 13.7481 7.91034 13.6745 7.84757C13.6009 7.7848 13.552 7.69786 13.5366 7.60232C13.3969 6.74153 13.0584 5.92517 12.548 5.21808C12.4914 5.13967 12.4645 5.04364 12.4722 4.9472C12.4799 4.85076 12.5217 4.76022 12.5901 4.69181L13.4725 3.80944L12.6886 3.02555L11.8062 3.90791C11.7378 3.97632 11.6472 4.01813 11.5508 4.02583C11.4544 4.03354 11.3583 4.00665 11.2799 3.94998C10.5728 3.43961 9.75644 3.10112 8.89565 2.96139C8.80012 2.94605 8.71317 2.89718 8.6504 2.82354C8.58764 2.7499 8.55315 2.65632 8.55313 2.55956V1.3151H7.44454V2.56246C7.44452 2.65922 7.41004 2.75281 7.34727 2.82645C7.2845 2.90008 7.19756 2.94896 7.10202 2.9643C6.24124 3.10406 5.42488 3.44254 4.71775 3.95289C4.63936 4.00951 4.54336 4.03637 4.44697 4.02866C4.35057 4.02095 4.26006 3.97918 4.19166 3.91082L3.30929 3.02846L2.52791 3.81158L3.40989 4.69316C3.4783 4.76158 3.52011 4.85212 3.52781 4.94856C3.53552 5.045 3.50863 5.14103 3.45196 5.21944C2.94155 5.92653 2.60306 6.74289 2.46336 7.60368C2.44801 7.69921 2.39914 7.78616 2.32551 7.84893C2.25187 7.91169 2.15828 7.94618 2.06152 7.9462H0.814916V9.05458H2.06268C2.15944 9.0546 2.25303 9.08908 2.32667 9.15185C2.4003 9.21462 2.44918 9.30156 2.46452 9.3971C2.60428 10.2579 2.94277 11.0742 3.45312 11.7813C3.50974 11.8597 3.5366 11.9557 3.5289 12.0521C3.52119 12.1485 3.47942 12.239 3.41106 12.3074L2.52791 13.1894L3.31181 13.9733L4.19418 13.0911C4.26256 13.0227 4.35305 12.9809 4.44945 12.9732C4.54585 12.9654 4.64185 12.9923 4.72027 13.0489C5.4274 13.5592 6.24376 13.8977 7.10454 14.0374C7.20008 14.0528 7.28702 14.1017 7.34979 14.1753C7.41256 14.2489 7.44704 14.3425 7.44706 14.4393L7.44609 15.6859Z" fill="#A959EA"/>
<path d="M8.00053 12.3215C5.89365 12.3215 4.17969 10.6075 4.17969 8.50068C4.17969 6.39382 5.89365 4.67969 8.00053 4.67969C10.1074 4.67969 11.8216 6.39382 11.8216 8.50068C11.8216 10.6075 10.1074 12.3215 8.00053 12.3215ZM8.00053 5.49382C6.34259 5.49382 4.99383 6.84276 4.99383 8.50068C4.99383 10.1586 6.34259 11.5073 8.00053 11.5073C9.65847 11.5073 11.0074 10.1586 11.0074 8.50068C11.0074 6.84276 9.65867 5.49382 8.00053 5.49382Z" fill="#A959EA"/>
</svg>
