<svg width="14" height="14" viewBox="0 0 14 14" fill="none" xmlns="http://www.w3.org/2000/svg">
<path d="M3.20841 10.7917H8.79175V9.70832H3.20841V10.7917ZM3.20841 7.54166H10.7917V6.45832H3.20841V7.54166ZM3.20841 4.29166H10.7917V3.20832H3.20841V4.29166ZM1.75654 13.5833C1.3814 13.5833 1.06432 13.4538 0.80529 13.1948C0.546262 12.9358 0.416748 12.6187 0.416748 12.2435V1.75645C0.416748 1.38131 0.546262 1.06423 0.80529 0.805199C1.06432 0.546171 1.3814 0.416656 1.75654 0.416656H12.2436C12.6188 0.416656 12.9358 0.546171 13.1949 0.805199C13.4539 1.06423 13.5834 1.38131 13.5834 1.75645V12.2435C13.5834 12.6187 13.4539 12.9358 13.1949 13.1948C12.9358 13.4538 12.6188 13.5833 12.2436 13.5833H1.75654ZM1.75654 12.5H12.2436C12.3078 12.5 12.3665 12.4733 12.4199 12.4198C12.4733 12.3664 12.5001 12.3077 12.5001 12.2435V1.75645C12.5001 1.69228 12.4733 1.63353 12.4199 1.5802C12.3665 1.52673 12.3078 1.49999 12.2436 1.49999H1.75654C1.69237 1.49999 1.63362 1.52673 1.58029 1.5802C1.52682 1.63353 1.50008 1.69228 1.50008 1.75645V12.2435C1.50008 12.3077 1.52682 12.3664 1.58029 12.4198C1.63362 12.4733 1.69237 12.5 1.75654 12.5Z" fill="#020A20"/>
</svg>
