<?xml version="1.0" encoding="UTF-8"?>
<svg width="298px" height="40px" viewBox="0 0 298 40" version="1.1" xmlns="http://www.w3.org/2000/svg" xmlns:xlink="http://www.w3.org/1999/xlink">
    <!-- Generator: sketchtool 63.1 (101010) - https://sketch.com -->
    <title>64ECF518-9549-4B34-9D46-0F9079C7096F</title>
    <desc>Created with sketchtool.</desc>
    <g id="!_Backoffice" stroke="none" stroke-width="1" fill="none" fill-rule="evenodd">
        <g id="Backoffice-service-item---add-new-offer---select" transform="translate(-835.000000, -356.000000)">
            <g id="no_paramters_image" transform="translate(835.000000, 356.000000)">
                <g>
                    <rect id="Rectangle" stroke-opacity="0.1" stroke="#1C313A" stroke-width="2" x="1" y="10" width="128" height="21" rx="2"></rect>
                    <path d="M296,1 C297.104569,1 298,1.8954305 298,3 L298,37 C298,38.1045695 297.104569,39 296,39 L170,39 C168.895431,39 168,38.1045695 168,37 L168,3 C168,1.8954305 168.895431,1 170,1 L296,1 Z M296,3 L170,3 L170,37 L296,37 L296,3 Z M204,29 L204,32 L176,32 L176,29 L204,29 Z M237,29 L237,32 L209,32 L209,29 L237,29 Z M288,22 L288,25 L176,25 L176,22 L288,22 Z M288,15 L288,18 L176,18 L176,15 L288,15 Z M225,8 L225,11 L176,11 L176,8 L225,8 Z" id="Combined-Shape" fill-opacity="0.1" fill="#1C313A" fill-rule="nonzero"></path>
                    <path d="M149.999799,31.9030865 L150,40 L148,40 L147.999206,31.9892918 C148.165249,31.9964064 148.332205,32 148.5,32 C149.00831,32 149.508917,31.9670212 149.999799,31.9030865 Z M150,-8.12683254e-14 L149.999799,9.09691352 C149.508917,9.03297881 149.00831,9 148.5,9 C148.332205,9 148.165249,9.00359365 147.999206,9.01070818 L148,-8.12683254e-14 L150,-8.12683254e-14 Z" id="Combined-Shape" fill-opacity="0.05" fill="#1C313A" fill-rule="nonzero"></path>
                    <circle id="Oval-Copy" stroke="#F3F4F5" cx="148.5" cy="20.5" r="11.5"></circle>
                    <path d="M149.455932,24.7878122 L143.225371,18.9210563 C142.924876,18.6381091 142.924876,18.1793801 143.225371,17.896463 L143.952066,17.2122034 C144.252048,16.9297391 144.738232,16.9291958 145.038919,17.2109959 L150.000016,21.860502 L154.961081,17.2109959 C155.261768,16.9291958 155.747952,16.9297391 156.047934,17.2122034 L156.774629,17.896463 C157.075124,18.1794103 157.075124,18.6381393 156.774629,18.9210563 L150.5441,24.7878122 C150.243605,25.0707293 149.756427,25.0707293 149.455932,24.7878122 Z" id="Path" fill="#1C313A" fill-rule="nonzero" opacity="0.100000001" transform="translate(150.000000, 21.000000) rotate(-90.000000) translate(-150.000000, -21.000000) "></path>
                </g>
            </g>
        </g>
    </g>
</svg>