<?xml version="1.0" encoding="UTF-8"?>
<svg width="520px" height="350px" viewBox="0 0 520 350" version="1.1" xmlns="http://www.w3.org/2000/svg" xmlns:xlink="http://www.w3.org/1999/xlink">
    <!-- Generator: Sketch 61 (89581) - https://sketch.com -->
    <title>ilustracja</title>
    <desc>Created with Sketch.</desc>
    <defs>
        <linearGradient x1="50%" y1="100%" x2="78.6014834%" y2="-18.6873982%" id="linearGradient-1">
            <stop stop-color="#FFFFFF" offset="0%"></stop>
            <stop stop-color="#FFCD00" offset="100%"></stop>
        </linearGradient>
        <filter x="-8.9%" y="-57.7%" width="117.8%" height="215.4%" filterUnits="objectBoundingBox" id="filter-2">
            <feGaussianBlur stdDeviation="5" in="SourceGraphic"></feGaussianBlur>
        </filter>
        <filter x="-9.4%" y="-16.4%" width="118.8%" height="132.8%" filterUnits="objectBoundingBox" id="filter-3">
            <feGaussianBlur stdDeviation="10" in="SourceGraphic"></feGaussianBlur>
        </filter>
        <linearGradient x1="37.831589%" y1="0%" x2="62.168411%" y2="100%" id="linearGradient-4">
            <stop stop-color="#05CAE7" offset="0%"></stop>
            <stop stop-color="#0C2BD5" offset="100%"></stop>
        </linearGradient>
        <linearGradient x1="50%" y1="26.4988544%" x2="50%" y2="100%" id="linearGradient-5">
            <stop stop-color="#FEC67E" offset="0%"></stop>
            <stop stop-color="#FA7474" offset="100%"></stop>
        </linearGradient>
        <path d="M58.1509434,1.05997403e-13 C86.5031447,2.3196347 100.679245,3.47945205 100.679245,3.47945205 C100.679245,3.38053947 100.678712,3.28145303 100.677648,3.18219562 C111.40052,32.1606656 118.037736,72.2591345 118.037736,116.561644 C118.037736,166.297558 109.672667,210.735003 96.5498502,240.091195 C84.8854118,237.835948 72.2348939,236.60274 59.0188679,236.60274 C45.8029932,236.60274 33.1526136,237.83592 21.4870958,240.088684 C8.36506478,210.734984 0,166.297547 0,116.561644 C0,72.7026672 6.5049846,32.9639752 17.0412382,4.05410125 L17.361,3.182 L17.3584906,3.47945205 C17.9371069,3.47945205 31.5345912,2.3196347 58.1509434,1.05997403e-13 Z" id="path-6"></path>
        <linearGradient x1="49.5485043%" y1="0%" x2="50.4514957%" y2="100%" id="linearGradient-8">
            <stop stop-color="#05CAE7" offset="0%"></stop>
            <stop stop-color="#0C2BD5" offset="100%"></stop>
        </linearGradient>
        <linearGradient x1="50%" y1="50%" x2="0%" y2="50%" id="linearGradient-9">
            <stop stop-color="#05CAE7" offset="0%"></stop>
            <stop stop-color="#06B9E5" offset="31.8976974%"></stop>
            <stop stop-color="#0C2BD5" offset="100%"></stop>
        </linearGradient>
        <linearGradient x1="0%" y1="22.528521%" x2="100%" y2="77.471479%" id="linearGradient-10">
            <stop stop-color="#FFCD00" offset="0%"></stop>
            <stop stop-color="#05CAE7" offset="0%"></stop>
            <stop stop-color="#0C2BD5" offset="100%"></stop>
        </linearGradient>
        <path d="M40.7924528,0 C48.6037736,0 83.3207547,36.5342466 83.3207547,61.760274 C83.3207547,61.760274 69.1446541,60.6004566 40.7924528,58.2808219 C14.1761006,60.6004566 0.578616352,61.760274 0,61.760274 C0,36.5342466 32.9811321,0 40.7924528,0 Z" id="path-11"></path>
        <filter x="-6.5%" y="-8.6%" width="113.0%" height="117.1%" filterUnits="objectBoundingBox" id="filter-13">
            <feGaussianBlur stdDeviation="4" in="SourceGraphic"></feGaussianBlur>
        </filter>
    </defs>
    <g id="!_Aktualny" stroke="none" stroke-width="1" fill="none" fill-rule="evenodd">
        <g id="Order:-Service-type---order-externally" transform="translate(-855.000000, -303.000000)">
            <g id="ilustracja" transform="translate(855.000000, 279.000000)">
                <path d="M43.5,52.9266999 C53.1649831,52.9266999 61,60.7617168 61,70.4266999 C61,79.8389066 53.5694554,87.5156165 44.2544668,87.9107293 C44.1713549,87.9212319 44.086316,87.9266999 44,87.9266999 L13,87.9266999 C12.5310877,87.9266999 12.0998659,87.7653276 11.7588401,87.4950884 C10.890161,87.775537 9.96273348,87.9266999 9,87.9266999 C4.02943725,87.9266999 0,83.8972627 0,78.9266999 C0,74.2587438 3.55374941,70.4208104 8.1033413,69.9708065 C8.03507944,69.4670041 8,68.9509486 8,68.4266999 C8,62.0754253 13.1487254,56.9266999 19.5,56.9266999 C23.1726836,56.9266999 26.4432542,58.6483504 28.548677,61.3286165 C31.6200664,56.2904868 37.1672059,52.9266999 43.5,52.9266999 Z" id="Combined-Shape" fill="#FFFFFF" transform="translate(30.500000, 70.426700) scale(-1, 1) translate(-30.500000, -70.426700) "></path>
                <circle id="Oval" fill="url(#linearGradient-1)" cx="247" cy="140" r="116"></circle>
                <path d="M101,114 C119.777681,114 135,129.222319 135,148 C135,165.453252 121.849278,179.834988 104.916133,181.776911 C104.642404,181.919802 104.330568,182 104,182 L40,182 C39.3846102,182 38.834136,181.722063 38.4672583,181.28487 C36.8927211,181.750265 35.225525,182 33.5,182 C23.8350169,182 16,174.164983 16,164.5 C16,155.291389 23.1125615,147.744005 32.1437577,147.051776 C32.0485866,146.214656 32,145.363002 32,144.5 C32,132.073593 42.0735931,122 54.5,122 C61.5458192,122 67.8352247,125.238592 71.9608121,130.308372 C77.9309829,120.528085 88.7031335,114 101,114 Z" id="Combined-Shape" fill="#F5FBFF" transform="translate(75.500000, 148.000000) scale(-1, 1) translate(-75.500000, -148.000000) "></path>
                <path d="M193,75 C195.209139,75 197,76.790861 197,79 C197,81.209139 195.209139,83 193,83 L54,83 C51.790861,83 50,81.209139 50,79 C50,76.790861 51.790861,75 54,75 L193,75 Z M202,66 C204.209139,66 206,67.790861 206,70 C206,72.209139 204.209139,74 202,74 L63,74 C60.790861,74 59,72.209139 59,70 C59,67.790861 60.790861,66 63,66 L202,66 Z M215,57 C217.209139,57 219,58.790861 219,61 C219,63.209139 217.209139,65 215,65 L76,65 C73.790861,65 72,63.209139 72,61 C72,58.790861 73.790861,57 76,57 L215,57 Z" id="Combined-Shape" fill="#FFFFFF" filter="url(#filter-2)"></path>
                <path d="M308.5,295.9267 C318.164983,295.9267 326,303.761717 326,313.4267 C326,322.838907 318.569455,330.515617 309.254467,330.910729 C309.171355,330.921232 309.086316,330.9267 309,330.9267 L278,330.9267 C277.531088,330.9267 277.099866,330.765328 276.75884,330.495088 C275.890161,330.775537 274.962733,330.9267 274,330.9267 C269.029437,330.9267 265,326.897263 265,321.9267 C265,317.258744 268.553749,313.42081 273.103341,312.970807 C273.035079,312.467004 273,311.950949 273,311.4267 C273,305.075425 278.148725,299.9267 284.5,299.9267 C288.172684,299.9267 291.443254,301.64835 293.548677,304.328616 C296.620066,299.290487 302.167206,295.9267 308.5,295.9267 Z" id="Combined-Shape" fill="#F5FBFF" transform="translate(295.500000, 313.426700) scale(-1, 1) translate(-295.500000, -313.426700) "></path>
                <path d="M326.5,166 C377.034055,166 418,206.965945 418,257.5 C418,303.551407 383.979515,341.656904 339.700162,348.054874 C339.347361,348.621812 338.717846,349 338,349 L159,349 C158.046776,349 157.249306,348.333138 157.048667,347.440492 C153.203746,348.458201 149.165145,349 145,349 C119.042617,349 98,327.957383 98,302 C98,277.266759 117.10469,256.995657 141.362057,255.138707 C141.12217,252.959462 141,250.743998 141,248.5 C141,215.086773 168.086773,188 201.5,188 C220.323404,188 237.139011,196.596403 248.235118,210.077505 C264.277631,183.652928 293.327284,166 326.5,166 Z" id="Combined-Shape" fill="#F5FBFF" filter="url(#filter-3)" transform="translate(258.000000, 257.500000) scale(-1, 1) translate(-258.000000, -257.500000) "></path>
                <g id="rocket" transform="translate(208.000000, 197.500000) rotate(47.000000) translate(-208.000000, -197.500000) translate(116.000000, 7.000000)">
                    <g id="rakieta">
                        <path d="M119.773585,173.972603 C155.378575,213.901105 175.05153,236.807498 178.792453,242.691781 C182.533375,248.576064 183.690608,258.434511 182.264151,272.267123 L178.792453,301.842466 C166.078365,290.082396 156.241887,282.253629 149.283019,278.356164 C142.324151,274.4587 132.487673,271.269202 119.773585,268.787671 L119.773585,173.972603 Z" id="Rectangle" fill="url(#linearGradient-4)"></path>
                        <path d="M0,173.972603 C35.6049896,213.901105 55.2779456,236.807498 59.0188679,242.691781 C62.7597903,248.576064 63.917023,258.434511 62.490566,272.267123 L59.0188679,301.842466 C46.3047801,290.082396 36.4683021,282.253629 29.509434,278.356164 C22.5505658,274.4587 12.7140878,271.269202 0,268.787671 L0,173.972603 Z" id="Rectangle" fill="url(#linearGradient-4)" transform="translate(31.540613, 237.907534) scale(-1, 1) translate(-31.540613, -237.907534) "></path>
                        <path d="M90.3941426,238.342466 C98.396058,238.342466 105.386289,249.645719 109.148032,266.467415 C116.545365,266.505942 124.207973,281.06445 126.499134,299.766109 C128.864117,319.070397 124.243199,329.678082 121.639426,340.116438 C120.291002,325.926364 114.608611,322.860229 111.030677,313.149497 C107.969774,341.525827 98.8048297,373.175323 90.3941426,381 C82.4062891,373.101845 72.8215163,340.92931 69.7185739,312.350449 C66.1552653,320.426876 61.2387509,324.061254 59.9970882,337.127831 C57.3933146,326.689475 52.7723964,316.08179 55.1373795,296.777501 C57.4149989,278.186376 65.0007589,263.689571 72.3575475,263.480554 C76.250339,248.321172 82.8756748,238.342466 90.3941426,238.342466 Z" id="Combined-Shape" fill="url(#linearGradient-5)"></path>
                        <path d="M91.1320755,340.986301 C98.1259453,334.685099 105.886792,304.92196 105.886792,284.328626 C105.886792,263.735292 99.2808806,247.041096 91.1320755,247.041096 C82.9832703,247.041096 76.3773585,263.735292 76.3773585,284.328626 C76.3773585,304.92196 84.5516057,334.685099 91.1320755,340.986301 Z" id="Oval" fill="#FEEEB9"></path>
                        <g id="Oval" transform="translate(31.245283, 52.191781)">
                            <mask id="mask-7" fill="white">
                                <use xlink:href="#path-6"></use>
                            </mask>
                            <use id="Mask" fill="#F5FBFF" xlink:href="#path-6"></use>
                            <path d="M100.679245,340.986301 C118.894222,340.986301 118.037736,231.783723 118.037736,103.513699 C118.037736,-24.7563259 103.27158,-128.739726 85.0566038,-128.739726 C66.8416275,-128.739726 55.5471698,-23.4863014 59.8867925,103.513699 C64.2264151,230.513699 82.464269,340.986301 100.679245,340.986301 Z" fill="#1C313A" style="mix-blend-mode: multiply;" opacity="0.0563848586" mask="url(#mask-7)"></path>
                        </g>
                        <ellipse id="Oval" fill="#FFFFFF" cx="92.8679245" cy="133.089041" rx="21.6981132" ry="21.7465753"></ellipse>
                        <path d="M90.3287241,193.109589 L93.6712633,193.109589 C94.196558,193.109577 94.6323114,193.516002 94.6688528,194.040025 C96.3613157,218.310796 97.2075472,236.267774 97.2075472,247.910959 C97.2075472,259.554142 96.3613159,277.511117 94.6688535,301.781884 C94.6323209,302.305905 94.196569,302.712329 93.6712759,302.712329 L90.3287367,302.712329 C89.803442,302.712341 89.3676886,302.305915 89.3311472,301.781893 C87.6386843,277.511122 86.7924528,259.554144 86.7924528,247.910959 C86.7924528,236.267776 87.6386841,218.310801 89.3311465,194.040034 C89.3676791,193.516013 89.803431,193.109589 90.3287241,193.109589 Z" id="Rectangle" fill="url(#linearGradient-8)"></path>
                        <g id="glowa" transform="translate(91.580420, 135.952011) rotate(-67.000000) translate(-91.580420, -135.952011) translate(70.750231, 115.075299)">
                            <path d="M27.9588938,27.7776943 L30.9875197,27.7776943 C32.0920903,27.7776924 32.9875216,28.6731237 32.9875216,29.7776943 C32.9875216,29.9115027 32.9740932,30.0449734 32.9474382,30.1761001 C32.7027584,31.3797783 32.5804185,32.3200357 32.5804185,32.9968723 C32.5804185,33.9460301 36.0348008,35.7415244 36.5159804,37.7267525 C36.5159804,37.727066 35.5960314,37.8766463 33.7561333,38.1754936 C33.590386,38.2024365 33.4219047,38.2083771 33.2546695,38.1931959 L27.4048308,37.6621606 C26.304798,37.562281 25.4939951,36.5895752 25.5938538,35.4895404 C25.6281546,35.1116851 25.769228,34.7513814 26.0006056,34.4506896 C26.3654274,33.9765773 26.5523335,33.546338 26.5613238,33.1599717 C26.5763716,32.5132807 26.4026727,31.5740368 26.0402271,30.3422399 C25.7284402,29.2825909 26.3346967,28.1708195 27.3943441,27.8590273 C27.5776752,27.8050838 27.7677913,27.7776943 27.9588938,27.7776943 Z" id="Rectangle" fill="#F2D4B6"></path>
                            <path d="M34.6219531,31.5513465 C40.6039846,25.8756679 38.7997967,25.8804514 35.449859,14.1086736 C32.0999214,2.3368958 27.1821883,8.83751961 20.8537022,10.3248879 C14.5252162,11.8122561 13.079878,12.4485663 15.0839021,19.0087609 C17.0879263,25.5689556 18.3508275,29.239033 34.6219531,31.5513465 Z" id="Oval" fill="#FFE2C6"></path>
                            <path d="M37.6247381,14.3553433 C22.9413612,11.3593873 17.1832323,13.0594924 20.3503513,19.4556587 C25.1010299,29.0499081 33.8465419,36.7170813 27.3332635,36.6931988 C17.5656439,27.7539356 13.7659582,25.6564245 5.16921841,26.8716581 C3.96591926,18.2596428 8.41934824,6.21335936 20.8706274,4.29588594 C29.1714801,3.01757033 34.7561837,6.37072277 37.6247381,14.3553433 Z" id="Path-10" fill="#1C313A" transform="translate(21.302355, 20.362234) rotate(-15.000000) translate(-21.302355, -20.362234) "></path>
                        </g>
                        <ellipse id="Oval" stroke="url(#linearGradient-9)" stroke-width="4" cx="91.1320755" cy="133.089041" rx="21.6981132" ry="21.7465753"></ellipse>
                        <g id="Oval" transform="translate(48.603774, 0.000000)">
                            <mask id="mask-12" fill="white">
                                <use xlink:href="#path-11"></use>
                            </mask>
                            <use id="Mask" fill="url(#linearGradient-10)" xlink:href="#path-11"></use>
                            <path d="M69.4339623,367.082192 C87.6489385,367.082192 102.415094,263.098792 102.415094,134.828767 C102.415094,6.5587426 87.6489385,-97.4246575 69.4339623,-97.4246575 C51.218986,-97.4246575 41.6603774,-57.8111204 41.6603774,70.4589041 C41.6603774,198.728929 51.218986,367.082192 69.4339623,367.082192 Z" fill="#F9FCFE" style="mix-blend-mode: overlay;" opacity="0.547758557" mask="url(#mask-12)"></path>
                        </g>
                    </g>
                </g>
                <path d="M457,165.4267 C457,184.480524 441.329966,199.9267 422,199.9267 C402.670034,199.9267 387,184.480524 387,165.4267 C387,165.25952 387.001206,165.092618 387.003611,164.926002 L361.733712,164.9267 C361.029508,164.926709 360.40143,164.560419 360.044271,163.9976 C357.799805,164.603667 355.437627,164.9267 353,164.9267 C338.088312,164.9267 326,152.838388 326,137.9267 C326,123.015012 338.088312,110.9267 353,110.9267 C357.235157,110.9267 361.242567,111.901804 364.809968,113.639752 C368.192784,106.736547 372.923143,100.998811 379,96.4266999 C387.700695,89.8804627 399.161684,85.7237338 413.382967,83.9565131 C422.732864,69.4967672 438.998827,59.9266999 457.5,59.9266999 C486.494949,59.9266999 510,83.4317506 510,112.4267 C510,139.139244 490.049812,161.192172 464.236376,164.498546 C463.896745,164.766593 463.46707,164.9267 463,164.9267 L457.609,164.9257 L457.5,164.9267 C457.463631,164.9267 457.427271,164.926663 457.39092,164.926589 L456.996,164.9257 Z" id="Combined-Shape" fill="#F5FBFF" filter="url(#filter-13)" transform="translate(418.000000, 129.926700) scale(-1, 1) translate(-418.000000, -129.926700) "></path>
            </g>
        </g>
    </g>
</svg>
