<svg width="40" height="40" viewBox="0 0 40 40" fill="none" xmlns="http://www.w3.org/2000/svg">
<g clip-path="url(#clip0_3275_22701)">
<path d="M4.29902 13.6542C4.15341 13.6542 4.01377 13.5947 3.9108 13.4889C3.80784 13.383 3.75 13.2395 3.75 13.0898V10.0918C3.75 9.94209 3.80784 9.79852 3.9108 9.69266C4.01377 9.58681 4.15341 9.52734 4.29902 9.52734C4.44463 9.52734 4.58427 9.58681 4.68724 9.69266C4.7902 9.79852 4.84804 9.94209 4.84804 10.0918V13.0898C4.84804 13.2395 4.7902 13.383 4.68724 13.4889C4.58427 13.5947 4.44463 13.6542 4.29902 13.6542Z" fill="#040F81"/>
<path d="M6.51582 13.6542C6.37021 13.6542 6.23056 13.5947 6.1276 13.4889C6.02464 13.383 5.9668 13.2395 5.9668 13.0898V10.0918C5.9668 9.94209 6.02464 9.79852 6.1276 9.69266C6.23056 9.58681 6.37021 9.52734 6.51582 9.52734C6.66143 9.52734 6.80107 9.58681 6.90403 9.69266C7.00699 9.79852 7.06484 9.94209 7.06484 10.0918V13.0898C7.06484 13.2395 7.00699 13.383 6.90403 13.4889C6.80107 13.5947 6.66143 13.6542 6.51582 13.6542V13.6542Z" fill="#040F81"/>
<path d="M23.2424 13.6542C23.0968 13.6542 22.9571 13.5947 22.8542 13.4889C22.7512 13.383 22.6934 13.2395 22.6934 13.0898V10.0918C22.6934 9.94209 22.7512 9.79852 22.8542 9.69266C22.9571 9.58681 23.0968 9.52734 23.2424 9.52734C23.388 9.52734 23.5276 9.58681 23.6306 9.69266C23.7336 9.79852 23.7914 9.94209 23.7914 10.0918V13.0898C23.7914 13.2395 23.7336 13.383 23.6306 13.4889C23.5276 13.5947 23.388 13.6542 23.2424 13.6542Z" fill="#040F81"/>
<path d="M25.4611 13.6542C25.3155 13.6542 25.1759 13.5947 25.0729 13.4889C24.97 13.383 24.9121 13.2395 24.9121 13.0898V10.0918C24.9121 9.94209 24.97 9.79852 25.0729 9.69266C25.1759 9.58681 25.3155 9.52734 25.4611 9.52734C25.6067 9.52734 25.7464 9.58681 25.8493 9.69266C25.9523 9.79852 26.0101 9.94209 26.0101 10.0918V13.0898C26.0101 13.2395 25.9523 13.383 25.8493 13.4889C25.7464 13.5947 25.6067 13.6542 25.4611 13.6542Z" fill="#040F81"/>
<path d="M4.29902 26.1793C4.15341 26.1793 4.01377 26.1199 3.9108 26.014C3.80784 25.9082 3.75 25.7646 3.75 25.6149V22.6172C3.75 22.4675 3.80784 22.3239 3.9108 22.2181C4.01377 22.1122 4.15341 22.0527 4.29902 22.0527C4.44463 22.0527 4.58427 22.1122 4.68724 22.2181C4.7902 22.3239 4.84804 22.4675 4.84804 22.6172V25.6149C4.84804 25.689 4.83384 25.7624 4.80625 25.8309C4.77866 25.8994 4.73822 25.9616 4.68724 26.014C4.63625 26.0664 4.57573 26.108 4.50912 26.1364C4.44251 26.1647 4.37112 26.1793 4.29902 26.1793Z" fill="#040F81"/>
<path d="M6.51582 26.1793C6.37021 26.1793 6.23056 26.1199 6.1276 26.014C6.02464 25.9082 5.9668 25.7646 5.9668 25.6149V22.6172C5.9668 22.4675 6.02464 22.3239 6.1276 22.2181C6.23056 22.1122 6.37021 22.0527 6.51582 22.0527C6.66143 22.0527 6.80107 22.1122 6.90403 22.2181C7.00699 22.3239 7.06484 22.4675 7.06484 22.6172V25.6149C7.06484 25.689 7.05064 25.7624 7.02304 25.8309C6.99545 25.8994 6.95501 25.9616 6.90403 26.014C6.85305 26.0664 6.79253 26.108 6.72592 26.1364C6.65931 26.1647 6.58791 26.1793 6.51582 26.1793V26.1793Z" fill="#040F81"/>
<path d="M20.5978 7.01481C20.2733 7.01486 19.9561 6.91599 19.6863 6.73069C19.4165 6.5454 19.2062 6.28201 19.082 5.97382C18.9578 5.66564 18.9253 5.32652 18.9885 4.99933C19.0518 4.67214 19.208 4.37159 19.4374 4.13569C19.6669 3.89979 19.9592 3.73913 20.2774 3.67403C20.5956 3.60893 20.9255 3.64231 21.2253 3.76996C21.5251 3.89761 21.7813 4.11378 21.9616 4.39115C22.1419 4.66852 22.2381 4.99461 22.2381 5.3282C22.2376 5.77532 22.0646 6.20398 21.7571 6.52017C21.4496 6.83635 21.0327 7.01424 20.5978 7.01481V7.01481ZM20.5978 4.77048C20.4905 4.77043 20.3856 4.80309 20.2964 4.86434C20.2071 4.9256 20.1375 5.01268 20.0964 5.11459C20.0553 5.21649 20.0446 5.32864 20.0655 5.43684C20.0864 5.54505 20.138 5.64445 20.2139 5.72248C20.2897 5.8005 20.3864 5.85365 20.4916 5.87519C20.5969 5.89673 20.706 5.8857 20.8051 5.8435C20.9042 5.80129 20.989 5.72981 21.0486 5.63808C21.1082 5.54636 21.14 5.43852 21.14 5.3282C21.1398 5.1804 21.0826 5.0387 20.981 4.93417C20.8794 4.82963 20.7416 4.77077 20.5978 4.77048Z" fill="#040F81"/>
<path d="M25.0263 7.01481C24.7018 7.01502 24.3845 6.91628 24.1146 6.73108C23.8447 6.54589 23.6343 6.28255 23.5099 5.97438C23.3856 5.66622 23.353 5.32706 23.4162 4.99982C23.4793 4.67258 23.6355 4.37196 23.8649 4.13598C24.0943 3.89999 24.3866 3.73925 24.7049 3.67409C25.0231 3.60892 25.353 3.64226 25.6528 3.76988C25.9527 3.89751 26.209 4.11368 26.3893 4.39107C26.5696 4.66845 26.6658 4.99458 26.6658 5.3282C26.6653 5.77518 26.4925 6.20372 26.1851 6.51988C25.8778 6.83604 25.4611 7.01402 25.0263 7.01481ZM25.0263 4.77048C24.919 4.77027 24.814 4.8028 24.7247 4.86395C24.6353 4.92511 24.5656 5.01214 24.5244 5.11403C24.4832 5.21592 24.4723 5.32809 24.4931 5.43635C24.5139 5.54461 24.5655 5.64408 24.6413 5.72219C24.7172 5.8003 24.8138 5.85352 24.9191 5.87513C25.0243 5.89674 25.1335 5.88575 25.2326 5.84357C25.3318 5.80139 25.4166 5.72991 25.4763 5.63817C25.5359 5.54643 25.5678 5.43856 25.5678 5.3282C25.5676 5.18054 25.5105 5.03897 25.409 4.93445C25.3076 4.82993 25.17 4.77098 25.0263 4.77048Z" fill="#040F81"/>
<path d="M15.2275 4.77048H3.64082C3.49521 4.77048 3.35556 4.71101 3.2526 4.60516C3.14964 4.49931 3.0918 4.35574 3.0918 4.20604C3.0918 4.05634 3.14964 3.91278 3.2526 3.80692C3.35556 3.70107 3.49521 3.6416 3.64082 3.6416H15.2275C15.3731 3.6416 15.5127 3.70107 15.6157 3.80692C15.7187 3.91278 15.7765 4.05634 15.7765 4.20604C15.7765 4.35574 15.7187 4.49931 15.6157 4.60516C15.5127 4.71101 15.3731 4.77048 15.2275 4.77048V4.77048Z" fill="#040F81"/>
<path d="M15.2275 7.01462H3.64082C3.49521 7.01462 3.35556 6.95516 3.2526 6.8493C3.14964 6.74345 3.0918 6.59988 3.0918 6.45018C3.0918 6.30048 3.14964 6.15692 3.2526 6.05106C3.35556 5.94521 3.49521 5.88574 3.64082 5.88574H15.2275C15.3731 5.88574 15.5127 5.94521 15.6157 6.05106C15.7187 6.15692 15.7765 6.30048 15.7765 6.45018C15.7765 6.59988 15.7187 6.74345 15.6157 6.8493C15.5127 6.95516 15.3731 7.01462 15.2275 7.01462V7.01462Z" fill="#040F81"/>
<path d="M29.211 10.6561H0.54902C0.403411 10.6561 0.263765 10.5966 0.160804 10.4908C0.057843 10.3849 0 10.2414 0 10.0917V0.56444C0 0.414741 0.057843 0.271174 0.160804 0.165321C0.263765 0.0594676 0.403411 0 0.54902 0H29.211C29.3566 0 29.4962 0.0594676 29.5992 0.165321C29.7022 0.271174 29.76 0.414741 29.76 0.56444V10.0917C29.76 10.2414 29.7022 10.3849 29.5992 10.4908C29.4962 10.5966 29.3566 10.6561 29.211 10.6561ZM1.09804 9.52721H28.662V1.12888H1.09804V9.52721Z" fill="#040F81"/>
<path d="M15.2275 17.2959H3.64082C3.49521 17.2959 3.35556 17.2364 3.2526 17.1306C3.14964 17.0247 3.0918 16.8811 3.0918 16.7314C3.0918 16.5817 3.14964 16.4382 3.2526 16.3323C3.35556 16.2265 3.49521 16.167 3.64082 16.167H15.2275C15.3731 16.167 15.5127 16.2265 15.6157 16.3323C15.7187 16.4382 15.7765 16.5817 15.7765 16.7314C15.7765 16.8811 15.7187 17.0247 15.6157 17.1306C15.5127 17.2364 15.3731 17.2959 15.2275 17.2959V17.2959Z" fill="#040F81"/>
<path d="M15.2275 19.54H3.64082C3.49521 19.54 3.35556 19.4805 3.2526 19.3747C3.14964 19.2688 3.0918 19.1253 3.0918 18.9756C3.0918 18.8259 3.14964 18.6823 3.2526 18.5765C3.35556 18.4706 3.49521 18.4111 3.64082 18.4111H15.2275C15.3731 18.4111 15.5127 18.4706 15.6157 18.5765C15.7187 18.6823 15.7765 18.8259 15.7765 18.9756C15.7765 19.1253 15.7187 19.2688 15.6157 19.3747C15.5127 19.4805 15.3731 19.54 15.2275 19.54V19.54Z" fill="#040F81"/>
<path d="M20.5978 19.5392C20.2733 19.5393 19.9561 19.4404 19.6863 19.2551C19.4165 19.0698 19.2062 18.8064 19.082 18.4982C18.9578 18.19 18.9252 17.8508 18.9885 17.5236C19.0518 17.1965 19.2081 16.8959 19.4375 16.66C19.667 16.4241 19.9593 16.2635 20.2776 16.1984C20.5958 16.1333 20.9257 16.1668 21.2255 16.2945C21.5253 16.4221 21.7815 16.6384 21.9617 16.9158C22.142 17.1932 22.2381 17.5193 22.2381 17.8529C22.2376 18.3 22.0646 18.7286 21.7571 19.0448C21.4496 19.3609 21.0327 19.5387 20.5978 19.5392V19.5392ZM20.5978 17.2952C20.4905 17.2951 20.3856 17.3278 20.2964 17.389C20.2071 17.4503 20.1375 17.5374 20.0964 17.6393C20.0553 17.7412 20.0446 17.8533 20.0655 17.9615C20.0864 18.0697 20.138 18.1691 20.2139 18.2472C20.2897 18.3252 20.3864 18.3783 20.4916 18.3999C20.5969 18.4214 20.706 18.4104 20.8051 18.3682C20.9042 18.326 20.989 18.2545 21.0486 18.1628C21.1082 18.071 21.14 17.9632 21.14 17.8529C21.1398 17.7051 21.0826 17.5634 20.981 17.4588C20.8794 17.3543 20.7416 17.2954 20.5978 17.2952V17.2952Z" fill="#040F81"/>
<path d="M25.0263 19.5392C24.7018 19.5394 24.3845 19.4407 24.1146 19.2555C23.8447 19.0703 23.6342 18.8069 23.5099 18.4987C23.3856 18.1906 23.353 17.8514 23.4162 17.5241C23.4794 17.1969 23.6356 16.8963 23.865 16.6603C24.0944 16.4243 24.3867 16.2636 24.705 16.1985C25.0233 16.1333 25.3532 16.1667 25.653 16.2944C25.9529 16.422 26.2091 16.6383 26.3894 16.9157C26.5697 17.1931 26.6659 17.5193 26.6658 17.8529C26.6653 18.2998 26.4925 18.7284 26.1851 19.0445C25.8778 19.3606 25.4611 19.5385 25.0263 19.5392V19.5392ZM25.0263 17.2952C24.919 17.295 24.814 17.3275 24.7247 17.3886C24.6353 17.4498 24.5656 17.5368 24.5244 17.6387C24.4832 17.7406 24.4723 17.8528 24.4931 17.961C24.5139 18.0693 24.5655 18.1688 24.6413 18.2469C24.7172 18.325 24.8138 18.3782 24.9191 18.3998C25.0243 18.4214 25.1335 18.4104 25.2326 18.3683C25.3318 18.3261 25.4166 18.2546 25.4763 18.1629C25.5359 18.0711 25.5678 17.9632 25.5678 17.8529C25.5676 17.7052 25.5105 17.5636 25.409 17.4591C25.3076 17.3546 25.17 17.2957 25.0263 17.2952Z" fill="#040F81"/>
<path d="M21.2578 23.1815H0.54902C0.403411 23.1815 0.263765 23.122 0.160804 23.0162C0.0578429 22.9103 0 22.7667 0 22.617V13.0898C0 12.9401 0.0578429 12.7966 0.160804 12.6907C0.263765 12.5849 0.403411 12.5254 0.54902 12.5254H29.2107C29.3563 12.5254 29.496 12.5849 29.5989 12.6907C29.7019 12.7966 29.7597 12.9401 29.7597 13.0898V18.3802C29.7597 18.5299 29.7019 18.6735 29.5989 18.7794C29.496 18.8852 29.3563 18.9447 29.2107 18.9447C29.0651 18.9447 28.9255 18.8852 28.8225 18.7794C28.7195 18.6735 28.6617 18.5299 28.6617 18.3802V13.6543H1.09804V22.0526H21.2578C21.4034 22.0526 21.543 22.1121 21.646 22.2179C21.749 22.3238 21.8068 22.4673 21.8068 22.617C21.8068 22.7667 21.749 22.9103 21.646 23.0162C21.543 23.122 21.4034 23.1815 21.2578 23.1815V23.1815Z" fill="#040F81"/>
<path d="M15.2277 29.8203H3.64082C3.49521 29.8203 3.35556 29.7608 3.2526 29.655C3.14964 29.5491 3.0918 29.4055 3.0918 29.2558C3.0918 29.1061 3.14964 28.9626 3.2526 28.8567C3.35556 28.7509 3.49521 28.6914 3.64082 28.6914H15.2277C15.3734 28.6914 15.513 28.7509 15.616 28.8567C15.7189 28.9626 15.7768 29.1061 15.7768 29.2558C15.7768 29.4055 15.7189 29.5491 15.616 29.655C15.513 29.7608 15.3734 29.8203 15.2277 29.8203V29.8203Z" fill="#040F81"/>
<path d="M15.2275 32.0644H3.64082C3.49521 32.0644 3.35556 32.005 3.2526 31.8991C3.14964 31.7933 3.0918 31.6497 3.0918 31.5C3.0918 31.3503 3.14964 31.2067 3.2526 31.1009C3.35556 30.995 3.49521 30.9355 3.64082 30.9355H15.2275C15.3731 30.9355 15.5127 30.995 15.6157 31.1009C15.7187 31.2067 15.7765 31.3503 15.7765 31.5C15.7765 31.6497 15.7187 31.7933 15.6157 31.8991C15.5127 32.005 15.3731 32.0644 15.2275 32.0644V32.0644Z" fill="#040F81"/>
<path d="M21.3132 35.7062H0.54902C0.403411 35.7062 0.263765 35.6467 0.160804 35.5408C0.057843 35.435 0 35.2914 0 35.1417V25.6142C0 25.4645 0.057843 25.321 0.160804 25.2151C0.263765 25.1093 0.403411 25.0498 0.54902 25.0498H21.7561C21.9017 25.0498 22.0413 25.1093 22.1443 25.2151C22.2473 25.321 22.3051 25.4645 22.3051 25.6142C22.3051 25.7639 22.2473 25.9075 22.1443 26.0134C22.0413 26.1192 21.9017 26.1787 21.7561 26.1787H1.09804V34.5773H21.3132C21.4588 34.5773 21.5985 34.6368 21.7014 34.7426C21.8044 34.8485 21.8622 34.992 21.8622 35.1417C21.8622 35.2914 21.8044 35.435 21.7014 35.5408C21.5985 35.6467 21.4588 35.7062 21.3132 35.7062V35.7062Z" fill="#040F81"/>
<path d="M30.5087 40.0002H27.9155C27.7699 40.0002 27.6302 39.9407 27.5273 39.8349C27.4243 39.729 27.3664 39.5854 27.3664 39.4357V37.608C26.3598 37.3816 25.4004 36.9729 24.533 36.4009L23.2763 37.693C23.2253 37.7454 23.1647 37.787 23.0981 37.8153C23.0315 37.8437 22.9601 37.8583 22.888 37.8583C22.8159 37.8583 22.7445 37.8437 22.6779 37.8153C22.6113 37.787 22.5508 37.7454 22.4998 37.693L20.6661 35.8077C20.6151 35.7553 20.5746 35.6931 20.547 35.6246C20.5194 35.5561 20.5052 35.4827 20.5052 35.4086C20.5052 35.3345 20.5194 35.2611 20.547 35.1926C20.5746 35.1241 20.6151 35.0619 20.6661 35.0095L21.9228 33.7174C21.3665 32.8259 20.969 31.8398 20.7487 30.8052H18.9709C18.8253 30.8052 18.6856 30.7457 18.5827 30.6399C18.4797 30.534 18.4219 30.3904 18.4219 30.2407V27.5747C18.4219 27.425 18.4797 27.2814 18.5827 27.1756C18.6856 27.0697 18.8253 27.0103 18.9709 27.0103H20.7487C20.9689 25.9753 21.3664 24.9889 21.9228 24.0972L20.6661 22.8052C20.6151 22.7528 20.5746 22.6905 20.547 22.6221C20.5194 22.5536 20.5052 22.4802 20.5052 22.406C20.5052 22.3319 20.5194 22.2585 20.547 22.19C20.5746 22.1215 20.6151 22.0593 20.6661 22.0069L22.4998 20.1217C22.5508 20.0693 22.6113 20.0277 22.6779 19.9993C22.7445 19.9709 22.8159 19.9563 22.888 19.9563C22.9601 19.9563 23.0315 19.9709 23.0981 19.9993C23.1647 20.0277 23.2253 20.0693 23.2763 20.1217L24.533 21.4137C25.4004 20.8417 26.3598 20.433 27.3664 20.2066V18.3789C27.3664 18.2292 27.4243 18.0856 27.5273 17.9798C27.6302 17.8739 27.7699 17.8145 27.9155 17.8145H30.5087C30.6543 17.8145 30.7939 17.8739 30.8969 17.9798C30.9998 18.0856 31.0577 18.2292 31.0577 18.3789V20.2066C32.0643 20.433 33.0238 20.8417 33.8912 21.4137L35.1479 20.1217C35.1989 20.0693 35.2594 20.0277 35.326 19.9993C35.3926 19.9709 35.464 19.9563 35.5361 19.9563C35.6082 19.9563 35.6796 19.9709 35.7462 19.9993C35.8128 20.0277 35.8734 20.0693 35.9244 20.1217L37.7581 22.0069C37.8091 22.0593 37.8495 22.1215 37.8771 22.19C37.9047 22.2585 37.9189 22.3319 37.9189 22.406C37.9189 22.4802 37.9047 22.5536 37.8771 22.6221C37.8495 22.6905 37.8091 22.7528 37.7581 22.8052L36.5014 24.0972C37.0574 24.9891 37.4546 25.9756 37.6744 27.0105H39.4522C39.5978 27.0105 39.7375 27.07 39.8404 27.1758C39.9434 27.2817 40.0012 27.4253 40.0012 27.575V30.2407C40.0012 30.3904 39.9434 30.534 39.8404 30.6399C39.7375 30.7457 39.5978 30.8052 39.4522 30.8052H37.6744C37.4542 31.8401 37.0567 32.8265 36.5003 33.7182L37.757 35.0103C37.808 35.0627 37.8485 35.1249 37.8761 35.1934C37.9037 35.2619 37.9179 35.3353 37.9179 35.4094C37.9179 35.4835 37.9037 35.5569 37.8761 35.6254C37.8485 35.6939 37.808 35.7561 37.757 35.8085L35.9233 37.6938C35.8723 37.7462 35.8118 37.7878 35.7452 37.8161C35.6786 37.8445 35.6072 37.8591 35.5351 37.8591C35.463 37.8591 35.3916 37.8445 35.325 37.8161C35.2584 37.7878 35.1978 37.7462 35.1468 37.6938L33.8901 36.4017C33.0227 36.9737 32.0633 37.3825 31.0566 37.6088V39.4365C31.0564 39.5859 30.9986 39.7291 30.8959 39.8348C30.7932 39.9404 30.654 39.9999 30.5087 40.0002V40.0002ZM28.4645 38.8713H29.9597V37.1417C29.9597 37.0075 30.0062 36.8778 30.0908 36.7757C30.1755 36.6736 30.2928 36.6058 30.4216 36.5845C31.5826 36.3908 32.6836 35.9214 33.6373 35.2137C33.7431 35.1352 33.8726 35.0979 34.0027 35.1087C34.1328 35.1194 34.2549 35.1774 34.3471 35.2723L35.5372 36.4955L36.5944 35.4086L35.4044 34.1851C35.3122 34.0903 35.2558 33.9648 35.2454 33.8311C35.235 33.6974 35.2713 33.5643 35.3476 33.4556C36.0359 32.4751 36.4925 31.3432 36.681 30.1496C36.7017 30.0172 36.7676 29.8966 36.8669 29.8096C36.9662 29.7225 37.0924 29.6747 37.2229 29.6747H38.9032V28.1375H37.2208C37.0903 28.1375 36.9641 28.0897 36.8648 28.0027C36.7655 27.9156 36.6996 27.7951 36.6789 27.6626C36.4905 26.469 36.0339 25.337 35.3455 24.3566C35.2691 24.2479 35.2328 24.1147 35.2432 23.981C35.2536 23.8473 35.31 23.7217 35.4023 23.6268L36.5923 22.4034L35.5351 21.3164L34.345 22.5399C34.2527 22.6347 34.1306 22.6927 34.0006 22.7034C33.8705 22.7141 33.741 22.6768 33.6352 22.5982C32.6815 21.8905 31.5805 21.4212 30.4195 21.2274C30.2907 21.2062 30.1734 21.1384 30.0888 21.0363C30.0041 20.9342 29.9576 20.8044 29.9576 20.6703V18.9447H28.4624V20.6743C28.4624 20.8084 28.4159 20.9382 28.3312 21.0403C28.2465 21.1424 28.1293 21.2102 28.0004 21.2315C26.8395 21.4253 25.7385 21.8946 24.7847 22.6023C24.679 22.6808 24.5496 22.718 24.4195 22.7073C24.2895 22.6966 24.1675 22.6387 24.0752 22.5439L22.8851 21.3204L21.8313 22.4063L23.0208 23.6287C23.1131 23.7236 23.1695 23.8491 23.1799 23.9829C23.1903 24.1166 23.154 24.2497 23.0776 24.3585C22.3892 25.3389 21.9326 26.4709 21.7442 27.6645C21.7235 27.7969 21.6576 27.9175 21.5583 28.0045C21.459 28.0916 21.3328 28.1394 21.2023 28.1394H19.521V29.6763H21.2038C21.3343 29.6763 21.4606 29.7241 21.5599 29.8112C21.6592 29.8982 21.7251 30.0188 21.7458 30.1512C21.9343 31.3448 22.3908 32.4767 23.0791 33.4572C23.1555 33.5659 23.1917 33.699 23.1813 33.8327C23.1709 33.9664 23.1146 34.0919 23.0224 34.1867L21.8313 35.4097L22.8885 36.4966L24.0786 35.2734C24.1708 35.1786 24.2929 35.1206 24.4229 35.1099C24.5529 35.0991 24.6824 35.1363 24.7881 35.2148C25.7419 35.9225 26.8429 36.3918 28.0038 36.5856C28.1327 36.6069 28.2499 36.6746 28.3346 36.7767C28.4193 36.8788 28.4658 37.0086 28.4658 37.1428L28.4645 38.8713Z" fill="#040F81"/>
<path d="M29.2098 34.2055C26.3683 34.2055 24.0566 31.829 24.0566 28.9076C24.0566 25.9862 26.3683 23.6094 29.2098 23.6094C32.0514 23.6094 34.3633 25.9862 34.3633 28.9076C34.3633 31.829 32.0514 34.2055 29.2098 34.2055ZM29.2098 24.7383C26.9738 24.7383 25.1547 26.6087 25.1547 28.9076C25.1547 31.2065 26.9738 33.0767 29.2098 33.0767C31.4459 33.0767 33.2653 31.2065 33.2653 28.9076C33.2653 26.6087 31.4462 24.7383 29.2098 24.7383Z" fill="#040F81"/>
</g>
<defs>
<clipPath id="clip0_3275_22701">
<rect width="40" height="40" fill="white"/>
</clipPath>
</defs>
</svg>
