<svg width="46" height="46" viewBox="0 0 46 46" fill="none" xmlns="http://www.w3.org/2000/svg">
<path fill-rule="evenodd" clip-rule="evenodd" d="M3 6.06227C9.675 5.89602 16.3417 6.06269 23 6.56227C23.6258 7.31271 24.1258 8.14604 24.5 9.06227C28.6048 5.66813 33.1048 5.16813 38 7.56227C44.1829 11.7805 46.6829 17.6138 45.5 25.0623C39.0898 26.04 32.5898 26.3733 26 26.0623C25.8196 32.382 28.8196 34.882 35 33.5623C36.7134 32.1841 38.0467 30.5175 39 28.5623C41.3098 28.0657 43.6432 27.899 46 28.0623C45.7447 30.5786 44.9114 32.9119 43.5 35.0623C41.5382 36.5297 39.0382 38.0297 36 39.5623C32.2559 40.4908 28.7559 39.9908 25.5 38.0623C25 38.5623 24.5 39.0623 24 39.5623C16.6667 40.229 9.3333 40.229 2 39.5623C0.1751 38.0964 -0.3249 36.2631 0.5 34.0623C6.12113 26.9857 11.6211 19.8191 17 12.5623C12 12.229 7 11.8956 2 11.5623C1.14332 10.8732 0.47665 10.0399 0 9.06227C1.27013 8.27464 2.27013 7.27464 3 6.06227ZM30 12.0623C35.7153 11.7774 38.382 14.4441 38 20.0623C34 20.0623 30 20.0623 26 20.0623C25.2741 16.2553 26.6074 13.5886 30 12.0623ZM19 18.0623C19.7125 22.9303 20.3792 27.9303 21 33.0623C16.7047 34.2232 12.3713 34.3898 8 33.5623C12.3001 28.7764 15.9668 23.6097 19 18.0623Z" fill="black"/>
</svg>
