<svg width="26" height="26" xmlns="http://www.w3.org/2000/svg" class="fill-black"><g><path fill-rule="evenodd" clip-rule="evenodd" d="M5.222 7.276c1.435 0 2.307-.957 2.307-2.138C7.5 3.928 6.657 3 5.279 3 3.9 3 3 3.928 3 5.138c0 1.181.872 2.138 2.222 2.138ZM7.388 22.72H3.112V8.964h4.276V22.72Z"></path><path d="M9.947 13.352c0-1.716-.056-3.15-.112-4.388h3.713l.197 1.913h.085c.562-.9 1.94-2.223 4.247-2.223 2.813 0 4.923 1.885 4.923 5.935v8.13h-4.276v-7.623c0-1.772-.619-2.981-2.166-2.981-1.182 0-1.884.815-2.194 1.603-.113.28-.14.675-.14 1.069v7.932H9.946v-9.367Z"></path></g></svg>