<?xml version="1.0" encoding="utf-8"?>
<!-- Generator: Adobe Illustrator 16.0.0, SVG Export Plug-In . SVG Version: 6.00 Build 0)  -->
<!DOCTYPE svg PUBLIC "-//W3C//DTD SVG 1.1//EN" "http://www.w3.org/Graphics/SVG/1.1/DTD/svg11.dtd">
<svg version="1.1" id="Warstwa_1" xmlns="http://www.w3.org/2000/svg" xmlns:xlink="http://www.w3.org/1999/xlink" x="0px" y="0px"
	 width="38.974px" height="40.576px" viewBox="0 0 38.974 40.576" enable-background="new 0 0 38.974 40.576" xml:space="preserve">
<path fill="#FFFFFF" d="M19.465,1.372c-10.217,0-18.5,8.282-18.5,18.5s8.283,18.5,18.5,18.5c10.219,0,18.5-8.282,18.5-18.5
	S29.684,1.372,19.465,1.372z M26.219,17.861c0.012,0.153,0.012,0.306,0.012,0.459c0,4.671-3.508,10.052-9.916,10.052
	c-1.973,0-3.807-0.58-5.35-1.586c0.281,0.033,0.551,0.044,0.842,0.044c1.629,0,3.129-0.558,4.326-1.51
	c-1.533-0.032-2.816-1.05-3.258-2.45c0.215,0.033,0.432,0.055,0.658,0.055c0.312,0,0.625-0.043,0.916-0.12
	c-1.596-0.328-2.793-1.75-2.793-3.467v-0.044c0.463,0.263,1.002,0.427,1.574,0.448c-0.939-0.634-1.553-1.717-1.553-2.942
	c0-0.656,0.172-1.258,0.475-1.782c1.715,2.144,4.293,3.544,7.184,3.696c-0.055-0.262-0.086-0.535-0.086-0.809
	c0-1.947,1.553-3.533,3.484-3.533c1.002,0,1.908,0.427,2.545,1.115c0.789-0.152,1.543-0.448,2.213-0.853
	c-0.26,0.82-0.809,1.509-1.531,1.946c0.701-0.076,1.381-0.273,2.006-0.547C27.492,16.734,26.898,17.358,26.219,17.861z"/>
<g display="none">
	<path display="inline" fill="#FFFFFF" d="M22.029,23.258c-0.379,0-0.734,0.208-1.066,0.618v-2.499h-1.035v7.656h1.035V28.48
		c0.346,0.427,0.699,0.63,1.066,0.63c0.412,0,0.688-0.216,0.826-0.64c0.068-0.242,0.105-0.623,0.105-1.15v-2.272
		c0-0.54-0.037-0.917-0.105-1.147C22.717,23.474,22.441,23.258,22.029,23.258z M21.926,27.402c0,0.516-0.15,0.769-0.447,0.769
		c-0.17,0-0.344-0.081-0.516-0.252v-3.479c0.172-0.169,0.346-0.251,0.516-0.251c0.297,0,0.447,0.265,0.447,0.778V27.402z"/>
	<path display="inline" fill="#FFFFFF" d="M19.348,17.466c0.334,0,0.496-0.267,0.496-0.801V14.24c0-0.534-0.162-0.799-0.496-0.799
		c-0.34,0-0.5,0.265-0.5,0.799v2.425C18.848,17.199,19.008,17.466,19.348,17.466z"/>
	<path display="inline" fill="#FFFFFF" d="M17.998,27.688c-0.227,0.323-0.447,0.483-0.654,0.483c-0.137,0-0.217-0.081-0.242-0.241
		c-0.008-0.033-0.008-0.16-0.008-0.402v-4.201h-1.033v4.512c0,0.403,0.035,0.675,0.092,0.849c0.104,0.289,0.332,0.424,0.664,0.424
		c0.381,0,0.773-0.229,1.182-0.7v0.622h1.035v-5.706h-1.035V27.688z"/>
	<polygon display="inline" fill="#FFFFFF" points="12.307,22.454 13.521,22.454 13.521,29.032 14.67,29.032 14.67,22.454 
		15.91,22.454 15.91,21.376 12.307,21.376 	"/>
	<path display="inline" fill="#FFFFFF" d="M25.322,23.258c-0.527,0-0.939,0.194-1.236,0.585c-0.223,0.288-0.32,0.734-0.32,1.345
		v1.998c0,0.605,0.113,1.056,0.332,1.341c0.299,0.389,0.709,0.583,1.252,0.583c0.537,0,0.963-0.204,1.25-0.618
		c0.125-0.182,0.203-0.391,0.24-0.618c0.01-0.105,0.023-0.334,0.023-0.667v-0.151h-1.057c0,0.415-0.012,0.644-0.021,0.7
		c-0.059,0.276-0.209,0.414-0.463,0.414c-0.355,0-0.527-0.262-0.527-0.791v-1.011h2.068v-1.182c0-0.61-0.105-1.057-0.322-1.345
		C26.252,23.452,25.84,23.258,25.322,23.258z M25.828,25.508h-1.033V24.98c0-0.527,0.172-0.792,0.518-0.792
		c0.342,0,0.516,0.265,0.516,0.792V25.508z"/>
	<path display="inline" fill="#FFFFFF" d="M19.465,1.372c-10.217,0-18.5,8.282-18.5,18.5s8.283,18.5,18.5,18.5s18.5-8.282,18.5-18.5
		S29.682,1.372,19.465,1.372z M21.748,12.57h1.041v4.245c0,0.245,0,0.372,0.014,0.407c0.023,0.162,0.104,0.245,0.244,0.245
		c0.211,0,0.428-0.164,0.66-0.49V12.57h1.045v5.765h-1.045v-0.629c-0.414,0.477-0.812,0.709-1.193,0.709
		c-0.336,0-0.568-0.137-0.672-0.43c-0.059-0.174-0.094-0.451-0.094-0.857V12.57z M17.803,14.448c0-0.615,0.104-1.065,0.326-1.357
		c0.289-0.394,0.697-0.59,1.219-0.59s0.928,0.196,1.217,0.59c0.219,0.292,0.324,0.742,0.324,1.357v2.02
		c0,0.614-0.105,1.067-0.324,1.357c-0.289,0.392-0.695,0.59-1.217,0.59s-0.93-0.198-1.219-0.59
		c-0.223-0.291-0.326-0.744-0.326-1.357V14.448z M15.01,10.599l0.822,3.038l0.791-3.038h1.17L16.4,15.202v3.133h-1.158v-3.133
		c-0.107-0.556-0.34-1.369-0.709-2.448c-0.246-0.717-0.5-1.438-0.742-2.154H15.01z M27.836,29.375
		c-0.209,0.909-0.953,1.579-1.85,1.681c-2.121,0.237-4.268,0.237-6.404,0.237s-4.283,0-6.404-0.237
		c-0.895-0.102-1.639-0.772-1.85-1.681c-0.297-1.296-0.297-2.71-0.297-4.043c0-1.335,0.004-2.748,0.303-4.043
		c0.207-0.911,0.951-1.581,1.848-1.681c2.119-0.236,4.266-0.236,6.404-0.236c2.137,0,4.283,0,6.404,0.236
		c0.898,0.101,1.643,0.771,1.85,1.681c0.297,1.296,0.297,2.708,0.297,4.043C28.137,26.666,28.135,28.08,27.836,29.375z"/>
</g>
</svg>
