<svg width="16" height="16" viewBox="0 0 16 16" fill="none" xmlns="http://www.w3.org/2000/svg">
<path fill-rule="evenodd" clip-rule="evenodd" d="M10.0924 0.193051L15.7856 5.85588C16.0444 6.11328 16.0444 6.49938 15.915 6.88548L13.8447 8.94469C13.586 9.20209 13.1978 9.20209 12.939 8.94469L12.4861 8.49424L11.5078 9.46735L10.4926 8.45216L11.9039 7.01418C12.1627 6.75678 12.5508 6.75678 12.8096 7.01418L13.2625 7.46463L14.427 6.30633L9.63956 1.54441L8.41035 2.70271L8.86322 3.15316C9.0573 3.34621 9.25139 3.66797 8.86322 4.05407L7.47517 5.43471L6.60412 4.56367L7.56932 3.60362L7.11645 3.15316C6.92237 2.96011 6.79298 2.57401 7.11645 2.25226L9.18669 0.193051C9.44547 -0.0643503 9.83364 -0.0643503 10.0924 0.193051ZM0.582255 6.30633C1.29429 5.59808 2.31397 5.35689 3.27678 5.31688L4.66076 6.70086C3.81656 6.57412 2.70633 6.52717 1.94085 6.88548L9.0573 13.964C9.41124 13.1719 9.37186 12.1089 9.24951 11.2896L10.762 12.8021C10.7169 13.7485 10.4715 14.7452 9.76895 15.4441C9.63956 15.6371 9.25139 15.7658 8.86322 15.4441L5.1756 11.7761L1.09982 15.8302C0.90573 16.0232 0.452865 16.0876 0.194085 15.8302C-0.064695 15.5728 -0.064695 15.1867 0.194085 14.9293L4.26987 10.8752L0.582255 7.20723C0.323475 6.94983 0.323475 6.56373 0.582255 6.30633ZM1.02054 0.313111C0.825275 0.117849 0.508693 0.117849 0.313431 0.313111C0.118169 0.508373 0.118169 0.824956 0.313431 1.02022L14.9801 15.6868C15.1753 15.8821 15.4919 15.8821 15.6872 15.6868C15.8824 15.4916 15.8824 15.175 15.6872 14.9797L1.02054 0.313111Z" fill="#040F81"/>
</svg>
