<?xml version="1.0" encoding="UTF-8"?>
<svg width="11px" height="10px" viewBox="0 0 11 10" version="1.1" xmlns="http://www.w3.org/2000/svg" xmlns:xlink="http://www.w3.org/1999/xlink">
    <title>catalog icon</title>
    <g id="--Symbols" stroke="none" stroke-width="1" fill="none" fill-rule="evenodd" fill-opacity="0.7">
        <g id="access-type-label---catalogue" transform="translate(-33.000000, -2.000000)" fill="#1C313A" fill-rule="nonzero">
            <g id="Group" transform="translate(33.000000, 2.852290)">
                <path d="M11,0.147710024 L11,8.14771002 L6,8.98001107 L6,9.14771002 L5.5,9.06401107 L5,9.14771002 L5,8.98001107 L0,8.14771002 L0,0.292742209 C2.47011573,-0.0610773014 4.2793968,0.232484901 5.42784321,1.17342882 C6.56520343,0.113459927 8.42295946,-0.228241028 11,0.147710024 Z M4.86828006,2.01143953 C4.09278218,1.32811615 2.82175869,1.03445716 1,1.18472091 L1,1.18472091 L1,7.30058294 L5,7.9672496 L5,2.13605992 Z M6.12442233,1.89104625 L6,2.01101107 L6,7.96701107 L10,7.30058294 L10,1.03773288 C8.17054568,0.883735428 6.89855392,1.18626439 6.12442233,1.89104625 Z M4,5.14771002 L4,6.14771002 L2,6.14771002 L2,5.14771002 L4,5.14771002 Z M9,5.14771002 L9,6.14771002 L7,6.14771002 L7,5.14771002 L9,5.14771002 Z M4,3.14771002 L4,4.14771002 L2,4.14771002 L2,3.14771002 L4,3.14771002 Z M9,3.14771002 L9,4.14771002 L7,4.14771002 L7,3.14771002 L9,3.14771002 Z" id="catalog-icon"></path>
            </g>
        </g>
    </g>
</svg>
