<?xml version="1.0" encoding="UTF-8"?>
<svg width="11px" height="12px" viewBox="0 0 11 12" version="1.1" xmlns="http://www.w3.org/2000/svg" xmlns:xlink="http://www.w3.org/1999/xlink">
    <title>external ordering icon</title>
    <g id="--Symbols" stroke="none" stroke-width="1" fill="none" fill-rule="evenodd" fill-opacity="0.7">
        <g id="access-type-label---external" transform="translate(1.000000, -1.000000)" fill="#1C313A" fill-rule="nonzero">
            <g id="access-type-label" transform="translate(-1.000000, 0.000000)">
                <path d="M8.98725001,4.29232141 C9.9360345,5.1747455 10.5,6.39913319 10.5,7.71921051 C10.5,10.3653067 8.25599338,12.5 5.5,12.5 C2.74400662,12.5 0.5,10.3653067 0.5,7.71921051 C0.5,6.39890041 1.06418364,5.17457763 2.01269499,4.29235678 C2.04585032,4.69954113 2.14885388,5.08584694 2.3092899,5.44062416 C1.79379202,6.08279421 1.5,6.87735041 1.5,7.71921051 C1.5,9.80154385 3.28543063,11.5 5.5,11.5 C7.71456937,11.5 9.5,9.80154385 9.5,7.71921051 C9.5,6.8775856 9.20640116,6.0831296 8.69209486,5.44005657 C8.8395392,5.11151369 8.93894526,4.75527155 8.97946248,4.38136356 L8.98725001,4.29232141 Z M5.5,1 L7,4 L6,4 L6,8 L5,8 L5,4 L4,4 L5.5,1 Z" id="external-ordering-icon"></path>
            </g>
        </g>
    </g>
</svg>
