<?xml version="1.0" encoding="UTF-8"?>
<svg width="12px" height="14px" viewBox="0 0 12 14" version="1.1" xmlns="http://www.w3.org/2000/svg" xmlns:xlink="http://www.w3.org/1999/xlink">
    <!-- Generator: Sketch 64 (93537) - https://sketch.com -->
    <title>ico_trash</title>
    <desc>Created with Sketch.</desc>
    <g id="--Symbols" stroke="none" stroke-width="1" fill="none" fill-rule="evenodd">
        <g id="parameter-box-/-expand" transform="translate(-707.000000, -19.000000)" fill="#000000" fill-rule="nonzero">
            <g id="parameter-box">
                <g id="param_actions" transform="translate(633.000000, 17.000000)">
                    <g id="ico-/-trash" transform="translate(74.000000, 2.000000)">
                        <path d="M7.17857143,11.3750001 L7.82142857,11.3750001 C7.99894867,11.3750001 8.14285714,11.2280936 8.14285714,11.0468751 L8.14285714,5.14062515 C8.14285714,4.95940672 7.99894867,4.81250015 7.82142857,4.81250015 L7.17857143,4.81250015 C7.00105133,4.81250015 6.85714286,4.95940672 6.85714286,5.14062515 L6.85714286,11.0468751 C6.85714286,11.2280936 7.00105133,11.3750001 7.17857143,11.3750001 Z M11.5714286,2.18750015 L9.36401786,2.18750015 L8.45330357,0.637109524 C8.22081735,0.241651491 7.80206299,-0.000219489456 7.35026786,5.86197757e-14 L4.64973214,5.86197757e-14 C4.19812796,5.86197757e-14 3.77962013,0.241818703 3.54723214,0.637109524 L2.63598214,2.18750015 L0.428571429,2.18750015 C0.191877964,2.18750015 5.32907052e-15,2.38337557 5.32907052e-15,2.62500015 L5.32907052e-15,3.06250015 C5.32907052e-15,3.30412473 0.191877964,3.5 0.428571429,3.5 L0.857142857,3.5 L0.857142857,12.6875001 C0.857142857,13.4123739 1.43277675,14 2.14285714,14 L9.85714286,14 C10.5672232,14 11.1428571,13.4123739 11.1428571,12.6875001 L11.1428571,3.5 L11.5714286,3.5 C11.808122,3.5 12,3.30412473 12,3.06250015 L12,2.62500015 C12,2.38337557 11.808122,2.18750015 11.5714286,2.18750015 Z M4.60285714,1.39207046 C4.63199582,1.34255976 4.68449127,1.31233799 4.74107143,1.3124995 L7.25892857,1.3124995 C7.31541331,1.31243426 7.36778538,1.34264353 7.396875,1.39207046 L7.86455357,2.18750015 L4.13544643,2.18750015 L4.60285714,1.39207046 Z M9.85714286,12.6875001 L2.14285714,12.6875001 L2.14285714,3.50000015 L9.85714286,3.50000015 L9.85714286,12.6875001 Z M4.17857143,11.3750001 L4.82142857,11.3750001 C4.99894867,11.3750001 5.14285714,11.2280936 5.14285714,11.0468751 L5.14285714,5.14062515 C5.14285714,4.95940672 4.99894867,4.81250015 4.82142857,4.81250015 L4.17857143,4.81250015 C4.00105133,4.81250015 3.85714286,4.95940672 3.85714286,5.14062515 L3.85714286,11.0468751 C3.85714286,11.2280936 4.00105133,11.3750001 4.17857143,11.3750001 Z" id="Shape"></path>
                    </g>
                </g>
            </g>
        </g>
    </g>
</svg>