<svg width="16" height="12" viewBox="0 0 16 12" fill="none" xmlns="http://www.w3.org/2000/svg">
<path d="M7.58999 7.03521C7.54346 7.03522 7.49744 7.02546 7.45491 7.00657L0.197398 3.77976C0.138495 3.75355 0.088479 3.71078 0.0534338 3.65666C0.0183887 3.60255 -0.000174964 3.53941 1.24287e-06 3.47494C0.00017745 3.41047 0.019086 3.34744 0.0544264 3.29351C0.0897668 3.23959 0.140016 3.1971 0.199062 3.17121L7.37267 0.0282977C7.41497 0.00963756 7.46069 0 7.50693 0C7.55316 0 7.59888 0.00963756 7.64118 0.0282977L14.8987 3.25511C14.9576 3.28132 15.0076 3.32409 15.0427 3.3782C15.0777 3.43232 15.0963 3.49545 15.0961 3.55993C15.0959 3.6244 15.077 3.68743 15.0417 3.74135C15.0063 3.79528 14.9561 3.83777 14.897 3.86366L7.72342 7.00712C7.68136 7.0256 7.63593 7.03516 7.58999 7.03521ZM1.15633 3.47798L7.59092 6.33907L13.9398 3.55763L7.50517 0.696723L1.15633 3.47798Z" fill="#444444"/>
<path d="M7.59081 10.414C7.54459 10.4142 7.49884 10.4047 7.45646 10.3863L2.39679 8.13617C2.31617 8.10034 2.25308 8.03395 2.2214 7.95161C2.18972 7.86926 2.19206 7.77771 2.22788 7.69708C2.26371 7.61646 2.3301 7.55337 2.41245 7.52169C2.49479 7.49002 2.58635 7.49235 2.66697 7.52818L7.59192 9.7177L12.4322 7.59711C12.4723 7.57957 12.5154 7.5701 12.5591 7.56922C12.6028 7.56835 12.6462 7.57609 12.6869 7.592C12.7277 7.60792 12.7648 7.6317 12.7964 7.66198C12.8279 7.69227 12.8531 7.72847 12.8707 7.76851C12.8882 7.80855 12.8977 7.85166 12.8986 7.89536C12.8994 7.93907 12.8917 7.98252 12.8758 8.02323C12.8599 8.06394 12.8361 8.10112 12.8058 8.13264C12.7755 8.16417 12.7393 8.18942 12.6993 8.20695L7.72442 10.3863C7.68228 10.4047 7.63678 10.4141 7.59081 10.414Z" fill="#444444"/>
<path d="M11.2476 10.7816C11.1594 10.7816 11.0748 10.7465 11.0124 10.6841C10.95 10.6218 10.915 10.5372 10.915 10.4489V5.31627L6.93602 3.54717C6.89608 3.52943 6.86002 3.50399 6.8299 3.47232C6.79978 3.44064 6.7762 3.40334 6.7605 3.36255C6.7448 3.32176 6.73728 3.27828 6.73839 3.23459C6.73949 3.19089 6.74919 3.14784 6.76693 3.1079C6.78467 3.06795 6.8101 3.03189 6.84178 3.00178C6.87346 2.97166 6.91075 2.94808 6.95154 2.93238C6.99233 2.91667 7.03582 2.90916 7.07951 2.91026C7.12321 2.91137 7.16626 2.92106 7.2062 2.9388L11.3827 4.79587C11.4417 4.82208 11.4918 4.86488 11.5268 4.91906C11.5619 4.97323 11.5805 5.03644 11.5803 5.10098V10.4499C11.58 10.5379 11.5449 10.6223 11.4825 10.6845C11.4201 10.7467 11.3357 10.7816 11.2476 10.7816V10.7816Z" fill="#444444"/>
<path d="M11.2452 12C11.0588 12 10.8766 11.9447 10.7216 11.8411C10.5666 11.7376 10.4458 11.5904 10.3745 11.4182C10.3031 11.2459 10.2845 11.0564 10.3208 10.8736C10.3572 10.6908 10.447 10.5228 10.5788 10.391C10.7106 10.2592 10.8785 10.1695 11.0614 10.1331C11.2442 10.0967 11.4337 10.1154 11.6059 10.1867C11.7781 10.2581 11.9253 10.3789 12.0289 10.5339C12.1324 10.6889 12.1877 10.8711 12.1877 11.0575C12.1877 11.3074 12.0884 11.5472 11.9117 11.7239C11.7349 11.9007 11.4952 12 11.2452 12ZM11.2452 10.7816C11.1904 10.7816 11.1368 10.7978 11.0912 10.8283C11.0456 10.8587 11.0101 10.902 10.9891 10.9527C10.9681 11.0033 10.9627 11.0591 10.9733 11.1129C10.984 11.1666 11.0104 11.216 11.0492 11.2548C11.088 11.2935 11.1374 11.3199 11.1911 11.3306C11.2449 11.3413 11.3006 11.3359 11.3513 11.3149C11.402 11.2939 11.4452 11.2584 11.4757 11.2128C11.5062 11.1672 11.5224 11.1136 11.5224 11.0588C11.5224 10.9853 11.4932 10.9147 11.4412 10.8628C11.3892 10.8108 11.3187 10.7816 11.2452 10.7816Z" fill="#444444"/>
<path d="M2.53186 8.16491C2.44364 8.16491 2.35903 8.12986 2.29665 8.06748C2.23426 8.00509 2.19922 7.92049 2.19922 7.83226V4.45428C2.19922 4.36606 2.23426 4.28145 2.29665 4.21907C2.35903 4.15669 2.44364 4.12164 2.53186 4.12164C2.62008 4.12164 2.70469 4.15669 2.76707 4.21907C2.82946 4.28145 2.8645 4.36606 2.8645 4.45428V7.83226C2.8645 7.92049 2.82946 8.00509 2.76707 8.06748C2.70469 8.12986 2.62008 8.16491 2.53186 8.16491Z" fill="#444444"/>
<path d="M12.566 8.23449C12.4778 8.23449 12.3932 8.19944 12.3308 8.13706C12.2684 8.07468 12.2334 7.99007 12.2334 7.90185V4.52313C12.2334 4.43491 12.2684 4.3503 12.3308 4.28792C12.3932 4.22554 12.4778 4.19049 12.566 4.19049C12.6543 4.19049 12.7389 4.22554 12.8013 4.28792C12.8636 4.3503 12.8987 4.43491 12.8987 4.52313V7.90185C12.8987 7.99007 12.8636 8.07468 12.8013 8.13706C12.7389 8.19944 12.6543 8.23449 12.566 8.23449Z" fill="#444444"/>
</svg>
