
<svg width="12px" height="12px" viewBox="0 0 12 12" version="1.1" xmlns="http://www.w3.org/2000/svg" xmlns:xlink="http://www.w3.org/1999/xlink">
    <g id="!_Projekty" stroke="none" stroke-width="1" fill="none" fill-rule="evenodd">
        <g id="Projects-sidebar-details" transform="translate(-447.000000, -283.000000)" fill="#1C313A" fill-rule="nonzero">
            <g id="Group-2" transform="translate(443.000000, 278.000000)">
                <path d="M14.5,5 L5.5,5 C4.67265625,5 4,5.67265625 4,6.5 L4,13.25 C4,14.0773438 4.67265625,14.75 5.5,14.75 L7.75,14.75 L7.75,16.71875 C7.75,16.8851563 7.8859375,17 8.03125,17 C8.0875,17 8.14609375,16.9835938 8.19765625,16.94375 L11.125,14.75 L14.5,14.75 C15.3273438,14.75 16,14.0773438 16,13.25 L16,6.5 C16,5.67265625 15.3273438,5 14.5,5 Z M15.25,13.25 C15.25,13.6625 14.9125,14 14.5,14 L10.8742188,14 L10.675,14.15 L8.5,15.78125 L8.5,14 L5.5,14 C5.0875,14 4.75,13.6625 4.75,13.25 L4.75,6.5 C4.75,6.0875 5.0875,5.75 5.5,5.75 L14.5,5.75 C14.9125,5.75 15.25,6.0875 15.25,6.5 L15.25,13.25 Z M10.5625,10.625 L7.1875,10.625 C7.084375,10.625 7,10.709375 7,10.8125 L7,11.1875 C7,11.290625 7.084375,11.375 7.1875,11.375 L10.5625,11.375 C10.665625,11.375 10.75,11.290625 10.75,11.1875 L10.75,10.8125 C10.75,10.709375 10.665625,10.625 10.5625,10.625 Z M12.8125,8.375 L7.1875,8.375 C7.084375,8.375 7,8.459375 7,8.5625 L7,8.9375 C7,9.040625 7.084375,9.125 7.1875,9.125 L12.8125,9.125 C12.915625,9.125 13,9.040625 13,8.9375 L13,8.5625 C13,8.459375 12.915625,8.375 12.8125,8.375 Z" id="Shape"></path>
            </g>
        </g>
    </g>
</svg>
