<svg width="17" height="16" viewBox="0 0 17 16" fill="none" xmlns="http://www.w3.org/2000/svg">
<path d="M8.5 1C7.21442 1 5.95772 1.38122 4.8888 2.09545C3.81988 2.80968 2.98676 3.82484 2.49479 5.01256C2.00282 6.20028 1.87409 7.50721 2.1249 8.76809C2.3757 10.029 2.99477 11.1872 3.90381 12.0962C4.81285 13.0052 5.97104 13.6243 7.23192 13.8751C8.49279 14.1259 9.79973 13.9972 10.9874 13.5052C12.1752 13.0132 13.1903 12.1801 13.9046 11.1112C14.6188 10.0423 15 8.78558 15 7.5C14.9982 5.77665 14.3128 4.12441 13.0942 2.90582C11.8756 1.68722 10.2234 1.00182 8.5 1ZM6.85188 10H10.1481C9.8125 11.1462 9.25 12.1794 8.5 12.9931C7.75 12.1794 7.1875 11.1462 6.85188 10ZM6.625 9C6.45917 8.00688 6.45917 6.99312 6.625 6H10.375C10.5408 6.99312 10.5408 8.00688 10.375 9H6.625ZM3 7.5C2.99957 6.99277 3.06961 6.48795 3.20813 6H5.61188C5.46271 6.99444 5.46271 8.00556 5.61188 9H3.20813C3.06961 8.51205 2.99957 8.00723 3 7.5ZM10.1481 5H6.85188C7.1875 3.85375 7.75 2.82063 8.5 2.00688C9.25 2.82063 9.8125 3.85375 10.1481 5ZM11.3881 6H13.7919C14.0694 6.98075 14.0694 8.01925 13.7919 9H11.3881C11.5373 8.00556 11.5373 6.99444 11.3881 6ZM13.3981 5H11.1838C10.9286 3.99594 10.5001 3.04415 9.9175 2.1875C10.6618 2.38751 11.356 2.74108 11.9554 3.22546C12.5549 3.70984 13.0463 4.31431 13.3981 5ZM7.0825 2.1875C6.49994 3.04415 6.07142 3.99594 5.81625 5H3.60188C3.95371 4.31431 4.44515 3.70984 5.04459 3.22546C5.64404 2.74108 6.33822 2.38751 7.0825 2.1875ZM3.60188 10H5.81625C6.07142 11.0041 6.49994 11.9558 7.0825 12.8125C6.33822 12.6125 5.64404 12.2589 5.04459 11.7745C4.44515 11.2902 3.95371 10.6857 3.60188 10ZM9.9175 12.8125C10.5001 11.9558 10.9286 11.0041 11.1838 10H13.3981C13.0463 10.6857 12.5549 11.2902 11.9554 11.7745C11.356 12.2589 10.6618 12.6125 9.9175 12.8125Z" fill="black"/>
</svg>
