<svg width="17" height="16" viewBox="0 0 17 16" fill="none" xmlns="http://www.w3.org/2000/svg">
<g clip-path="url(#clip0_3442_15624)">
<path d="M14.9173 8.0013H10.9173L9.58398 10.0013H6.91732L5.58398 8.0013H1.58398M14.9173 8.0013V12.0013C14.9173 12.3549 14.7768 12.6941 14.5268 12.9441C14.2767 13.1942 13.9376 13.3346 13.584 13.3346H2.91732C2.5637 13.3346 2.22456 13.1942 1.97451 12.9441C1.72446 12.6941 1.58398 12.3549 1.58398 12.0013V8.0013M14.9173 8.0013L12.6173 3.40797C12.5069 3.18583 12.3368 2.99888 12.126 2.86816C11.9151 2.73743 11.672 2.6681 11.424 2.66797H5.07732C4.82926 2.6681 4.58616 2.73743 4.37535 2.86816C4.16453 2.99888 3.99437 3.18583 3.88398 3.40797L1.58398 8.0013" stroke="#101828" stroke-width="1.33333" stroke-linecap="round" stroke-linejoin="round"/>
</g>
<defs>
<clipPath id="clip0_3442_15624">
<rect width="16" height="16" fill="white" transform="translate(0.25)"/>
</clipPath>
</defs>
</svg>
