<svg width="17" height="16" viewBox="0 0 17 16" fill="none" xmlns="http://www.w3.org/2000/svg">
<path d="M8.5 7.22222V11.1111M8.5 15C7.52329 15 6.55615 14.8189 5.65379 14.4672C4.75143 14.1154 3.93153 13.5998 3.24089 12.9497C2.55026 12.2997 2.00242 11.5281 1.62865 10.6788C1.25488 9.8295 1.0625 8.91925 1.0625 8C1.0625 7.08075 1.25488 6.17049 1.62865 5.32122C2.00242 4.47194 2.55026 3.70026 3.24089 3.05025C3.93153 2.40024 4.75143 1.88463 5.65379 1.53284C6.55615 1.18106 7.52329 1 8.5 1C10.4725 1 12.3643 1.7375 13.7591 3.05025C15.1539 4.36301 15.9375 6.14348 15.9375 8C15.9375 9.85652 15.1539 11.637 13.7591 12.9497C12.3643 14.2625 10.4725 15 8.5 15ZM8.54132 4.88889V4.96667H8.45868V4.88889H8.54132Z" stroke="black" stroke-width="1.75" stroke-linecap="round" stroke-linejoin="round"/>
</svg>
