<svg width="20" height="20" viewBox="0 0 20 20" fill="none" xmlns="http://www.w3.org/2000/svg">
<g id="trash-2">
<path id="Icon" d="M2.5 4.00001C1.94772 4.00001 1.5 4.44772 1.5 5.00001C1.5 5.55229 1.94772 6.00001 2.5 6.00001V4.00001ZM17.5 6.00001C18.0523 6.00001 18.5 5.55229 18.5 5.00001C18.5 4.44772 18.0523 4.00001 17.5 4.00001V6.00001ZM15.8333 5.00001H16.8333C16.8333 4.44772 16.3856 4.00001 15.8333 4.00001V5.00001ZM4.16667 16.6667H3.16667H4.16667ZM5.66667 5.00001C5.66667 5.55229 6.11438 6.00001 6.66667 6.00001C7.21895 6.00001 7.66667 5.55229 7.66667 5.00001H5.66667ZM8.33333 1.66667V0.666672V1.66667ZM11.6667 1.66667V0.666672V1.66667ZM12.3333 5.00001C12.3333 5.55229 12.781 6.00001 13.3333 6.00001C13.8856 6.00001 14.3333 5.55229 14.3333 5.00001H12.3333ZM9.33333 9.16667C9.33333 8.61439 8.88562 8.16667 8.33333 8.16667C7.78105 8.16667 7.33333 8.61439 7.33333 9.16667H9.33333ZM7.33333 14.1667C7.33333 14.719 7.78105 15.1667 8.33333 15.1667C8.88562 15.1667 9.33333 14.719 9.33333 14.1667H7.33333ZM12.6667 9.16667C12.6667 8.61439 12.219 8.16667 11.6667 8.16667C11.1144 8.16667 10.6667 8.61439 10.6667 9.16667H12.6667ZM10.6667 14.1667C10.6667 14.719 11.1144 15.1667 11.6667 15.1667C12.219 15.1667 12.6667 14.719 12.6667 14.1667H10.6667ZM2.5 6.00001H4.16667V4.00001H2.5V6.00001ZM4.16667 6.00001H17.5V4.00001H4.16667V6.00001ZM14.8333 5.00001V16.6667H16.8333V5.00001H14.8333ZM14.8333 16.6667C14.8333 16.8435 14.7631 17.0131 14.6381 17.1381L16.0523 18.5523C16.5524 18.0522 16.8333 17.3739 16.8333 16.6667H14.8333ZM14.6381 17.1381C14.513 17.2631 14.3435 17.3333 14.1667 17.3333V19.3333C14.8739 19.3333 15.5522 19.0524 16.0523 18.5523L14.6381 17.1381ZM14.1667 17.3333H5.83333V19.3333H14.1667V17.3333ZM5.83333 17.3333C5.65652 17.3333 5.48695 17.2631 5.36193 17.1381L3.94772 18.5523C4.44781 19.0524 5.12609 19.3333 5.83333 19.3333V17.3333ZM5.36193 17.1381C5.2369 17.0131 5.16667 16.8435 5.16667 16.6667H3.16667C3.16667 17.3739 3.44762 18.0522 3.94772 18.5523L5.36193 17.1381ZM5.16667 16.6667V5.00001H3.16667V16.6667H5.16667ZM4.16667 6.00001H15.8333V4.00001H4.16667V6.00001ZM7.66667 5.00001V3.33334H5.66667V5.00001H7.66667ZM7.66667 3.33334C7.66667 3.15653 7.7369 2.98696 7.86193 2.86193L6.44772 1.44772C5.94762 1.94782 5.66667 2.62609 5.66667 3.33334H7.66667ZM7.86193 2.86193C7.98695 2.73691 8.15652 2.66667 8.33333 2.66667V0.666672C7.62609 0.666672 6.94781 0.947623 6.44772 1.44772L7.86193 2.86193ZM8.33333 2.66667H11.6667V0.666672H8.33333V2.66667ZM11.6667 2.66667C11.8435 2.66667 12.013 2.73691 12.1381 2.86193L13.5523 1.44772C13.0522 0.947623 12.3739 0.666672 11.6667 0.666672V2.66667ZM12.1381 2.86193C12.2631 2.98696 12.3333 3.15653 12.3333 3.33334H14.3333C14.3333 2.62609 14.0524 1.94782 13.5523 1.44772L12.1381 2.86193ZM12.3333 3.33334V5.00001H14.3333V3.33334H12.3333ZM7.33333 9.16667V14.1667H9.33333V9.16667H7.33333ZM10.6667 9.16667V14.1667H12.6667V9.16667H10.6667Z" fill="#010E87"/>
</g>
</svg>
