<svg width="17" height="18" viewBox="0 0 17 18" fill="none" xmlns="http://www.w3.org/2000/svg">
<g id="trash-2">
<path id="Icon" d="M4.8551 6.08641H5.82653M5.82653 6.08641H13.598M5.82653 6.08641V12.8864C5.82653 13.1441 5.92888 13.3911 6.11106 13.5733C6.29323 13.7555 6.54032 13.8578 6.79796 13.8578H11.6551C11.9127 13.8578 12.1598 13.7555 12.342 13.5733C12.5242 13.3911 12.6265 13.1441 12.6265 12.8864V6.08641H5.82653ZM7.28367 6.08641V5.11498C7.28367 4.85734 7.38602 4.61026 7.5682 4.42808C7.75038 4.2459 7.99746 4.14355 8.2551 4.14355H10.198C10.4556 4.14355 10.7027 4.2459 10.8849 4.42808C11.067 4.61026 11.1694 4.85734 11.1694 5.11498V6.08641M8.2551 8.51498V11.4293M10.198 8.51498V11.4293" stroke="#010E87" stroke-width="1.21429" stroke-linecap="round" stroke-linejoin="round"/>
</g>
</svg>
