<svg width="24" height="24" viewBox="0 0 24 24" fill="none" xmlns="http://www.w3.org/2000/svg">
<path d="M20.8401 4.61183C20.3294 4.10083 19.7229 3.69547 19.0555 3.41891C18.388 3.14235 17.6726 3 16.9501 3C16.2276 3 15.5122 3.14235 14.8448 3.41891C14.1773 3.69547 13.5709 4.10083 13.0601 4.61183L12.0001 5.67183L10.9401 4.61183C9.90843 3.58013 8.50915 3.00053 7.05012 3.00053C5.59109 3.00053 4.19181 3.58013 3.16012 4.61183C2.12843 5.64352 1.54883 7.04279 1.54883 8.50183C1.54883 9.96086 2.12843 11.3601 3.16012 12.3918L4.22012 13.4518L12.0001 21.2318L19.7801 13.4518L20.8401 12.3918C21.3511 11.8811 21.7565 11.2746 22.033 10.6072C22.3096 9.93972 22.4519 9.22431 22.4519 8.50183C22.4519 7.77934 22.3096 7.06393 22.033 6.39647C21.7565 5.72901 21.3511 5.12258 20.8401 4.61183V4.61183Z" stroke="#101828" stroke-width="2" stroke-linecap="round" stroke-linejoin="round"/>
</svg>
