<svg width="16" height="16" viewBox="0 0 16 16" fill="none" xmlns="http://www.w3.org/2000/svg">
<path d="M8 1C6.71442 1 5.45772 1.38122 4.3888 2.09545C3.31988 2.80968 2.48676 3.82484 1.99479 5.01256C1.50282 6.20028 1.37409 7.50721 1.6249 8.76809C1.8757 10.029 2.49477 11.1872 3.40381 12.0962C4.31285 13.0052 5.47104 13.6243 6.73192 13.8751C7.99279 14.1259 9.29973 13.9972 10.4874 13.5052C11.6752 13.0132 12.6903 12.1801 13.4046 11.1112C14.1188 10.0423 14.5 8.78558 14.5 7.5C14.4982 5.77665 13.8128 4.12441 12.5942 2.90582C11.3756 1.68722 9.72335 1.00182 8 1ZM6.35188 10H9.64813C9.3125 11.1462 8.75 12.1794 8 12.9931C7.25 12.1794 6.6875 11.1462 6.35188 10ZM6.125 9C5.95917 8.00688 5.95917 6.99312 6.125 6H9.875C10.0408 6.99312 10.0408 8.00688 9.875 9H6.125ZM2.5 7.5C2.49957 6.99277 2.56961 6.48795 2.70813 6H5.11188C4.96271 6.99444 4.96271 8.00556 5.11188 9H2.70813C2.56961 8.51205 2.49957 8.00723 2.5 7.5ZM9.64813 5H6.35188C6.6875 3.85375 7.25 2.82063 8 2.00688C8.75 2.82063 9.3125 3.85375 9.64813 5ZM10.8881 6H13.2919C13.5694 6.98075 13.5694 8.01925 13.2919 9H10.8881C11.0373 8.00556 11.0373 6.99444 10.8881 6ZM12.8981 5H10.6838C10.4286 3.99594 10.0001 3.04415 9.4175 2.1875C10.1618 2.38751 10.856 2.74108 11.4554 3.22546C12.0549 3.70984 12.5463 4.31431 12.8981 5ZM6.5825 2.1875C5.99994 3.04415 5.57142 3.99594 5.31625 5H3.10188C3.45371 4.31431 3.94515 3.70984 4.54459 3.22546C5.14404 2.74108 5.83822 2.38751 6.5825 2.1875ZM3.10188 10H5.31625C5.57142 11.0041 5.99994 11.9558 6.5825 12.8125C5.83822 12.6125 5.14404 12.2589 4.54459 11.7745C3.94515 11.2902 3.45371 10.6857 3.10188 10ZM9.4175 12.8125C10.0001 11.9558 10.4286 11.0041 10.6838 10H12.8981C12.5463 10.6857 12.0549 11.2902 11.4554 11.7745C10.856 12.2589 10.1618 12.6125 9.4175 12.8125Z" fill="black"/>
</svg>
