<svg width="39" height="39" viewBox="0 0 39 39" fill="none" xmlns="http://www.w3.org/2000/svg">
<path d="M34.0945 23.4207L28.317 26.757C28.0248 26.4692 27.6638 26.2611 27.2683 26.1525L18.9674 23.9283C18.5324 23.8122 18.0772 23.7934 17.6341 23.8734L12.1875 24.8625V23.7656C12.1875 23.604 12.1233 23.449 12.009 23.3347C11.8947 23.2204 11.7397 23.1562 11.5781 23.1562H5.48437C5.32276 23.1562 5.16776 23.2204 5.05348 23.3347C4.9392 23.449 4.875 23.604 4.875 23.7656V24.375H1.82812C1.66651 24.375 1.51151 24.4392 1.39723 24.5534C1.28295 24.6677 1.21875 24.8227 1.21875 24.9843V35.9531C1.21875 36.1147 1.28295 36.2697 1.39723 36.384C1.51151 36.4983 1.66651 36.5625 1.82812 36.5625H4.875V37.1718C4.875 37.3335 4.9392 37.4884 5.05348 37.6027C5.16776 37.717 5.32276 37.7812 5.48437 37.7812H11.5781C11.7397 37.7812 11.8947 37.717 12.009 37.6027C12.1233 37.4884 12.1875 37.3335 12.1875 37.1718V35.415L21.617 36.4631C22.3144 36.5398 23.0169 36.3741 23.6066 35.9939L36.532 27.6455C36.9043 27.4333 37.2135 27.1258 37.4276 26.7546C37.6418 26.3834 37.7534 25.9619 37.7508 25.5334C37.751 25.1054 37.6385 24.6849 37.4246 24.3142C37.2108 23.9435 36.9031 23.6357 36.5325 23.4216C36.1619 23.2075 35.7415 23.0948 35.3136 23.0947C34.8856 23.0947 34.4652 23.2073 34.0945 23.4213V23.4207ZM2.4375 35.3437V25.5937H4.875V35.3437H2.4375ZM10.9687 36.5625H6.09375V24.375H10.9687V36.5625ZM35.8965 26.6053L22.9448 34.9702C22.5908 35.1977 22.1694 35.2971 21.751 35.2517L12.1875 34.1889V26.1025L17.8547 25.0727C18.1203 25.0239 18.3934 25.035 18.6542 25.105L26.9551 27.3292C27.2673 27.4129 27.5335 27.6173 27.6951 27.8972C27.8567 28.1772 27.9005 28.5099 27.8167 28.8222C27.733 29.1344 27.5287 29.4006 27.2487 29.5622C26.9687 29.7238 26.636 29.7676 26.3238 29.6838L20.2672 28.0617C20.1892 28.0385 20.1073 28.0311 20.0264 28.0401C19.9455 28.0491 19.8672 28.0742 19.7961 28.1139C19.725 28.1536 19.6627 28.2072 19.6127 28.2714C19.5626 28.3356 19.526 28.4093 19.5049 28.4879C19.4838 28.5665 19.4787 28.6486 19.4899 28.7292C19.501 28.8099 19.5282 28.8874 19.5698 28.9574C19.6115 29.0274 19.6667 29.0883 19.7322 29.1365C19.7978 29.1848 19.8724 29.2194 19.9515 29.2384L26.0063 30.8611C26.3155 30.9441 26.6381 30.9653 26.9556 30.9235C27.273 30.8818 27.5791 30.7779 27.8564 30.6178C28.1337 30.4577 28.3767 30.2445 28.5716 29.9905C28.7665 29.7365 28.9094 29.4465 28.9922 29.1372C29.1092 28.6952 29.0984 28.2291 28.9612 27.7929L34.7015 24.4779C34.8411 24.3994 34.9949 24.3492 35.154 24.3301C35.3131 24.3111 35.4744 24.3235 35.6287 24.3668C35.783 24.41 35.9272 24.4833 36.0532 24.5823C36.1792 24.6813 36.2844 24.8041 36.3629 24.9438C36.4414 25.0835 36.4917 25.2373 36.5107 25.3964C36.5298 25.5555 36.5174 25.7167 36.4741 25.871C36.4308 26.0253 36.3576 26.1696 36.2586 26.2955C36.1596 26.4215 36.0361 26.5268 35.8965 26.6053Z" fill="#040F81"/>
<path d="M8.53125 35.9531C8.89282 35.9531 9.24627 35.8459 9.5469 35.645C9.84754 35.4442 10.0819 35.1586 10.2202 34.8246C10.3586 34.4905 10.3948 34.123 10.3242 33.7684C10.2537 33.4137 10.0796 33.088 9.82393 32.8323C9.56826 32.5767 9.24252 32.4025 8.8879 32.332C8.53328 32.2615 8.1657 32.2977 7.83166 32.436C7.49761 32.5744 7.2121 32.8087 7.01122 33.1093C6.81034 33.41 6.70313 33.7634 6.70312 34.125C6.70312 34.6098 6.89573 35.0748 7.23857 35.4177C7.58141 35.7605 8.0464 35.9531 8.53125 35.9531ZM8.53125 33.5156C8.65177 33.5156 8.76959 33.5514 8.8698 33.6183C8.97001 33.6853 9.04812 33.7805 9.09424 33.8918C9.14036 34.0032 9.15243 34.1257 9.12892 34.2439C9.1054 34.3621 9.04737 34.4707 8.96214 34.5559C8.87692 34.6411 8.76834 34.6992 8.65013 34.7227C8.53193 34.7462 8.4094 34.7341 8.29805 34.688C8.1867 34.6419 8.09153 34.5638 8.02457 34.4636C7.95761 34.3633 7.92188 34.2455 7.92188 34.125C7.92188 33.9634 7.98608 33.8084 8.10036 33.6941C8.21464 33.5798 8.36963 33.5156 8.53125 33.5156Z" fill="#040F81"/>
<path d="M26.2022 21H23.7988C23.6638 21 23.5344 20.9464 23.439 20.851C23.3435 20.7555 23.2899 20.6261 23.2899 20.4912V18.8435C22.357 18.6394 21.4677 18.271 20.6639 17.7553L19.4991 18.9201C19.4518 18.9673 19.3957 19.0048 19.334 19.0304C19.2723 19.056 19.2061 19.0691 19.1393 19.0691C19.0725 19.0691 19.0063 19.056 18.9445 19.0304C18.8828 19.0048 18.8267 18.9673 18.7795 18.9201L17.0799 17.2206C17.0327 17.1733 16.9952 17.1172 16.9696 17.0555C16.944 16.9938 16.9309 16.9276 16.9309 16.8608C16.9309 16.7939 16.944 16.7278 16.9696 16.666C16.9952 16.6043 17.0327 16.5482 17.0799 16.501L18.2447 15.3362C17.7291 14.5326 17.3607 13.6436 17.1565 12.7109H15.5088C15.3739 12.7109 15.2445 12.6573 15.149 12.5619C15.0536 12.4664 15 12.337 15 12.2021V9.79867C15 9.66372 15.0536 9.5343 15.149 9.43888C15.2445 9.34345 15.3739 9.28984 15.5088 9.28984H17.1565C17.3606 8.35687 17.7291 7.46766 18.2447 6.66378L17.0799 5.49904C17.0327 5.45179 16.9952 5.3957 16.9696 5.33396C16.944 5.27222 16.9309 5.20605 16.9309 5.13923C16.9309 5.0724 16.944 5.00623 16.9696 4.94449C16.9952 4.88275 17.0327 4.82666 17.0799 4.77941L18.7795 3.07991C18.8267 3.03266 18.8828 2.99517 18.9445 2.9696C19.0063 2.94402 19.0725 2.93086 19.1393 2.93086C19.2061 2.93086 19.2723 2.94402 19.334 2.9696C19.3957 2.99517 19.4518 3.03266 19.4991 3.07991L20.6639 4.24465C21.4677 3.72903 22.357 3.36056 23.2899 3.15648V1.50883C23.2899 1.37388 23.3435 1.24446 23.439 1.14903C23.5344 1.05361 23.6638 1 23.7988 1H26.2022C26.3371 1 26.4666 1.05361 26.562 1.14903C26.6574 1.24446 26.711 1.37388 26.711 1.50883V3.15648C27.644 3.36056 28.5332 3.72903 29.3371 4.24465L30.5019 3.07991C30.5491 3.03266 30.6052 2.99517 30.667 2.9696C30.7287 2.94402 30.7949 2.93086 30.8617 2.93086C30.9285 2.93086 30.9947 2.94402 31.0564 2.9696C31.1182 2.99517 31.1743 3.03266 31.2215 3.07991L32.921 4.77941C32.9683 4.82666 33.0058 4.88275 33.0313 4.94449C33.0569 5.00623 33.0701 5.0724 33.0701 5.13923C33.0701 5.20605 33.0569 5.27222 33.0313 5.33396C33.0058 5.3957 32.9683 5.45179 32.921 5.49904L31.7563 6.66378C32.2716 7.4678 32.6397 8.35709 32.8435 9.29008H34.4912C34.6261 9.29008 34.7555 9.34369 34.851 9.43911C34.9464 9.53454 35 9.66396 35 9.79891V12.2021C35 12.337 34.9464 12.4664 34.851 12.5619C34.7555 12.6573 34.6261 12.7109 34.4912 12.7109H32.8435C32.6394 13.6439 32.2709 14.5331 31.7553 15.3369L32.9201 16.5017C32.9673 16.5489 33.0048 16.605 33.0304 16.6668C33.056 16.7285 33.0691 16.7947 33.0691 16.8615C33.0691 16.9283 33.056 16.9945 33.0304 17.0562C33.0048 17.118 32.9673 17.1741 32.9201 17.2213L31.2205 18.9208C31.1733 18.9681 31.1172 19.0056 31.0555 19.0311C30.9937 19.0567 30.9276 19.0699 30.8607 19.0699C30.7939 19.0699 30.7277 19.0567 30.666 19.0311C30.6042 19.0056 30.5482 18.9681 30.5009 18.9208L29.3361 17.7561C28.5323 18.2717 27.643 18.6402 26.7101 18.8442V20.4919C26.7099 20.6266 26.6563 20.7556 26.5611 20.8509C26.4659 20.9461 26.3368 20.9997 26.2022 21ZM24.3076 19.9823H25.6934V18.4231C25.6934 18.3022 25.7365 18.1852 25.8149 18.0932C25.8934 18.0011 26.0021 17.94 26.1215 17.9208C27.1975 17.7462 28.2179 17.3231 29.1018 16.6851C29.1999 16.6143 29.3199 16.5807 29.4405 16.5904C29.561 16.6001 29.6742 16.6524 29.7597 16.7379L30.8627 17.8406L31.8425 16.8608L30.7396 15.7578C30.6541 15.6723 30.6019 15.5592 30.5923 15.4387C30.5826 15.3182 30.6162 15.1982 30.687 15.1002C31.3249 14.2163 31.748 13.1959 31.9227 12.1199C31.9419 12.0005 32.003 11.8918 32.0951 11.8134C32.1871 11.7349 32.3041 11.6918 32.425 11.6918H33.9823V10.3061H32.4231C32.3022 10.306 32.1852 10.2629 32.0931 10.1845C32.0011 10.106 31.94 9.99732 31.9208 9.8779C31.7462 8.80191 31.3231 7.78146 30.6851 6.8976C30.6142 6.79959 30.5806 6.67955 30.5902 6.559C30.5999 6.43845 30.6521 6.32527 30.7376 6.23976L31.8406 5.1368L30.8607 4.15694L29.7578 5.25989C29.6722 5.3454 29.5591 5.39766 29.4385 5.40729C29.318 5.41693 29.1979 5.38331 29.0999 5.31247C28.216 4.67451 27.1956 4.2514 26.1196 4.07674C26.0001 4.05756 25.8915 3.99647 25.813 3.90442C25.7345 3.81238 25.6914 3.6954 25.6914 3.57445V2.01888H24.3057V3.57808C24.3057 3.69903 24.2625 3.81601 24.1841 3.90806C24.1056 4.0001 23.9969 4.06119 23.8775 4.08037C22.8015 4.25507 21.7811 4.67818 20.8972 5.31611C20.7992 5.38688 20.6792 5.42046 20.5587 5.41082C20.4382 5.40119 20.3251 5.34897 20.2396 5.26353L19.1366 4.16057L18.1599 5.13947L19.2624 6.24145C19.3479 6.32697 19.4001 6.44015 19.4098 6.5607C19.4194 6.68125 19.3858 6.80129 19.3149 6.8993C18.6769 7.78316 18.2538 8.80361 18.0792 9.8796C18.06 9.99902 17.9989 10.1077 17.9069 10.1862C17.8148 10.2646 17.6978 10.3077 17.5769 10.3077H16.0186V11.6932H17.5784C17.6993 11.6932 17.8163 11.7364 17.9083 11.8148C18.0004 11.8933 18.0615 12.002 18.0806 12.1214C18.2554 13.1973 18.6785 14.2178 19.3164 15.1017C19.3872 15.1997 19.4208 15.3197 19.4111 15.4401C19.4015 15.5606 19.3493 15.6738 19.2638 15.7593L18.1599 16.8617L19.1398 17.8416L20.2427 16.7389C20.3282 16.6534 20.4413 16.6012 20.5618 16.5915C20.6823 16.5818 20.8023 16.6153 20.9003 16.6861C21.7842 17.324 22.8047 17.7471 23.8807 17.9218C24.0001 17.941 24.1088 18.0021 24.1872 18.0941C24.2657 18.1862 24.3088 18.3032 24.3088 18.4241L24.3076 19.9823Z" fill="#040F81"/>
<path d="M24.9999 16C22.2429 16 20 13.7571 20 11.0001C20 8.24311 22.2429 6 24.9999 6C27.7569 6 30 8.24311 30 11.0001C30 13.7571 27.7569 16 24.9999 16ZM24.9999 7.06537C22.8303 7.06537 21.0654 8.83058 21.0654 11.0001C21.0654 13.1697 22.8303 14.9346 24.9999 14.9346C27.1694 14.9346 28.9346 13.1697 28.9346 11.0001C28.9346 8.83058 27.1697 7.06537 24.9999 7.06537Z" fill="#040F81"/>
</svg>