<svg width="33" height="33" viewBox="0 0 33 33" fill="none" xmlns="http://www.w3.org/2000/svg">
  <path d="M31.3714 26.8713L24.7336 20.2335C24.5411 20.0417 24.3029 19.9022 24.0416 19.8279C23.7803 19.7537 23.5043 19.7472 23.2398 19.8091L21.3104 17.8798C22.8486 15.495 23.4504 12.6255 22.9999 9.82366C22.5495 7.0218 21.0786 4.48557 18.8704 2.70309C16.6622 0.92061 13.8728 0.0178588 11.0389 0.168581C8.2051 0.319303 5.52715 1.51285 3.52049 3.5195C1.51383 5.52615 0.32028 8.2041 0.169558 11.0379C0.0188349 13.8718 0.921589 16.6612 2.70407 18.8694C4.48656 21.0776 7.0228 22.5484 9.82466 22.9989C12.6265 23.4494 15.496 22.8476 17.8808 21.3094L19.8103 23.2389C19.7484 23.5034 19.7549 23.7793 19.8291 24.0406C19.9033 24.3019 20.0428 24.54 20.2345 24.7325L26.8724 31.3704C27.3741 31.8711 28.054 32.1523 28.7629 32.1523C29.4718 32.1523 30.1517 31.8711 30.6534 31.3704L31.3714 30.6524C31.8721 30.1506 32.1533 29.4707 32.1533 28.7618C32.1533 28.053 31.8721 27.3731 31.3714 26.8713ZM4.27947 19.0241C2.82126 17.5659 1.8282 15.708 1.42588 13.6854C1.02356 11.6629 1.23004 9.56638 2.01922 7.66114C2.8084 5.75591 4.14483 4.12747 5.8595 2.98176C7.57417 1.83606 9.59009 1.22454 11.6523 1.22454C13.7145 1.22454 15.7304 1.83606 17.4451 2.98176C19.1598 4.12747 20.4962 5.75591 21.2854 7.66114C22.0746 9.56638 22.2811 11.6629 21.8787 13.6854C21.4764 15.708 20.4834 17.5659 19.0251 19.0241C17.0682 20.9766 14.4167 22.0732 11.6523 22.0732C8.88791 22.0732 6.23639 20.9766 4.27947 19.0241ZM19.7814 19.7803C20.1002 19.4581 20.3997 19.1174 20.6783 18.7599L22.3085 20.39L20.391 22.3074L18.7609 20.6773C19.1184 20.3986 19.4591 20.0991 19.7814 19.7803ZM20.9906 23.22L23.2211 20.9896C23.3215 20.8894 23.4575 20.8332 23.5993 20.8332C23.741 20.8332 23.8771 20.8894 23.9774 20.9896L24.7986 21.8107L21.8117 24.7975L20.9906 23.9764C20.8905 23.876 20.8344 23.74 20.8344 23.5982C20.8344 23.4564 20.8905 23.3204 20.9906 23.22ZM30.6153 29.8963L29.8973 30.6143C29.5962 30.9147 29.1883 31.0834 28.7629 31.0834C28.3376 31.0834 27.9296 30.9147 27.6285 30.6143L22.5678 25.5536L25.5547 22.5668L30.6153 27.6274C30.9158 27.9285 31.0845 28.3365 31.0845 28.7618C31.0845 29.1872 30.9158 29.5952 30.6153 29.8963ZM11.6523 2.29396C9.8016 2.29396 7.99245 2.84276 6.45364 3.87096C4.91483 4.89915 3.71547 6.36057 3.00723 8.0704C2.299 9.78023 2.11369 11.6617 2.47474 13.4768C2.8358 15.292 3.727 16.9593 5.03565 18.2679C6.3443 19.5766 8.01162 20.4678 9.82678 20.8288C11.6419 21.1899 13.5234 21.0046 15.2332 20.2963C16.943 19.5881 18.4045 18.3888 19.4327 16.85C20.4609 15.3111 21.0097 13.502 21.0097 11.6513C21.0068 9.17044 20.0201 6.79201 18.2658 5.03779C16.5116 3.28356 14.1332 2.29679 11.6523 2.29396ZM11.6523 19.9392C10.0131 19.9392 8.41072 19.4531 7.04777 18.5425C5.68482 17.6318 4.62254 16.3374 3.99524 14.8229C3.36795 13.3085 3.20382 11.6421 3.52361 10.0344C3.8434 8.4267 4.63275 6.94993 5.79184 5.79085C6.95093 4.63176 8.4277 3.84241 10.0354 3.52262C11.6431 3.20283 13.3095 3.36696 14.824 3.99425C16.3384 4.62155 17.6328 5.68383 18.5435 7.04677C19.4542 8.40971 19.9403 10.0121 19.9403 11.6513C19.9378 13.8486 19.0638 15.9553 17.5101 17.509C15.9563 19.0628 13.8497 19.9368 11.6523 19.9392ZM12.9943 8.13681C13.2507 7.87355 13.4237 7.54049 13.4917 7.17936C13.5596 6.81822 13.5195 6.44506 13.3764 6.10659C13.2333 5.76813 12.9935 5.47942 12.6871 5.27661C12.3806 5.0738 12.0211 4.96591 11.6537 4.96645C11.2862 4.96699 10.927 5.07593 10.6212 5.27964C10.3153 5.48334 10.0764 5.77276 9.93425 6.11164C9.79212 6.45052 9.75313 6.8238 9.82216 7.18473C9.8912 7.54567 10.0652 7.87821 10.3223 8.14073C10.494 8.32302 10.7011 8.46821 10.9311 8.56732C11.161 8.66644 11.4088 8.71739 11.6592 8.71702C11.9095 8.71666 12.1572 8.66498 12.3868 8.56519C12.6165 8.4654 12.8232 8.31961 12.9943 8.13681ZM11.0876 6.27396C11.1617 6.19882 11.25 6.13912 11.3473 6.0983C11.4446 6.05749 11.5491 6.03638 11.6546 6.03618C11.7602 6.03599 11.8647 6.05672 11.9622 6.09718C12.0597 6.13764 12.1482 6.19702 12.2225 6.27189C12.2969 6.34676 12.3557 6.43563 12.3956 6.53337C12.4354 6.63111 12.4554 6.73578 12.4546 6.84131C12.4537 6.94685 12.4319 7.05117 12.3905 7.14824C12.349 7.2453 12.2888 7.33319 12.2131 7.40681C12.1427 7.48542 12.0564 7.54821 11.9599 7.59106C11.8634 7.63391 11.759 7.65585 11.6534 7.65543C11.5478 7.65501 11.4436 7.63225 11.3474 7.58863C11.2513 7.54501 11.1655 7.48154 11.0957 7.40238C11.0185 7.33031 10.9568 7.24326 10.9144 7.14655C10.872 7.04985 10.8497 6.94551 10.8489 6.83991C10.8482 6.73431 10.8689 6.62966 10.91 6.53236C10.951 6.43505 11.0114 6.34713 11.0876 6.27396ZM12.8489 9.52788C11.8712 8.97258 9.81915 9.18423 9.78083 10.5647V16.9286C9.80251 18.7007 13.4837 18.6715 13.5238 16.9286V10.5647C13.5206 10.3458 13.4555 10.1323 13.3361 9.9488C13.2166 9.76534 13.0477 9.61941 12.8489 9.52788ZM12.3066 17.0278C12.0804 17.1545 11.8223 17.2126 11.5637 17.195C11.305 17.1774 11.0571 17.0848 10.8502 16.9286V10.5647C11.0981 10.2134 12.1612 10.2356 12.4544 10.5647L12.4604 16.8973C12.4197 16.9519 12.3671 16.9966 12.3066 17.0278Z" fill="#3D4DB6"/>
</svg>
