<svg width="32" height="32" viewBox="0 0 32 32" fill="none" xmlns="http://www.w3.org/2000/svg">
  <g clip-path="url(#clip0_4642_1070)">
    <path d="M5.62817 24.7468C5.18018 24.7468 4.74951 24.8586 4.36743 25.0686C2.35474 22.4885 1.25 19.2834 1.25 16C1.25 7.8667 7.8667 1.25 16 1.25C16.9888 1.25 17.977 1.34839 18.9375 1.54248C19.2754 1.61084 19.6055 1.39209 19.6738 1.05371C19.7422 0.715332 19.5234 0.385742 19.1851 0.317139C18.1433 0.106689 17.0718 0 16 0C11.7263 0 7.70825 1.66431 4.68628 4.68628C1.66431 7.70825 0 11.7263 0 16C0 19.595 1.2207 23.1033 3.44311 25.9158C3.15698 26.3433 3.00317 26.8457 3.00317 27.3718C3.00317 28.073 3.27637 28.7322 3.77222 29.2278C4.26782 29.7236 4.927 29.9968 5.62817 29.9968C6.32934 29.9968 6.98852 29.7236 7.48437 29.2278C7.98022 28.7322 8.25317 28.0728 8.25317 27.3716C8.25317 26.6707 7.98022 26.0112 7.48437 25.5156C6.98852 25.0198 6.32934 24.7468 5.62817 24.7468ZM6.60034 28.344C6.34082 28.6038 5.99536 28.7468 5.62817 28.7468C5.26099 28.7468 4.91577 28.6038 4.65601 28.344C4.39624 28.0842 4.25317 27.739 4.25317 27.3718C4.25317 27.0044 4.39624 26.6592 4.65601 26.3994C4.91553 26.1396 5.26099 25.9968 5.62817 25.9968C5.99536 25.9968 6.34058 26.1399 6.60034 26.3994C6.86011 26.6592 7.00317 27.0044 7.00317 27.3718C7.00317 27.739 6.86011 28.0842 6.60034 28.344Z" fill="#3D4DB6"/>
    <path d="M28.5564 6.08325C29.2359 5.06396 29.1267 3.67041 28.2281 2.77173C27.7322 2.27612 27.073 2.00293 26.3719 2.00293C25.6707 2.00293 25.0115 2.27612 24.5157 2.77173C24.0198 3.26758 23.7469 3.92676 23.7469 4.62793C23.7469 5.3291 24.0198 5.98828 24.5157 6.48413C25.0115 6.97998 25.6707 7.25293 26.3719 7.25293C26.8199 7.25293 27.2505 7.14111 27.6326 6.93115C29.6453 9.51147 30.75 12.7163 30.75 15.9998C30.75 24.1331 24.1333 30.7498 16 30.7498C15.021 30.7498 14.042 30.6533 13.0906 30.4629C12.7522 30.3953 12.4229 30.6147 12.355 30.9531C12.2874 31.2917 12.5069 31.6208 12.8452 31.6887C13.8772 31.895 14.9388 31.9998 16 31.9998C20.2737 31.9998 24.2918 30.3354 27.3138 27.3135C30.3357 24.2915 32 20.2734 32 15.9998C32 12.4045 30.7791 8.896 28.5564 6.08325ZM25.3997 5.60034C25.1399 5.34058 24.9969 4.99536 24.9969 4.62793C24.9969 4.26074 25.1399 3.91553 25.3997 3.65576C25.6592 3.396 26.0047 3.25293 26.3719 3.25293C26.739 3.25293 27.0845 3.396 27.3443 3.65576C27.8802 4.19189 27.8802 5.06421 27.3443 5.60034C27.0845 5.85986 26.739 6.00293 26.3719 6.00293C26.0044 6.00293 25.6592 5.85986 25.3997 5.60034Z" fill="#3D4DB6"/>
    <path d="M13.4209 26.75C13.4209 27.0952 13.7009 27.375 14.0459 27.375H17.9539C18.2991 27.375 18.5789 27.0952 18.5789 26.75V25.5383C19.4006 25.3171 20.1863 24.9915 20.9246 24.5662L21.78 25.4216C21.8972 25.5388 22.0562 25.6047 22.2222 25.6047C22.3877 25.6047 22.5469 25.5388 22.6641 25.4214L25.4263 22.6572C25.6702 22.4131 25.6702 22.0173 25.4263 21.7734L24.5718 20.9189C24.9971 20.1807 25.3228 19.395 25.5439 18.5732H26.751C27.0962 18.5732 27.376 18.2935 27.376 17.9482V14.0403C27.376 13.6951 27.0962 13.4153 26.751 13.4153H25.5437C25.3225 12.5938 24.9971 11.8081 24.5718 11.0698L25.4216 10.22C25.5388 10.1028 25.6047 9.9436 25.6047 9.77783C25.6045 9.61206 25.5386 9.45288 25.4214 9.33569L22.657 6.57349C22.4131 6.32959 22.0173 6.32959 21.7732 6.57373L20.9246 7.42261C20.1863 6.99731 19.4006 6.67163 18.5789 6.45044V5.25C18.5789 4.90479 18.2991 4.625 17.9539 4.625H14.0459C13.7009 4.625 13.4209 4.90479 13.4209 5.25V6.45068C12.5994 6.67163 11.8137 6.99731 11.0754 7.42261L10.2266 6.57373C9.98267 6.32983 9.58691 6.32959 9.34277 6.57349L6.57861 9.33594C6.46118 9.45312 6.39526 9.61206 6.39526 9.77783C6.39526 9.9436 6.46118 10.1028 6.57837 10.22L7.42822 11.0698C7.00293 11.8081 6.67725 12.5935 6.45606 13.4153H5.25122C4.90601 13.4153 4.62622 13.6951 4.62622 14.04L4.62402 17.948C4.62378 18.1138 4.6897 18.2729 4.80689 18.3901C4.92407 18.5073 5.08301 18.5732 5.24902 18.5732H6.45606C6.67725 19.395 7.00293 20.1807 7.42822 20.9189L6.57373 21.7734C6.32983 22.0173 6.32959 22.4131 6.57373 22.6572L9.33594 25.4214C9.45313 25.5386 9.61206 25.6047 9.77783 25.6047H9.77808C9.94385 25.6047 10.1028 25.5388 10.22 25.4216L11.0752 24.5662C11.8137 24.9915 12.5994 25.3171 13.4209 25.5383V26.75ZM11.3203 23.2517C11.073 23.0918 10.7476 23.1265 10.5391 23.3347L9.77808 24.0957L7.89941 22.2156L8.65967 21.4551C8.86792 21.2468 8.90259 20.9214 8.74268 20.6741C8.17603 19.7971 7.77759 18.8359 7.55884 17.8169C7.49683 17.5291 7.24243 17.3232 6.94775 17.3232H5.87427L5.87573 14.6653H6.94775C7.24243 14.6653 7.49683 14.4597 7.55884 14.1716C7.77759 13.1528 8.17603 12.1917 8.74268 11.3147C8.90259 11.0674 8.86792 10.7419 8.65967 10.5337L7.9043 9.77808L9.78442 7.89941L10.5391 8.6543C10.7476 8.86255 11.0728 8.89697 11.3203 8.7373C12.197 8.17065 13.1582 7.77222 14.1772 7.55347C14.4651 7.49146 14.6709 7.23682 14.6709 6.94238V5.875H17.3289V6.94214C17.3289 7.23682 17.5344 7.49146 17.8225 7.55322C18.8413 7.77222 19.8027 8.17041 20.6794 8.73706C20.9268 8.89697 21.2522 8.86255 21.4604 8.65405L22.2153 7.89941L24.0955 9.77808L23.3401 10.5334C23.1316 10.7419 23.0972 11.0674 23.2571 11.3147C23.8237 12.1917 24.2219 13.1528 24.4409 14.1716C24.5027 14.4597 24.7573 14.6653 25.052 14.6653H26.126V17.3232H25.052C24.7573 17.3232 24.5029 17.5291 24.4409 17.8169C24.2222 18.8357 23.8237 19.7971 23.2571 20.6738C23.0972 20.9214 23.1318 21.2468 23.3401 21.4551L24.1003 22.2153L22.2217 24.0955L21.4607 23.3347C21.2522 23.1262 20.9268 23.0918 20.6794 23.2517C19.8025 23.8184 18.8413 24.2166 17.8225 24.4355C17.5344 24.4976 17.3289 24.752 17.3289 25.0466V26.125H14.6709V25.0466C14.6709 24.7522 14.4651 24.4976 14.1772 24.4355C13.1584 24.2168 12.1973 23.8184 11.3203 23.2517Z" fill="#3D4DB6"/>
    <path d="M21.1646 16.0002C21.1646 13.1526 18.8479 10.8359 16.0002 10.8359C13.1526 10.8359 10.8359 13.1526 10.8359 16.0002C10.8359 18.8479 13.1526 21.1646 16.0002 21.1646C18.8479 21.1646 21.1646 18.8479 21.1646 16.0002ZM12.0859 16.0002C12.0859 13.8418 13.8418 12.0859 16.0002 12.0859C18.1587 12.0859 19.9146 13.842 19.9146 16.0002C19.9146 18.1584 18.1587 19.9146 16.0002 19.9146C13.8418 19.9146 12.0859 18.1587 12.0859 16.0002Z" fill="#3D4DB6"/>
    <path d="M21.7549 2.36401C21.9194 2.36401 22.0806 2.29712 22.1968 2.18091C22.313 2.06396 22.3799 1.90283 22.3799 1.73828C22.3799 1.57471 22.3132 1.41333 22.1968 1.29639C22.0806 1.18018 21.9194 1.11328 21.7549 1.11328C21.5898 1.11328 21.4294 1.18018 21.3132 1.29639C21.1968 1.41333 21.1299 1.57397 21.1299 1.73828C21.1299 1.90332 21.1968 2.06396 21.3132 2.18091C21.4294 2.29712 21.5898 2.36401 21.7549 2.36401Z" fill="#3D4DB6"/>
    <path d="M10.2725 29.6475C10.1082 29.6475 9.94678 29.7144 9.83057 29.8306C9.71436 29.9468 9.64746 30.1082 9.64746 30.2725C9.64746 30.4375 9.71436 30.5981 9.83057 30.7144C9.94678 30.8306 10.1082 30.8975 10.2725 30.8975C10.4368 30.8975 10.5981 30.8306 10.7144 30.7144C10.8306 30.5981 10.8975 30.4368 10.8975 30.2725C10.8975 30.1082 10.8306 29.9468 10.7144 29.8306C10.5981 29.7144 10.4368 29.6475 10.2725 29.6475Z" fill="#3D4DB6"/>
  </g>
  <defs>
    <clipPath id="clip0_4642_1070">
      <rect width="32" height="32" fill="white"/>
    </clipPath>
  </defs>
</svg>
