<svg width="32" height="32" viewBox="0 0 32 32" fill="none" xmlns="http://www.w3.org/2000/svg">
  <g clip-path="url(#clip0_4674_9602)">
    <path d="M10.2998 11.4302C11.4714 11.4302 12.4248 10.4768 12.4248 9.30516C12.4248 8.39793 11.8533 7.6223 11.0515 7.31786C11.3249 5.83959 12.0283 4.50073 13.102 3.427C15.5615 0.96753 19.4641 0.548586 22.382 2.43091C22.6721 2.61792 23.059 2.53442 23.2461 2.24438C23.4333 1.95434 23.3498 1.56763 23.0598 1.38037C21.4177 0.321292 19.4367 -0.153561 17.4822 0.0437045C15.4993 0.243655 13.6299 1.13135 12.218 2.54297C10.9272 3.83373 10.0942 5.45312 9.79589 7.24095C8.8667 7.46776 8.1748 8.30687 8.1748 9.30516C8.1748 10.4768 9.12793 11.4302 10.2998 11.4302ZM10.2998 8.43016C10.7822 8.43016 11.1748 8.82249 11.1748 9.30516C11.1748 9.78758 10.7822 10.1802 10.2998 10.1802C9.81713 10.1802 9.4248 9.78758 9.4248 9.30516C9.4248 8.82249 9.81713 8.43016 10.2998 8.43016Z" fill="#3D4DB6"/>
    <path d="M14.1819 14.8349C13.8965 14.6406 13.5076 14.7146 13.3135 15C13.1192 15.2854 13.1932 15.674 13.4786 15.8684C14.9578 16.875 16.6577 17.3674 18.3496 17.3674C20.5916 17.3674 22.8191 16.5024 24.4981 14.8237C25.7881 13.5337 26.6213 11.9136 26.9199 10.126C27.8494 9.89916 28.5415 9.05981 28.5415 8.06152C28.5415 6.88989 27.5881 5.93652 26.4165 5.93652C25.2446 5.93652 24.2915 6.88989 24.2915 8.06152C24.2915 8.96874 24.863 9.74462 25.665 10.0488C25.3914 11.5273 24.6873 12.8667 23.6143 13.9397C21.0923 16.4616 17.1253 16.8381 14.1819 14.8349ZM26.4165 7.18652C26.8989 7.18652 27.2915 7.5791 27.2915 8.06152C27.2915 8.54394 26.8989 8.93652 26.4165 8.93652C25.9341 8.93652 25.5415 8.54394 25.5415 8.06152C25.5415 7.5791 25.9341 7.18652 26.4165 7.18652Z" fill="#3D4DB6"/>
    <path d="M18.0452 13.6273C18.1418 13.6832 18.2497 13.711 18.3577 13.711C18.4656 13.711 18.5735 13.6832 18.6702 13.6273L22.4826 11.4261C22.676 11.3146 22.7951 11.108 22.7951 10.8849V6.48254C22.7951 6.25915 22.676 6.05285 22.4826 5.94128L18.6702 3.74011C18.4768 3.6283 18.2385 3.6283 18.0452 3.74011L14.2324 5.94128C14.0391 6.05285 13.9199 6.25915 13.9199 6.48254V10.8849C13.9199 11.108 14.0391 11.3146 14.2324 11.4261L18.0452 13.6273ZM15.1702 7.56505L17.7327 9.04454V12.0035L15.1702 10.524V7.56505ZM18.9827 12.0035V9.04454L21.5451 7.56505V10.524L18.9827 12.0035ZM18.3577 5.00305L20.9201 6.48254L18.3577 7.96203L15.7952 6.48254L18.3577 5.00305Z" fill="#3D4DB6"/>
    <path d="M31.3136 19.369C31.2756 18.6881 30.9399 18.0648 30.3923 17.6586C29.5063 17.0011 28.277 17.0697 27.4694 17.8217L22.718 22.2467C22.7092 21.2872 22.0705 20.4383 21.1269 20.1766L15.5029 18.6161C13.5317 18.0692 11.4524 18.2987 9.64817 19.2621L5.59667 21.4256L5.04101 20.87C4.65917 20.4881 4.03808 20.4881 3.65624 20.87L0.808105 23.7181C0.563965 23.9623 0.563965 24.358 0.808105 24.6022C1.05225 24.8463 1.448 24.8463 1.69189 24.6022L4.34862 21.9454L11.103 28.7L8.8701 30.9329C8.6262 31.1771 8.6262 31.5728 8.8701 31.8167C8.99217 31.9388 9.15208 31.9998 9.31199 31.9998C9.4719 31.9998 9.63206 31.9388 9.75413 31.8167L12.1784 29.3922C12.3884 29.1822 12.4822 28.9 12.4612 28.6248H19.427C21.4609 28.6248 23.4011 27.8617 24.8898 26.4757L30.5881 21.171C31.0871 20.7067 31.3515 20.0497 31.3136 19.369ZM29.7363 20.2562L24.038 25.5606C22.7814 26.7306 21.1438 27.3748 19.427 27.3748H11.583C11.571 27.3748 11.5593 27.3758 11.5476 27.3766L6.52049 22.3495L10.2368 20.3651C11.7568 19.5533 13.5083 19.3602 15.1687 19.8207L20.7927 21.3812C21.2265 21.5016 21.5087 21.9139 21.4638 22.3617C21.4167 22.8353 21.0222 23.1922 20.5461 23.1922H13.3965C13.0515 23.1922 12.7717 23.472 12.7715 23.817C12.7715 24.162 13.051 24.442 13.396 24.4422L17.778 24.4464H20.5209C21.5976 24.4464 22.6245 24.0423 23.4123 23.3085L28.3215 18.7367C28.6877 18.3954 29.2455 18.3644 29.6474 18.6627C29.8959 18.8468 30.0483 19.1298 30.0654 19.4386C30.0827 19.7474 29.9628 20.0453 29.7363 20.2562Z" fill="#3D4DB6"/>
    <path d="M24.7832 4.44238C24.9478 4.44238 25.1089 4.37549 25.2251 4.25927C25.3416 4.14233 25.4082 3.98169 25.4082 3.81665C25.4082 3.65234 25.3416 3.4917 25.2251 3.37476C25.1089 3.25854 24.9478 3.19238 24.7832 3.19238C24.6189 3.19238 24.4578 3.25854 24.3416 3.37476C24.2251 3.49121 24.1582 3.65234 24.1582 3.81665C24.1582 3.98169 24.2251 4.14306 24.3416 4.25927C24.4578 4.37549 24.6189 4.44238 24.7832 4.44238Z" fill="#3D4DB6"/>
    <path d="M11.8154 12.7646C11.6504 12.7646 11.4897 12.8313 11.3735 12.9478C11.2566 13.064 11.1904 13.2251 11.1904 13.3896C11.1904 13.554 11.2566 13.7153 11.3735 13.8313C11.4897 13.9478 11.6504 14.0146 11.8154 14.0146C11.9797 14.0146 12.1404 13.9478 12.2573 13.8313C12.3735 13.7153 12.4404 13.554 12.4404 13.3896C12.4404 13.2251 12.3735 13.064 12.2573 12.9478C12.1411 12.8315 11.9797 12.7646 11.8154 12.7646Z" fill="#3D4DB6"/>
  </g>
  <defs>
    <clipPath id="clip0_4674_9602">
      <rect width="32" height="32" fill="white"/>
    </clipPath>
  </defs>
</svg>
