<svg width="38" height="38" viewBox="0 0 38 38" fill="none" xmlns="http://www.w3.org/2000/svg">
<path d="M28 13C29.88 15.51 31 18.62 31 22C31 30.28 24.28 37 16 37C7.72 37 1 30.28 1 22C1 13.72 7.72 7 16 7C19.38 7 22.49 8.12 25 10" stroke="white" stroke-width="1.5" stroke-linecap="round" stroke-linejoin="round"/>
<path d="M24.07 18C24.67 19.21 25.01 20.56 25.01 22C25.01 26.97 20.98 31 16.01 31C11.04 31 7.01001 26.97 7.01001 22C7.01001 17.03 11.04 13 16.01 13C17.58 13 19.05 13.4 20.33 14.1" stroke="white" stroke-width="1.5" stroke-linecap="round" stroke-linejoin="round"/>
<path d="M19.92 21.2C19.97 21.46 20 21.73 20 22.01C20 24.22 18.21 26.01 16 26.01C13.79 26.01 12 24.22 12 22.01C12 19.8 13.79 18.01 16 18.01C16.35 18.01 16.68 18.05 17 18.14" stroke="white" stroke-width="1.5" stroke-linecap="round" stroke-linejoin="round"/>
<path d="M16 22L28 10" stroke="white" stroke-width="1.5" stroke-linecap="round" stroke-linejoin="round"/>
<path d="M28 10H32L37 5H33V1L28 6V10Z" stroke="white" stroke-width="1.5" stroke-linecap="round" stroke-linejoin="round"/>
</svg>
