<svg width="48" height="48" viewBox="0 0 48 48" fill="none" xmlns="http://www.w3.org/2000/svg">
<path d="M33 15C34.88 17.51 36 20.62 36 24C36 32.28 29.28 39 21 39C12.72 39 6 32.28 6 24C6 15.72 12.72 9 21 9C24.38 9 27.49 10.12 30 12" stroke="white" stroke-width="1.5" stroke-linecap="round" stroke-linejoin="round"/>
<path d="M29.07 20C29.67 21.21 30.01 22.56 30.01 24C30.01 28.97 25.98 33 21.01 33C16.04 33 12.01 28.97 12.01 24C12.01 19.03 16.04 15 21.01 15C22.58 15 24.05 15.4 25.33 16.1" stroke="white" stroke-width="1.5" stroke-linecap="round" stroke-linejoin="round"/>
<path d="M24.92 23.2C24.97 23.46 25 23.73 25 24.01C25 26.22 23.21 28.01 21 28.01C18.79 28.01 17 26.22 17 24.01C17 21.8 18.79 20.01 21 20.01C21.35 20.01 21.68 20.05 22 20.14" stroke="white" stroke-width="1.5" stroke-linecap="round" stroke-linejoin="round"/>
<path d="M21 24L33 12" stroke="white" stroke-width="1.5" stroke-linecap="round" stroke-linejoin="round"/>
<path d="M33 12H37L42 7H38V3L33 8V12Z" stroke="white" stroke-width="1.5" stroke-linecap="round" stroke-linejoin="round"/>
</svg>
