<svg width="39" height="39" viewBox="0 0 39 39" fill="none" xmlns="http://www.w3.org/2000/svg">
<path d="M25.6735 5.10193H35.7383C36.9925 5.10193 38.0103 6.11971 38.0103 7.37395V29.5596C38.0103 30.8138 36.9925 31.8316 35.7383 31.8316H3.27202C2.01778 31.8316 1 30.8138 1 29.5596V7.37395C1 6.11971 2.01778 5.10193 3.27202 5.10193H5.11225" stroke="white" stroke-width="1.5" stroke-linecap="round" stroke-linejoin="round"/>
<path d="M38.0103 27.7194H1" stroke="white" stroke-width="1.5" stroke-linecap="round" stroke-linejoin="round"/>
<path d="M27.7298 38H11.2808" stroke="white" stroke-width="1.5" stroke-linecap="round" stroke-linejoin="round"/>
<path d="M13.5732 37.5477L15.835 35.9542C16.2051 35.6972 16.4313 35.142 16.421 34.5355V31.8317" stroke="white" stroke-width="1.5" stroke-linecap="round" stroke-linejoin="round"/>
<path d="M22.5894 31.8317V34.5355C22.5894 35.142 22.8155 35.6869 23.1754 35.9439L25.4371 37.5374" stroke="white" stroke-width="1.5" stroke-linecap="round" stroke-linejoin="round"/>
<path d="M22.5071 7.32259L22.4763 7.26091C22.1679 6.51042 22.2295 5.65713 22.6408 4.96832L22.8464 4.62906L21.0061 2.78883L20.6875 2.98416C19.9781 3.40567 19.1145 3.46735 18.3435 3.15893L18.3023 3.13837C17.5416 2.81967 16.9761 2.17199 16.7808 1.3701L16.6883 1H14.0873L13.9948 1.3701C13.7891 2.16171 13.2237 2.81967 12.4732 3.13837L12.4321 3.15893C11.6713 3.47763 10.7975 3.41595 10.0881 2.98416L9.76942 2.78883L7.92918 4.62906L8.12452 4.94776C8.54602 5.65713 8.60771 6.5207 8.29929 7.29175L8.27873 7.35343C7.97031 8.10392 7.32263 8.65907 6.5413 8.8544L6.15063 8.95721V11.5582L6.52074 11.6507C7.31235 11.8564 7.97031 12.4218 8.28901 13.1723L8.30957 13.2134C8.62827 13.9742 8.56658 14.848 8.1348 15.5574L7.93946 15.8761L9.7797 17.7163L10.0984 17.521C10.8078 17.0995 11.6713 17.0378 12.4424 17.3462L12.4835 17.3668C13.2443 17.6855 13.8097 18.3331 14.005 19.135L14.0976 19.5051H16.6986L16.7911 19.135C16.9967 18.3434 17.5621 17.6855 18.3126 17.3668L18.3537 17.3462C19.1145 17.0275 19.9884 17.0892 20.6977 17.521L21.0164 17.7163L22.8567 15.8761L22.6511 15.5368C22.2398 14.8377 22.1781 13.9947 22.4866 13.2442L22.5174 13.1826C22.8361 12.4218 23.4838 11.8563 24.2857 11.661L24.6558 11.5685V8.96749L24.2857 8.87497C23.4941 8.66935 22.8361 8.10392 22.5174 7.35343L22.5071 7.32259Z" stroke="white" stroke-width="1.5" stroke-linecap="round" stroke-linejoin="round"/>
<path d="M5.1123 23.6072H7.16843" stroke="white" stroke-width="1.5" stroke-linecap="round" stroke-linejoin="round"/>
<path d="M10.2527 23.6072H18.4772" stroke="white" stroke-width="1.5" stroke-linecap="round" stroke-linejoin="round"/>
<path d="M33.898 10.2423C33.24 10.2423 32.6129 9.94417 32.212 9.40958L32.0269 9.16284L30.0942 9.96473L30.1353 10.2732C30.2278 10.9311 30.0016 11.5788 29.539 12.0517C29.539 12.0517 29.539 12.0517 29.5287 12.062C29.0661 12.5246 28.4081 12.7508 27.7605 12.6583L27.452 12.6171L26.6501 14.5499L26.8969 14.7349C27.4212 15.1256 27.7296 15.7527 27.7296 16.4107V16.4313C27.7296 17.0892 27.4315 17.7163 26.8969 18.1173L26.6501 18.3023L27.452 20.2351L27.7605 20.194C28.4184 20.1014 29.0661 20.3276 29.539 20.7902C29.539 20.7902 29.539 20.7902 29.5493 20.8005C30.0119 21.2631 30.2381 21.9211 30.1456 22.5688L30.1044 22.8772L32.0372 23.6791L32.2222 23.4324C32.6129 22.908 33.24 22.5996 33.898 22.5996" stroke="white" stroke-width="1.5" stroke-linecap="round" stroke-linejoin="round"/>
<path d="M15.3928 13.3265C17.0961 13.3265 18.477 11.9456 18.477 10.2423C18.477 8.53892 17.0961 7.15808 15.3928 7.15808C13.6894 7.15808 12.3086 8.53892 12.3086 10.2423C12.3086 11.9456 13.6894 13.3265 15.3928 13.3265Z" stroke="white" stroke-width="1.5" stroke-linecap="round" stroke-linejoin="round"/>
<path d="M33.8979 18.4667C32.7671 18.4667 31.8418 17.5415 31.8418 16.4106C31.8418 15.2797 32.7671 14.3545 33.8979 14.3545" stroke="white" stroke-width="1.5" stroke-linecap="round" stroke-linejoin="round"/>
</svg>
